<svg width="12" height="11" viewBox="0 0 12 11" fill="none" xmlns="http://www.w3.org/2000/svg">
<path d="M8.66667 6.16669V4.83335H11.3333V6.16669H8.66667ZM9.46667 10.8334L7.33333 9.23335L8.13333 8.16669L10.2667 9.76669L9.46667 10.8334ZM8.13333 2.83335L7.33333 1.76669L9.46667 0.166687L10.2667 1.23335L8.13333 2.83335ZM0 7.50002V3.50002H2.66667L6 0.166687V10.8334L2.66667 7.50002H0ZM4.66667 3.40002L3.23333 4.83335H1.33333V6.16669H3.23333L4.66667 7.60002V3.40002Z" fill="#222222"/>
<path d="M8.66667 6.16669V4.83335H11.3333V6.16669H8.66667ZM9.46667 10.8334L7.33333 9.23335L8.13333 8.16669L10.2667 9.76669L9.46667 10.8334ZM8.13333 2.83335L7.33333 1.76669L9.46667 0.166687L10.2667 1.23335L8.13333 2.83335ZM0 7.50002V3.50002H2.66667L6 0.166687V10.8334L2.66667 7.50002H0ZM4.66667 3.40002L3.23333 4.83335H1.33333V6.16669H3.23333L4.66667 7.60002V3.40002Z" fill="black" fill-opacity="0.2"/>
<path d="M8.66667 6.16669V4.83335H11.3333V6.16669H8.66667ZM9.46667 10.8334L7.33333 9.23335L8.13333 8.16669L10.2667 9.76669L9.46667 10.8334ZM8.13333 2.83335L7.33333 1.76669L9.46667 0.166687L10.2667 1.23335L8.13333 2.83335ZM0 7.50002V3.50002H2.66667L6 0.166687V10.8334L2.66667 7.50002H0ZM4.66667 3.40002L3.23333 4.83335H1.33333V6.16669H3.23333L4.66667 7.60002V3.40002Z" fill="black" fill-opacity="0.2"/>
</svg>
