<svg width="14" height="14" viewBox="0 0 14 14" fill="none" xmlns="http://www.w3.org/2000/svg">
<path d="M7.405 1.65C7.29197 1.55383 7.14841 1.50102 7 1.50102C6.85159 1.50102 6.70803 1.55383 6.595 1.65L1.72 5.794C1.65098 5.85272 1.59555 5.92576 1.55756 6.00803C1.51957 6.09031 1.49993 6.17987 1.5 6.2705V12.75C1.5 12.8163 1.52634 12.8799 1.57322 12.9268C1.62011 12.9737 1.6837 13 1.75 13H4.25C4.3163 13 4.37989 12.9737 4.42678 12.9268C4.47366 12.8799 4.5 12.8163 4.5 12.75V9.25C4.5 8.91848 4.6317 8.60053 4.86612 8.36611C5.10054 8.13169 5.41848 8 5.75 8H8.252C8.41615 8 8.5787 8.03233 8.73035 8.09515C8.88201 8.15797 9.01981 8.25004 9.13588 8.36611C9.25196 8.48219 9.34403 8.61998 9.40685 8.77164C9.46967 8.9233 9.502 9.08584 9.502 9.25V12.75C9.502 12.8163 9.52834 12.8799 9.57522 12.9268C9.62211 12.9737 9.6857 13 9.752 13H12.25C12.3163 13 12.3799 12.9737 12.4268 12.9268C12.4737 12.8799 12.5 12.8163 12.5 12.75V6.27C12.5 6.17945 12.4803 6.09 12.4423 6.00781C12.4043 5.92562 12.349 5.85267 12.28 5.794L7.405 1.65ZM5.9475 0.888496C6.24131 0.638728 6.61437 0.501587 7 0.501587C7.38563 0.501587 7.75869 0.638728 8.0525 0.888496L12.9275 5.032C13.1069 5.18454 13.2511 5.37426 13.3499 5.58802C13.4488 5.80179 13.5 6.03448 13.5 6.27V12.75C13.5 13.0815 13.3683 13.3995 13.1339 13.6339C12.8995 13.8683 12.5815 14 12.25 14H9.752C9.42048 14 9.10254 13.8683 8.86812 13.6339C8.6337 13.3995 8.502 13.0815 8.502 12.75V9.25C8.502 9.18369 8.47566 9.1201 8.42878 9.07322C8.38189 9.02633 8.3183 9 8.252 9H5.75C5.6837 9 5.62011 9.02633 5.57322 9.07322C5.52634 9.1201 5.5 9.18369 5.5 9.25V12.75C5.5 13.0815 5.3683 13.3995 5.13388 13.6339C4.89946 13.8683 4.58152 14 4.25 14H1.75C1.41848 14 1.10054 13.8683 0.866117 13.6339C0.631696 13.3995 0.5 13.0815 0.5 12.75V6.27C0.500013 6.03448 0.551219 5.80179 0.650072 5.58802C0.748925 5.37426 0.893062 5.18454 1.0725 5.032L5.9475 0.888496Z" fill="#2F8132"/>
</svg>
