<svg width="14" height="14" viewBox="0 0 14 14" fill="none" xmlns="http://www.w3.org/2000/svg">
<path d="M7.405 1.64987C7.29197 1.55371 7.14841 1.5009 7 1.5009C6.85159 1.5009 6.70803 1.55371 6.595 1.64987L1.72 5.79387C1.65098 5.8526 1.59555 5.92563 1.55756 6.00791C1.51957 6.09019 1.49993 6.17975 1.5 6.27037V12.7499C1.5 12.8162 1.52634 12.8798 1.57322 12.9267C1.62011 12.9735 1.6837 12.9999 1.75 12.9999H4.25C4.3163 12.9999 4.37989 12.9735 4.42678 12.9267C4.47366 12.8798 4.5 12.8162 4.5 12.7499V9.24987C4.5 8.91835 4.6317 8.60041 4.86612 8.36599C5.10054 8.13157 5.41848 7.99987 5.75 7.99987H8.252C8.41615 7.99987 8.5787 8.03221 8.73035 8.09503C8.88201 8.15784 9.01981 8.24992 9.13588 8.36599C9.25196 8.48206 9.34403 8.61986 9.40685 8.77152C9.46967 8.92318 9.502 9.08572 9.502 9.24987V12.7499C9.502 12.8162 9.52834 12.8798 9.57522 12.9267C9.62211 12.9735 9.6857 12.9999 9.752 12.9999H12.25C12.3163 12.9999 12.3799 12.9735 12.4268 12.9267C12.4737 12.8798 12.5 12.8162 12.5 12.7499V6.26987C12.5 6.17933 12.4803 6.08987 12.4423 6.00769C12.4043 5.9255 12.349 5.85255 12.28 5.79387L7.405 1.64987ZM5.9475 0.888374C6.24131 0.638606 6.61437 0.501465 7 0.501465C7.38563 0.501465 7.75869 0.638606 8.0525 0.888374L12.9275 5.03187C13.1069 5.18441 13.2511 5.37414 13.3499 5.5879C13.4488 5.80166 13.5 6.03436 13.5 6.26987V12.7499C13.5 13.0814 13.3683 13.3993 13.1339 13.6338C12.8995 13.8682 12.5815 13.9999 12.25 13.9999H9.752C9.42048 13.9999 9.10254 13.8682 8.86812 13.6338C8.6337 13.3993 8.502 13.0814 8.502 12.7499V9.24987C8.502 9.18357 8.47566 9.11998 8.42878 9.0731C8.38189 9.02621 8.3183 8.99987 8.252 8.99987H5.75C5.6837 8.99987 5.62011 9.02621 5.57322 9.0731C5.52634 9.11998 5.5 9.18357 5.5 9.24987V12.7499C5.5 13.0814 5.3683 13.3993 5.13388 13.6338C4.89946 13.8682 4.58152 13.9999 4.25 13.9999H1.75C1.41848 13.9999 1.10054 13.8682 0.866117 13.6338C0.631696 13.3993 0.5 13.0814 0.5 12.7499V6.26987C0.500013 6.03436 0.551219 5.80166 0.650072 5.5879C0.748925 5.37414 0.893062 5.18441 1.0725 5.03187L5.9475 0.888374Z" fill="#222222"/>
<path d="M7.405 1.64987C7.29197 1.55371 7.14841 1.5009 7 1.5009C6.85159 1.5009 6.70803 1.55371 6.595 1.64987L1.72 5.79387C1.65098 5.8526 1.59555 5.92563 1.55756 6.00791C1.51957 6.09019 1.49993 6.17975 1.5 6.27037V12.7499C1.5 12.8162 1.52634 12.8798 1.57322 12.9267C1.62011 12.9735 1.6837 12.9999 1.75 12.9999H4.25C4.3163 12.9999 4.37989 12.9735 4.42678 12.9267C4.47366 12.8798 4.5 12.8162 4.5 12.7499V9.24987C4.5 8.91835 4.6317 8.60041 4.86612 8.36599C5.10054 8.13157 5.41848 7.99987 5.75 7.99987H8.252C8.41615 7.99987 8.5787 8.03221 8.73035 8.09503C8.88201 8.15784 9.01981 8.24992 9.13588 8.36599C9.25196 8.48206 9.34403 8.61986 9.40685 8.77152C9.46967 8.92318 9.502 9.08572 9.502 9.24987V12.7499C9.502 12.8162 9.52834 12.8798 9.57522 12.9267C9.62211 12.9735 9.6857 12.9999 9.752 12.9999H12.25C12.3163 12.9999 12.3799 12.9735 12.4268 12.9267C12.4737 12.8798 12.5 12.8162 12.5 12.7499V6.26987C12.5 6.17933 12.4803 6.08987 12.4423 6.00769C12.4043 5.9255 12.349 5.85255 12.28 5.79387L7.405 1.64987ZM5.9475 0.888374C6.24131 0.638606 6.61437 0.501465 7 0.501465C7.38563 0.501465 7.75869 0.638606 8.0525 0.888374L12.9275 5.03187C13.1069 5.18441 13.2511 5.37414 13.3499 5.5879C13.4488 5.80166 13.5 6.03436 13.5 6.26987V12.7499C13.5 13.0814 13.3683 13.3993 13.1339 13.6338C12.8995 13.8682 12.5815 13.9999 12.25 13.9999H9.752C9.42048 13.9999 9.10254 13.8682 8.86812 13.6338C8.6337 13.3993 8.502 13.0814 8.502 12.7499V9.24987C8.502 9.18357 8.47566 9.11998 8.42878 9.0731C8.38189 9.02621 8.3183 8.99987 8.252 8.99987H5.75C5.6837 8.99987 5.62011 9.02621 5.57322 9.0731C5.52634 9.11998 5.5 9.18357 5.5 9.24987V12.7499C5.5 13.0814 5.3683 13.3993 5.13388 13.6338C4.89946 13.8682 4.58152 13.9999 4.25 13.9999H1.75C1.41848 13.9999 1.10054 13.8682 0.866117 13.6338C0.631696 13.3993 0.5 13.0814 0.5 12.7499V6.26987C0.500013 6.03436 0.551219 5.80166 0.650072 5.5879C0.748925 5.37414 0.893062 5.18441 1.0725 5.03187L5.9475 0.888374Z" fill="black" fill-opacity="0.2"/>
<path d="M7.405 1.64987C7.29197 1.55371 7.14841 1.5009 7 1.5009C6.85159 1.5009 6.70803 1.55371 6.595 1.64987L1.72 5.79387C1.65098 5.8526 1.59555 5.92563 1.55756 6.00791C1.51957 6.09019 1.49993 6.17975 1.5 6.27037V12.7499C1.5 12.8162 1.52634 12.8798 1.57322 12.9267C1.62011 12.9735 1.6837 12.9999 1.75 12.9999H4.25C4.3163 12.9999 4.37989 12.9735 4.42678 12.9267C4.47366 12.8798 4.5 12.8162 4.5 12.7499V9.24987C4.5 8.91835 4.6317 8.60041 4.86612 8.36599C5.10054 8.13157 5.41848 7.99987 5.75 7.99987H8.252C8.41615 7.99987 8.5787 8.03221 8.73035 8.09503C8.88201 8.15784 9.01981 8.24992 9.13588 8.36599C9.25196 8.48206 9.34403 8.61986 9.40685 8.77152C9.46967 8.92318 9.502 9.08572 9.502 9.24987V12.7499C9.502 12.8162 9.52834 12.8798 9.57522 12.9267C9.62211 12.9735 9.6857 12.9999 9.752 12.9999H12.25C12.3163 12.9999 12.3799 12.9735 12.4268 12.9267C12.4737 12.8798 12.5 12.8162 12.5 12.7499V6.26987C12.5 6.17933 12.4803 6.08987 12.4423 6.00769C12.4043 5.9255 12.349 5.85255 12.28 5.79387L7.405 1.64987ZM5.9475 0.888374C6.24131 0.638606 6.61437 0.501465 7 0.501465C7.38563 0.501465 7.75869 0.638606 8.0525 0.888374L12.9275 5.03187C13.1069 5.18441 13.2511 5.37414 13.3499 5.5879C13.4488 5.80166 13.5 6.03436 13.5 6.26987V12.7499C13.5 13.0814 13.3683 13.3993 13.1339 13.6338C12.8995 13.8682 12.5815 13.9999 12.25 13.9999H9.752C9.42048 13.9999 9.10254 13.8682 8.86812 13.6338C8.6337 13.3993 8.502 13.0814 8.502 12.7499V9.24987C8.502 9.18357 8.47566 9.11998 8.42878 9.0731C8.38189 9.02621 8.3183 8.99987 8.252 8.99987H5.75C5.6837 8.99987 5.62011 9.02621 5.57322 9.0731C5.52634 9.11998 5.5 9.18357 5.5 9.24987V12.7499C5.5 13.0814 5.3683 13.3993 5.13388 13.6338C4.89946 13.8682 4.58152 13.9999 4.25 13.9999H1.75C1.41848 13.9999 1.10054 13.8682 0.866117 13.6338C0.631696 13.3993 0.5 13.0814 0.5 12.7499V6.26987C0.500013 6.03436 0.551219 5.80166 0.650072 5.5879C0.748925 5.37414 0.893062 5.18441 1.0725 5.03187L5.9475 0.888374Z" fill="black" fill-opacity="0.2"/>
</svg>
