<svg width="12" height="13" viewBox="0 0 12 13" fill="none" xmlns="http://www.w3.org/2000/svg">
<path d="M5.99984 0.666626C6.13245 0.666626 6.25962 0.719304 6.35339 0.813073C6.44716 0.906841 6.49984 1.03402 6.49984 1.16663C6.49984 1.29923 6.44716 1.42641 6.35339 1.52018C6.25962 1.61395 6.13245 1.66663 5.99984 1.66663C4.71796 1.66663 3.48858 2.17585 2.58215 3.08228C1.67573 3.9887 1.1665 5.21808 1.1665 6.49996C1.1665 7.78184 1.67573 9.01122 2.58215 9.91764C3.48858 10.8241 4.71796 11.3333 5.99984 11.3333C6.13245 11.3333 6.25962 11.386 6.35339 11.4797C6.44716 11.5735 6.49984 11.7007 6.49984 11.8333C6.49984 11.9659 6.44716 12.0931 6.35339 12.1868C6.25962 12.2806 6.13245 12.3333 5.99984 12.3333C4.45274 12.3333 2.96901 11.7187 1.87505 10.6248C0.781085 9.53079 0.166504 8.04706 0.166504 6.49996C0.166504 4.95286 0.781085 3.46913 1.87505 2.37517C2.96901 1.28121 4.45274 0.666626 5.99984 0.666626Z" fill="#D92D20"/>
<path d="M8.97984 4.85331C8.89152 4.75853 8.84344 4.63317 8.84572 4.50363C8.84801 4.3741 8.90048 4.25051 8.99209 4.1589C9.0837 4.06729 9.20729 4.01481 9.33682 4.01253C9.46636 4.01024 9.59172 4.05833 9.6865 4.14665L11.6865 6.14665C11.7801 6.2404 11.8327 6.36748 11.8327 6.49998C11.8327 6.63248 11.7801 6.75956 11.6865 6.85331L9.6865 8.85331C9.64073 8.90244 9.58553 8.94184 9.5242 8.96917C9.46286 8.99649 9.39665 9.01119 9.32952 9.01237C9.26238 9.01356 9.1957 9.00121 9.13344 8.97606C9.07118 8.95091 9.01462 8.91348 8.96715 8.866C8.91967 8.81853 8.88224 8.76197 8.85709 8.69971C8.83194 8.63745 8.81959 8.57077 8.82078 8.50363C8.82196 8.4365 8.83666 8.37029 8.86398 8.30895C8.89131 8.24762 8.93071 8.19242 8.97984 8.14665L10.1265 6.99998H4.6665C4.5339 6.99998 4.40672 6.9473 4.31295 6.85353C4.21918 6.75976 4.1665 6.63259 4.1665 6.49998C4.1665 6.36737 4.21918 6.24019 4.31295 6.14643C4.40672 6.05266 4.5339 5.99998 4.6665 5.99998H10.1265L8.97984 4.85331Z" fill="#D92D20"/>
</svg>
