<svg width="12" height="13" viewBox="0 0 12 13" fill="none" xmlns="http://www.w3.org/2000/svg">
<path d="M0.666504 10.4999C0.666504 9.79267 0.947455 9.1144 1.44755 8.6143C1.94765 8.1142 2.62593 7.83325 3.33317 7.83325H8.6665C9.37375 7.83325 10.052 8.1142 10.5521 8.6143C11.0522 9.1144 11.3332 9.79267 11.3332 10.4999C11.3332 10.8535 11.1927 11.1927 10.9426 11.4427C10.6926 11.6928 10.3535 11.8333 9.99984 11.8333H1.99984C1.64622 11.8333 1.30708 11.6928 1.05703 11.4427C0.80698 11.1927 0.666504 10.8535 0.666504 10.4999Z" stroke="black" stroke-linejoin="round"/>
<path d="M6 5.16663C7.10457 5.16663 8 4.2712 8 3.16663C8 2.06206 7.10457 1.16663 6 1.16663C4.89543 1.16663 4 2.06206 4 3.16663C4 4.2712 4.89543 5.16663 6 5.16663Z" stroke="black"/>
</svg>
