<svg width="14" height="13" viewBox="0 0 14 13" fill="none" xmlns="http://www.w3.org/2000/svg">
<path d="M6.99984 7.83366C7.73622 7.83366 8.33317 7.23671 8.33317 6.50033C8.33317 5.76395 7.73622 5.16699 6.99984 5.16699C6.26346 5.16699 5.6665 5.76395 5.6665 6.50033C5.6665 7.23671 6.26346 7.83366 6.99984 7.83366Z" stroke="#2F8132"/>
<path d="M2.5992 2.4202L2.76587 2.13086C2.70043 2.09303 2.62408 2.07856 2.54934 2.08983C2.4746 2.10109 2.40591 2.13742 2.35453 2.19286L2.5992 2.4202ZM1.26653 4.72953L0.947868 4.63086C0.925688 4.703 0.928646 4.78053 0.956257 4.85077C0.983869 4.92101 1.0345 4.97981 1.09987 5.01753L1.26653 4.72953ZM1.2652 8.2702L1.09853 7.98153C1.03303 8.01928 0.982298 8.07818 0.954678 8.14857C0.927058 8.21895 0.924186 8.29663 0.946535 8.36886L1.2652 8.2702ZM2.59853 10.5795L2.35387 10.8062C2.40524 10.8616 2.47394 10.898 2.54868 10.9092C2.62342 10.9205 2.69977 10.906 2.7652 10.8682L2.59853 10.5795ZM5.6652 12.3495H5.33187C5.33183 12.4252 5.35755 12.4987 5.40481 12.5578C5.45206 12.6169 5.51803 12.6582 5.59187 12.6749L5.6652 12.3495ZM8.33253 12.3509L8.40653 12.6762C8.48025 12.6594 8.54607 12.6181 8.59319 12.559C8.64031 12.4998 8.66594 12.4265 8.66587 12.3509H8.3332H8.33253ZM11.3999 10.5802L11.2332 10.8689C11.2986 10.9067 11.375 10.9212 11.4497 10.9099C11.5245 10.8986 11.5932 10.8623 11.6445 10.8069L11.3999 10.5802ZM12.7319 8.26953L13.0505 8.3682C13.0727 8.29606 13.0698 8.21852 13.0421 8.14828C13.0145 8.07804 12.9639 8.01925 12.8985 7.98153L12.7319 8.26953ZM12.7332 4.72886L12.8999 5.01753C12.9654 4.97978 13.0161 4.92088 13.0437 4.85049C13.0713 4.78011 13.0742 4.70243 13.0519 4.6302L12.7332 4.72886ZM11.3999 2.41886L11.6445 2.1922C11.5932 2.13676 11.5245 2.10043 11.4497 2.08916C11.375 2.07789 11.2986 2.09236 11.2332 2.1302L11.3999 2.41886ZM8.3332 0.650197H8.66653C8.66646 0.574712 8.64076 0.501489 8.59365 0.44251C8.54654 0.38353 8.4808 0.342288 8.4072 0.32553L8.3332 0.650197ZM5.66653 0.648863L5.59253 0.32353C5.5187 0.340182 5.45273 0.381467 5.40547 0.440595C5.35822 0.499723 5.3325 0.573173 5.33253 0.648863H5.66587H5.66653ZM1.5852 4.8282C1.83533 4.01561 2.26531 3.26981 2.8432 2.6462L2.35453 2.19286C1.70844 2.88979 1.22765 3.72264 0.947868 4.63086L1.5852 4.8282ZM2.09187 9.33353C1.88 8.96654 1.70983 8.57701 1.58453 8.1722L0.947201 8.36953C1.08765 8.82177 1.27816 9.25691 1.5152 9.66686L2.09187 9.33353ZM2.84387 10.3535C2.55622 10.0426 2.30354 9.70045 2.09187 9.33353L1.5152 9.66686C1.75163 10.077 2.03315 10.4593 2.35453 10.8069L2.84387 10.3535ZM8.2592 12.0269C7.4302 12.2156 6.56933 12.2151 5.74053 12.0255L5.59253 12.6749C6.51871 12.8868 7.48073 12.8875 8.4072 12.6769L8.2592 12.0269ZM12.4145 8.1722C12.1644 8.98478 11.7344 9.73058 11.1565 10.3542L11.6452 10.8075C12.2913 10.1106 12.7721 9.27707 13.0519 8.36886L12.4145 8.1722ZM11.9079 3.66686C12.1239 4.0422 12.2925 4.43153 12.4159 4.8282L13.0525 4.63086C12.9121 4.1786 12.7216 3.74345 12.4845 3.33353L11.9079 3.66686ZM11.1559 2.64686C11.4437 2.95764 11.6964 3.29979 11.9079 3.66686L12.4845 3.33353C12.2481 2.92343 11.9666 2.54105 11.6452 2.19353L11.1559 2.64686ZM5.74053 0.97353C6.56953 0.784799 7.4304 0.785255 8.2592 0.974863L8.4072 0.32553C7.48103 0.113521 6.519 0.112838 5.59253 0.32353L5.74053 0.97353ZM5.99987 1.88153V0.648197H5.3332V1.88153H5.99987ZM3.8332 2.74686L2.76587 2.13086L2.43253 2.70753L3.4992 3.3242L3.8332 2.74686ZM2.16653 7.36553L1.09853 7.98153L1.43253 8.55886L2.4992 7.94286L2.16653 7.36553ZM2.49987 5.0562L1.4332 4.44086L1.09987 5.0182L2.16653 5.63353L2.49987 5.0562ZM5.99987 12.3495V11.1182H5.3332V12.3495H5.99987ZM3.49987 9.67486L2.43253 10.2909L2.76587 10.8682L3.83253 10.2522L3.49987 9.67486ZM11.5672 10.2915L10.4999 9.67486L10.1665 10.2529L11.2332 10.8689L11.5672 10.2915ZM8.66653 12.3515V11.1182H7.99987V12.3515H8.66653ZM12.5672 4.4402L11.4999 5.0562L11.8332 5.63353L12.8999 5.01753L12.5672 4.4402ZM12.8992 7.98086L11.8332 7.36686L11.4999 7.9442L12.5665 8.55953L12.8999 7.9822L12.8992 7.98086ZM8.66653 1.88153V0.650197H7.99987V1.88153H8.66653ZM11.2339 2.13086L10.1665 2.74753L10.4999 3.32486L11.5672 2.7082L11.2339 2.13086ZM7.99987 1.88153C7.99987 3.1642 9.38853 3.9662 10.4999 3.32486L10.1665 2.74753C10.0145 2.83533 9.84197 2.88153 9.66637 2.8815C9.49078 2.88148 9.31829 2.83521 9.16626 2.74737C9.01422 2.65953 8.88799 2.5332 8.80027 2.38109C8.71255 2.22898 8.66642 2.05712 8.66653 1.88153H7.99987ZM11.4999 5.05686C10.3885 5.6982 10.3885 7.3022 11.4999 7.94353L11.8332 7.3662C11.6812 7.27842 11.555 7.15219 11.4672 7.00017C11.3794 6.84816 11.3332 6.67572 11.3332 6.5002C11.3332 6.32467 11.3794 6.15223 11.4672 6.00022C11.555 5.8482 11.6812 5.72197 11.8332 5.6342L11.4999 5.05686ZM10.4999 9.67553C9.38853 9.0342 7.99987 9.83486 7.99987 11.1182H8.66653C8.66654 10.9427 8.71275 10.7709 8.80052 10.6189C8.88829 10.4669 9.01453 10.3406 9.16654 10.2529C9.31856 10.1651 9.49101 10.1189 9.66654 10.1189C9.84208 10.1189 10.0145 10.1651 10.1665 10.2529L10.4999 9.67553ZM5.99987 11.1182C5.99987 9.83553 4.6112 9.0342 3.49987 9.67553L3.8332 10.2529C3.98527 10.1651 4.15777 10.1189 4.33336 10.1189C4.50895 10.1189 4.68144 10.1652 4.83348 10.253C4.98552 10.3409 5.11174 10.4672 5.19947 10.6193C5.28719 10.7714 5.33331 10.9439 5.3332 11.1195H5.99987V11.1182ZM2.49987 7.94353C3.6112 7.3022 3.6112 5.6982 2.49987 5.05686L2.16653 5.6342C2.8332 6.01886 2.8332 6.9802 2.16653 7.36553L2.49987 7.94353ZM5.3332 1.88153C5.33308 2.05701 5.28679 2.22936 5.19897 2.38129C5.11115 2.53321 4.9849 2.65935 4.8329 2.74704C4.6809 2.83472 4.50851 2.88087 4.33303 2.88084C4.15755 2.88081 3.98517 2.8346 3.8332 2.74686L3.49987 3.32486C4.6112 3.9662 5.99987 3.16486 5.99987 1.88153H5.3332Z" fill="#2F8132"/>
</svg>
