<svg width="14" height="13" viewBox="0 0 14 13" fill="none" xmlns="http://www.w3.org/2000/svg">
<path d="M6.99984 7.83329C7.73622 7.83329 8.33317 7.23634 8.33317 6.49996C8.33317 5.76358 7.73622 5.16663 6.99984 5.16663C6.26346 5.16663 5.6665 5.76358 5.6665 6.49996C5.6665 7.23634 6.26346 7.83329 6.99984 7.83329Z" stroke="black"/>
<path d="M2.5992 2.41995L2.76587 2.13062C2.70043 2.09279 2.62408 2.07832 2.54934 2.08958C2.4746 2.10085 2.40591 2.13718 2.35453 2.19262L2.5992 2.41995ZM1.26653 4.72929L0.947868 4.63062C0.925688 4.70276 0.928646 4.78029 0.956257 4.85053C0.983869 4.92077 1.0345 4.97956 1.09987 5.01729L1.26653 4.72929ZM1.2652 8.26995L1.09853 7.98129C1.03303 8.01904 0.982298 8.07794 0.954678 8.14832C0.927058 8.21871 0.924186 8.29639 0.946535 8.36862L1.2652 8.26995ZM2.59853 10.5793L2.35387 10.806C2.40524 10.8614 2.47394 10.8977 2.54868 10.909C2.62342 10.9203 2.69977 10.9058 2.7652 10.868L2.59853 10.5793ZM5.6652 12.3493H5.33187C5.33183 12.425 5.35755 12.4984 5.40481 12.5576C5.45206 12.6167 5.51803 12.658 5.59187 12.6746L5.6652 12.3493ZM8.33253 12.3506L8.40653 12.676C8.48025 12.6592 8.54607 12.6178 8.59319 12.5587C8.64031 12.4996 8.66594 12.4262 8.66587 12.3506H8.3332H8.33253ZM11.3999 10.58L11.2332 10.8686C11.2986 10.9065 11.375 10.9209 11.4497 10.9097C11.5245 10.8984 11.5932 10.8621 11.6445 10.8066L11.3999 10.58ZM12.7319 8.26929L13.0505 8.36795C13.0727 8.29581 13.0698 8.21828 13.0421 8.14804C13.0145 8.0778 12.9639 8.01901 12.8985 7.98129L12.7319 8.26929ZM12.7332 4.72862L12.8999 5.01729C12.9654 4.97953 13.0161 4.92063 13.0437 4.85025C13.0713 4.77986 13.0742 4.70218 13.0519 4.62995L12.7332 4.72862ZM11.3999 2.41862L11.6445 2.19195C11.5932 2.13651 11.5245 2.10018 11.4497 2.08892C11.375 2.07765 11.2986 2.09212 11.2332 2.12995L11.3999 2.41862ZM8.3332 0.649952H8.66653C8.66646 0.574468 8.64076 0.501245 8.59365 0.442266C8.54654 0.383286 8.4808 0.342043 8.4072 0.325286L8.3332 0.649952ZM5.66653 0.648619L5.59253 0.323286C5.5187 0.339938 5.45273 0.381223 5.40547 0.440351C5.35822 0.499479 5.3325 0.572929 5.33253 0.648619H5.66587H5.66653ZM1.5852 4.82795C1.83533 4.01537 2.26531 3.26957 2.8432 2.64595L2.35453 2.19262C1.70844 2.88954 1.22765 3.7224 0.947868 4.63062L1.5852 4.82795ZM2.09187 9.33329C1.88 8.96629 1.70983 8.57676 1.58453 8.17195L0.947201 8.36928C1.08765 8.82153 1.27816 9.25667 1.5152 9.66662L2.09187 9.33329ZM2.84387 10.3533C2.55622 10.0423 2.30354 9.70021 2.09187 9.33329L1.5152 9.66662C1.75163 10.0767 2.03315 10.4591 2.35453 10.8066L2.84387 10.3533ZM8.2592 12.0266C7.4302 12.2154 6.56933 12.2149 5.74053 12.0253L5.59253 12.6746C6.51871 12.8866 7.48073 12.8873 8.4072 12.6766L8.2592 12.0266ZM12.4145 8.17195C12.1644 8.98454 11.7344 9.73034 11.1565 10.354L11.6452 10.8073C12.2913 10.1103 12.7721 9.27683 13.0519 8.36862L12.4145 8.17195ZM11.9079 3.66662C12.1239 4.04195 12.2925 4.43129 12.4159 4.82795L13.0525 4.63062C12.9121 4.17836 12.7216 3.74321 12.4845 3.33329L11.9079 3.66662ZM11.1559 2.64662C11.4437 2.9574 11.6964 3.29954 11.9079 3.66662L12.4845 3.33329C12.2481 2.92319 11.9666 2.54081 11.6452 2.19329L11.1559 2.64662ZM5.74053 0.973286C6.56953 0.784555 7.4304 0.785011 8.2592 0.974619L8.4072 0.325286C7.48103 0.113277 6.519 0.112594 5.59253 0.323286L5.74053 0.973286ZM5.99987 1.88129V0.647952H5.3332V1.88129H5.99987ZM3.8332 2.74662L2.76587 2.13062L2.43253 2.70729L3.4992 3.32395L3.8332 2.74662ZM2.16653 7.36529L1.09853 7.98129L1.43253 8.55862L2.4992 7.94262L2.16653 7.36529ZM2.49987 5.05595L1.4332 4.44062L1.09987 5.01795L2.16653 5.63329L2.49987 5.05595ZM5.99987 12.3493V11.118H5.3332V12.3493H5.99987ZM3.49987 9.67462L2.43253 10.2906L2.76587 10.868L3.83253 10.252L3.49987 9.67462ZM11.5672 10.2913L10.4999 9.67462L10.1665 10.2526L11.2332 10.8686L11.5672 10.2913ZM8.66653 12.3513V11.118H7.99987V12.3513H8.66653ZM12.5672 4.43995L11.4999 5.05595L11.8332 5.63329L12.8999 5.01729L12.5672 4.43995ZM12.8992 7.98062L11.8332 7.36662L11.4999 7.94395L12.5665 8.55929L12.8999 7.98195L12.8992 7.98062ZM8.66653 1.88129V0.649952H7.99987V1.88129H8.66653ZM11.2339 2.13062L10.1665 2.74729L10.4999 3.32462L11.5672 2.70795L11.2339 2.13062ZM7.99987 1.88129C7.99987 3.16395 9.38853 3.96595 10.4999 3.32462L10.1665 2.74729C10.0145 2.83508 9.84197 2.88129 9.66637 2.88126C9.49078 2.88123 9.31829 2.83497 9.16626 2.74713C9.01422 2.65928 8.88799 2.53295 8.80027 2.38084C8.71255 2.22874 8.66642 2.05688 8.66653 1.88129H7.99987ZM11.4999 5.05662C10.3885 5.69795 10.3885 7.30195 11.4999 7.94328L11.8332 7.36595C11.6812 7.27818 11.555 7.15194 11.4672 6.99993C11.3794 6.84792 11.3332 6.67548 11.3332 6.49995C11.3332 6.32442 11.3794 6.15199 11.4672 5.99997C11.555 5.84796 11.6812 5.72172 11.8332 5.63395L11.4999 5.05662ZM10.4999 9.67529C9.38853 9.03395 7.99987 9.83462 7.99987 11.118H8.66653C8.66654 10.9424 8.71275 10.7706 8.80052 10.6186C8.88829 10.4666 9.01453 10.3404 9.16654 10.2526C9.31856 10.1648 9.49101 10.1186 9.66654 10.1186C9.84208 10.1186 10.0145 10.1649 10.1665 10.2526L10.4999 9.67529ZM5.99987 11.118C5.99987 9.83529 4.6112 9.03395 3.49987 9.67529L3.8332 10.2526C3.98527 10.1648 4.15777 10.1186 4.33336 10.1186C4.50895 10.1187 4.68144 10.1649 4.83348 10.2528C4.98552 10.3406 5.11174 10.467 5.19947 10.6191C5.28719 10.7712 5.33331 10.9437 5.3332 11.1193H5.99987V11.118ZM2.49987 7.94328C3.6112 7.30195 3.6112 5.69795 2.49987 5.05662L2.16653 5.63395C2.8332 6.01862 2.8332 6.97995 2.16653 7.36529L2.49987 7.94328ZM5.3332 1.88129C5.33308 2.05676 5.28679 2.22912 5.19897 2.38104C5.11115 2.53297 4.9849 2.65911 4.8329 2.74679C4.6809 2.83448 4.50851 2.88062 4.33303 2.88059C4.15755 2.88056 3.98517 2.83436 3.8332 2.74662L3.49987 3.32462C4.6112 3.96595 5.99987 3.16462 5.99987 1.88129H5.3332Z" fill="black"/>
</svg>
