<svg xmlns="http://www.w3.org/2000/svg" width="15" height="16" viewBox="0 0 15 20" fill="none">
  <path d="M2 12.4993C2 12.853 2.14048 13.1921 2.39052 13.4422C2.64057 13.6922 2.97971 13.8327 3.33333 13.8327C3.68696 13.8327 4.02609 13.6922 4.27614 13.4422C4.52619 13.1921 4.66667 12.853 4.66667 12.4993C4.66667 12.1457 4.52619 11.8066 4.27614 11.5565C4.02609 11.3065 3.68696 11.166 3.33333 11.166C2.97971 11.166 2.64057 11.3065 2.39052 11.5565C2.14048 11.8066 2 12.1457 2 12.4993ZM11.3333 4.49935C11.3333 4.85297 11.4738 5.19211 11.7239 5.44216C11.9739 5.69221 12.313 5.83268 12.6667 5.83268C13.0203 5.83268 13.3594 5.69221 13.6095 5.44216C13.8595 5.19211 14 4.85297 14 4.49935C14 4.14573 13.8595 3.80659 13.6095 3.55654C13.3594 3.30649 13.0203 3.16602 12.6667 3.16602C12.313 3.16602 11.9739 3.30649 11.7239 3.55654C11.4738 3.80659 11.3333 4.14573 11.3333 4.49935Z" stroke="#2F8132" stroke-linecap="round" stroke-linejoin="round"/>
  <path d="M12.6668 5.83333V9.16667C12.6668 10.0507 12.3156 10.8986 11.6905 11.5237C11.0654 12.1488 10.2176 12.5 9.3335 12.5H7.3335M7.3335 12.5L9.3335 10.5M7.3335 12.5L9.3335 14.5M3.3335 11.1667V7.83333C3.3335 6.94928 3.68469 6.10143 4.30981 5.47631C4.93493 4.85119 5.78277 4.5 6.66683 4.5H8.66683M8.66683 4.5L6.66683 2.5M8.66683 4.5L6.66683 6.5" stroke="#2F8132" stroke-linecap="round" stroke-linejoin="round"/>
</svg>