<svg xmlns="http://www.w3.org/2000/svg"  width="13" height="14" viewBox="0 0 15 20" fill="none">
  <path d="M14.5 6V11C14.5 12.3261 13.9732 13.5979 13.0355 14.5355C12.0979 15.4732 10.8261 16 9.5 16H6.5M6.5 16L9.5 13M6.5 16L9.5 19M0.5 14V9C0.5 7.67392 1.02678 6.40215 1.96447 5.46447C2.90215 4.52678 4.17392 4 5.5 4H8.5M8.5 4L5.5 1M8.5 4L5.5 7" stroke="#222222" stroke-linecap="round" stroke-linejoin="round"/>
  <path d="M14.5 6V11C14.5 12.3261 13.9732 13.5979 13.0355 14.5355C12.0979 15.4732 10.8261 16 9.5 16H6.5M6.5 16L9.5 13M6.5 16L9.5 19M0.5 14V9C0.5 7.67392 1.02678 6.40215 1.96447 5.46447C2.90215 4.52678 4.17392 4 5.5 4H8.5M8.5 4L5.5 1M8.5 4L5.5 7" stroke="black" stroke-opacity="0.2" stroke-linecap="round" stroke-linejoin="round"/>
  <path d="M14.5 6V11C14.5 12.3261 13.9732 13.5979 13.0355 14.5355C12.0979 15.4732 10.8261 16 9.5 16H6.5M6.5 16L9.5 13M6.5 16L9.5 19M0.5 14V9C0.5 7.67392 1.02678 6.40215 1.96447 5.46447C2.90215 4.52678 4.17392 4 5.5 4H8.5M8.5 4L5.5 1M8.5 4L5.5 7" stroke="black" stroke-opacity="0.2" stroke-linecap="round" stroke-linejoin="round"/>
</svg>