<svg width="13" height="11" viewBox="0 0 13 11" fill="none" xmlns="http://www.w3.org/2000/svg">
<path d="M11.5 2H1.5C1.36739 2 1.24021 1.94732 1.14645 1.85355C1.05268 1.75979 1 1.63261 1 1.5C1 1.36739 1.05268 1.24021 1.14645 1.14645C1.24021 1.05268 1.36739 1 1.5 1H10C10.1326 1 10.2598 0.947321 10.3536 0.853553C10.4473 0.759785 10.5 0.632608 10.5 0.5C10.5 0.367392 10.4473 0.240215 10.3536 0.146447C10.2598 0.0526785 10.1326 0 10 0H1.5C1.10218 0 0.720644 0.158035 0.43934 0.43934C0.158035 0.720644 0 1.10218 0 1.5V9.5C0 9.89782 0.158035 10.2794 0.43934 10.5607C0.720644 10.842 1.10218 11 1.5 11H11.5C11.7652 11 12.0196 10.8946 12.2071 10.7071C12.3946 10.5196 12.5 10.2652 12.5 10V3C12.5 2.73478 12.3946 2.48043 12.2071 2.29289C12.0196 2.10536 11.7652 2 11.5 2ZM11.5 10H1.5C1.36739 10 1.24021 9.94732 1.14645 9.85355C1.05268 9.75979 1 9.63261 1 9.5V2.91437C1.16055 2.97129 1.32966 3.00025 1.5 3H11.5V10ZM8.5 6.25C8.5 6.10166 8.54399 5.95666 8.6264 5.83332C8.70881 5.70999 8.82594 5.61386 8.96299 5.55709C9.10003 5.50033 9.25083 5.48547 9.39632 5.51441C9.5418 5.54335 9.67544 5.61478 9.78033 5.71967C9.88522 5.82456 9.95665 5.9582 9.98559 6.10368C10.0145 6.24917 9.99967 6.39997 9.94291 6.53701C9.88614 6.67406 9.79001 6.79119 9.66668 6.8736C9.54334 6.95601 9.39834 7 9.25 7C9.05109 7 8.86032 6.92098 8.71967 6.78033C8.57902 6.63968 8.5 6.44891 8.5 6.25Z" fill="#222222"/>
<path d="M11.5 2H1.5C1.36739 2 1.24021 1.94732 1.14645 1.85355C1.05268 1.75979 1 1.63261 1 1.5C1 1.36739 1.05268 1.24021 1.14645 1.14645C1.24021 1.05268 1.36739 1 1.5 1H10C10.1326 1 10.2598 0.947321 10.3536 0.853553C10.4473 0.759785 10.5 0.632608 10.5 0.5C10.5 0.367392 10.4473 0.240215 10.3536 0.146447C10.2598 0.0526785 10.1326 0 10 0H1.5C1.10218 0 0.720644 0.158035 0.43934 0.43934C0.158035 0.720644 0 1.10218 0 1.5V9.5C0 9.89782 0.158035 10.2794 0.43934 10.5607C0.720644 10.842 1.10218 11 1.5 11H11.5C11.7652 11 12.0196 10.8946 12.2071 10.7071C12.3946 10.5196 12.5 10.2652 12.5 10V3C12.5 2.73478 12.3946 2.48043 12.2071 2.29289C12.0196 2.10536 11.7652 2 11.5 2ZM11.5 10H1.5C1.36739 10 1.24021 9.94732 1.14645 9.85355C1.05268 9.75979 1 9.63261 1 9.5V2.91437C1.16055 2.97129 1.32966 3.00025 1.5 3H11.5V10ZM8.5 6.25C8.5 6.10166 8.54399 5.95666 8.6264 5.83332C8.70881 5.70999 8.82594 5.61386 8.96299 5.55709C9.10003 5.50033 9.25083 5.48547 9.39632 5.51441C9.5418 5.54335 9.67544 5.61478 9.78033 5.71967C9.88522 5.82456 9.95665 5.9582 9.98559 6.10368C10.0145 6.24917 9.99967 6.39997 9.94291 6.53701C9.88614 6.67406 9.79001 6.79119 9.66668 6.8736C9.54334 6.95601 9.39834 7 9.25 7C9.05109 7 8.86032 6.92098 8.71967 6.78033C8.57902 6.63968 8.5 6.44891 8.5 6.25Z" fill="black" fill-opacity="0.2"/>
<path d="M11.5 2H1.5C1.36739 2 1.24021 1.94732 1.14645 1.85355C1.05268 1.75979 1 1.63261 1 1.5C1 1.36739 1.05268 1.24021 1.14645 1.14645C1.24021 1.05268 1.36739 1 1.5 1H10C10.1326 1 10.2598 0.947321 10.3536 0.853553C10.4473 0.759785 10.5 0.632608 10.5 0.5C10.5 0.367392 10.4473 0.240215 10.3536 0.146447C10.2598 0.0526785 10.1326 0 10 0H1.5C1.10218 0 0.720644 0.158035 0.43934 0.43934C0.158035 0.720644 0 1.10218 0 1.5V9.5C0 9.89782 0.158035 10.2794 0.43934 10.5607C0.720644 10.842 1.10218 11 1.5 11H11.5C11.7652 11 12.0196 10.8946 12.2071 10.7071C12.3946 10.5196 12.5 10.2652 12.5 10V3C12.5 2.73478 12.3946 2.48043 12.2071 2.29289C12.0196 2.10536 11.7652 2 11.5 2ZM11.5 10H1.5C1.36739 10 1.24021 9.94732 1.14645 9.85355C1.05268 9.75979 1 9.63261 1 9.5V2.91437C1.16055 2.97129 1.32966 3.00025 1.5 3H11.5V10ZM8.5 6.25C8.5 6.10166 8.54399 5.95666 8.6264 5.83332C8.70881 5.70999 8.82594 5.61386 8.96299 5.55709C9.10003 5.50033 9.25083 5.48547 9.39632 5.51441C9.5418 5.54335 9.67544 5.61478 9.78033 5.71967C9.88522 5.82456 9.95665 5.9582 9.98559 6.10368C10.0145 6.24917 9.99967 6.39997 9.94291 6.53701C9.88614 6.67406 9.79001 6.79119 9.66668 6.8736C9.54334 6.95601 9.39834 7 9.25 7C9.05109 7 8.86032 6.92098 8.71967 6.78033C8.57902 6.63968 8.5 6.44891 8.5 6.25Z" fill="black" fill-opacity="0.2"/>
</svg>
