<svg width="16" height="16" viewBox="0 0 16 16" fill="none" xmlns="http://www.w3.org/2000/svg">
<g clip-path="url(#clip0_826_5267)">
<path d="M12.5714 6.28589H3.4285C2.79732 6.28589 2.28564 6.79756 2.28564 7.42875V14.2859C2.28564 14.9171 2.79732 15.4287 3.4285 15.4287H12.5714C13.2025 15.4287 13.7142 14.9171 13.7142 14.2859V7.42875C13.7142 6.79756 13.2025 6.28589 12.5714 6.28589Z" stroke="#F04438" stroke-width="2" stroke-linecap="round" stroke-linejoin="round"/>
<path d="M12 6.28582V4.57154C12 3.51067 11.5786 2.49325 10.8284 1.74311C10.0783 0.992961 9.06087 0.571533 8 0.571533C6.93913 0.571533 5.92172 0.992961 5.17157 1.74311C4.42143 2.49325 4 3.51067 4 4.57154V6.28582" stroke="#F04438" stroke-width="2" stroke-linecap="round" stroke-linejoin="round"/>
<path d="M7.9999 11.4287C8.31549 11.4287 8.57132 11.1729 8.57132 10.8573C8.57132 10.5417 8.31549 10.2859 7.9999 10.2859C7.6843 10.2859 7.42847 10.5417 7.42847 10.8573C7.42847 11.1729 7.6843 11.4287 7.9999 11.4287Z" stroke="#F04438" stroke-width="2" stroke-linecap="round" stroke-linejoin="round"/>
</g>
<defs>
<clipPath id="clip0_826_5267">
<rect width="16" height="16" fill="white"/>
</clipPath>
</defs>
</svg>
