<svg width="19" height="17" viewBox="0 0 19 17" fill="none" xmlns="http://www.w3.org/2000/svg">
<path d="M4.37113 5.14262C4.46052 3.97608 4.98703 2.8863 5.84533 2.09124C6.70364 1.29619 7.83046 0.854492 9.00042 0.854492C10.1704 0.854492 11.2972 1.29619 12.1555 2.09124C13.0138 2.8863 13.5403 3.97608 13.6297 5.14262H13.8218C14.6079 5.14266 15.3696 5.41559 15.9768 5.9148C16.584 6.41401 16.9991 7.10853 17.1511 7.87976C16.652 7.44618 16.0768 7.10882 15.4547 6.88476C15.0204 6.45424 14.4334 6.2131 13.8218 6.21404H13.1076C12.9655 6.21404 12.8292 6.1576 12.7288 6.05714C12.6283 5.95667 12.5718 5.82041 12.5718 5.67833V5.49976C12.5718 4.55256 12.1956 3.64415 11.5258 2.97438C10.856 2.3046 9.94762 1.92833 9.00042 1.92833C8.05322 1.92833 7.14481 2.3046 6.47504 2.97438C5.80526 3.64415 5.42899 4.55256 5.42899 5.49976V5.67833C5.42899 5.82041 5.37255 5.95667 5.27208 6.05714C5.17162 6.1576 5.03536 6.21404 4.89328 6.21404H4.17899C3.56331 6.21404 2.97284 6.45862 2.53749 6.89397C2.10214 7.32933 1.85756 7.91979 1.85756 8.53547C1.85756 9.15115 2.10214 9.74162 2.53749 10.177C2.97284 10.6123 3.56331 10.8569 4.17899 10.8569H8.39328C8.32328 11.2033 8.28613 11.5612 8.28613 11.9283H4.17899C3.73343 11.9283 3.29224 11.8406 2.8806 11.6701C2.46896 11.4996 2.09493 11.2496 1.77988 10.9346C1.46482 10.6195 1.21491 10.2455 1.0444 9.83386C0.873892 9.42222 0.786133 8.98103 0.786133 8.53547C0.786133 8.08992 0.873892 7.64872 1.0444 7.23708C1.21491 6.82544 1.46482 6.45142 1.77988 6.13636C2.09493 5.8213 2.46896 5.57139 2.8806 5.40088C3.29224 5.23037 3.73343 5.14262 4.17899 5.14262H4.37113ZM18.2861 11.9283C18.2861 13.1597 17.797 14.3406 16.9263 15.2113C16.0556 16.082 14.8746 16.5712 13.6433 16.5712C12.4119 16.5712 11.231 16.082 10.3603 15.2113C9.48958 14.3406 9.00042 13.1597 9.00042 11.9283C9.00042 10.697 9.48958 9.51604 10.3603 8.64533C11.231 7.77463 12.4119 7.28547 13.6433 7.28547C14.8746 7.28547 16.0556 7.77463 16.9263 8.64533C17.797 9.51604 18.2861 10.697 18.2861 11.9283ZM16.3961 9.88976C16.363 9.8565 16.3235 9.83011 16.2802 9.81211C16.2368 9.7941 16.1903 9.78483 16.1433 9.78483C16.0963 9.78483 16.0498 9.7941 16.0064 9.81211C15.963 9.83011 15.9236 9.8565 15.8904 9.88976L12.5718 13.209L11.3961 12.0326C11.3629 11.9994 11.3235 11.9731 11.2801 11.9551C11.2367 11.9371 11.1902 11.9279 11.1433 11.9279C11.0963 11.9279 11.0498 11.9371 11.0064 11.9551C10.963 11.9731 10.9236 11.9994 10.8904 12.0326C10.8572 12.0658 10.8309 12.1052 10.8129 12.1486C10.7949 12.192 10.7857 12.2385 10.7857 12.2855C10.7857 12.3324 10.7949 12.3789 10.8129 12.4223C10.8309 12.4657 10.8572 12.5051 10.8904 12.5383L12.319 13.9669C12.3522 14.0002 12.3916 14.0265 12.435 14.0446C12.4784 14.0626 12.5249 14.0718 12.5718 14.0718C12.6188 14.0718 12.6653 14.0626 12.7087 14.0446C12.7521 14.0265 12.7915 14.0002 12.8247 13.9669L16.3961 10.3955C16.4294 10.3623 16.4558 10.3229 16.4738 10.2795C16.4918 10.2361 16.5011 10.1896 16.5011 10.1426C16.5011 10.0956 16.4918 10.0491 16.4738 10.0057C16.4558 9.96235 16.4294 9.92293 16.3961 9.88976Z" fill="#2F8132"/>
</svg>
