<svg xmlns="http://www.w3.org/2000/svg" width="20" height="20" viewBox="0 0 20 20" fill="none">
  <g clip-path="url(#clip0_1941_2307)">
    <path d="M18 9.99992L10.324 17.6759C9.25848 18.7141 7.82691 19.2908 6.33927 19.2811C4.85164 19.2714 3.42768 18.6761 2.37574 17.6242C1.32381 16.5723 0.72855 15.1483 0.71887 13.6607C0.70919 12.173 1.28586 10.7415 2.32402 9.67592L10.2294 1.77058C10.9366 1.06334 11.8958 0.666016 12.896 0.666016C13.8962 0.666016 14.8554 1.06334 15.5627 1.77058C16.2699 2.47783 16.6673 3.43706 16.6673 4.43725C16.6673 5.43745 16.2699 6.39667 15.5627 7.10392L7.88536 14.7813C7.53174 15.1349 7.05212 15.3335 6.55202 15.3335C6.05193 15.3335 5.57231 15.1349 5.21869 14.7813C4.86507 14.4276 4.66641 13.948 4.66641 13.4479C4.66641 12.9478 4.86507 12.4682 5.21869 12.1146L12.6667 4.66659" stroke="#B1B1B1" stroke-width="2"/>
  </g>
  <defs>
    <clipPath id="clip0_1941_2307">
      <rect width="20" height="20" fill="white"/>
    </clipPath>
  </defs>
</svg>