<svg width="22" height="17" viewBox="0 0 22 17" fill="none" xmlns="http://www.w3.org/2000/svg">
<path d="M4.3998 4.09922C4.3998 3.38313 4.68427 2.69638 5.19062 2.19003C5.69696 1.68368 6.38372 1.39922 7.0998 1.39922C7.81589 1.39922 8.50264 1.68368 9.00899 2.19003C9.51534 2.69638 9.7998 3.38313 9.7998 4.09922C9.7998 4.8153 9.51534 5.50206 9.00899 6.00841C8.50264 6.51476 7.81589 6.79922 7.0998 6.79922C6.38372 6.79922 5.69696 6.51476 5.19062 6.00841C4.68427 5.50206 4.3998 4.8153 4.3998 4.09922ZM7.0998 0.199219C6.06546 0.199219 5.07348 0.61011 4.34209 1.3415C3.6107 2.07289 3.1998 3.06487 3.1998 4.09922C3.1998 5.13356 3.6107 6.12554 4.34209 6.85694C5.07348 7.58833 6.06546 7.99922 7.0998 7.99922C8.13415 7.99922 9.12613 7.58833 9.85752 6.85694C10.5889 6.12554 10.9998 5.13356 10.9998 4.09922C10.9998 3.06487 10.5889 2.07289 9.85752 1.3415C9.12613 0.61011 8.13415 0.199219 7.0998 0.199219ZM13.9242 14.1732C14.5698 14.4372 15.3822 14.5992 16.3998 14.5992C18.657 14.5992 19.905 13.7976 20.5626 12.8784C20.9057 12.3961 21.1208 11.8345 21.1878 11.2464C21.1938 11.1918 21.1978 11.1369 21.1998 11.082V10.9992C21.1998 10.7628 21.1532 10.5288 21.0628 10.3104C20.9723 10.092 20.8397 9.89357 20.6726 9.72643C20.5054 9.55928 20.307 9.42669 20.0886 9.33624C19.8702 9.24578 19.6362 9.19922 19.3998 9.19922H13.8438C14.1318 9.54722 14.3478 9.95402 14.4738 10.3992H19.3998C19.5589 10.3992 19.7115 10.4624 19.8241 10.575C19.9366 10.6875 19.9998 10.8401 19.9998 10.9992V11.064L19.9938 11.124C19.9478 11.5045 19.8076 11.8675 19.5858 12.18C19.1934 12.7308 18.3414 13.3992 16.3998 13.3992C15.5214 13.3992 14.8662 13.2624 14.3754 13.062C14.277 13.398 14.1342 13.7772 13.9242 14.1732ZM0.799805 11.5992C0.799805 10.9627 1.05266 10.3523 1.50275 9.90216C1.95284 9.45208 2.56328 9.19922 3.1998 9.19922H10.9998C11.6363 9.19922 12.2468 9.45208 12.6969 9.90216C13.1469 10.3523 13.3998 10.9627 13.3998 11.5992V11.7C13.3998 11.712 13.3998 11.7276 13.3974 11.748C13.3828 11.9856 13.3487 12.2216 13.2954 12.4536C13.1934 12.8952 12.9906 13.4856 12.5814 14.0784C11.7402 15.2952 10.1154 16.3992 7.0998 16.3992C4.0842 16.3992 2.4594 15.2952 1.6182 14.0784C1.17519 13.4331 0.898964 12.6881 0.814205 11.91C0.807034 11.8402 0.802231 11.7702 0.799805 11.7V11.5992ZM1.9998 11.6712V11.6928L2.0082 11.7924C2.07323 12.3677 2.27843 12.9182 2.6058 13.3956C3.1902 14.2404 4.4154 15.1992 7.0998 15.1992C9.7842 15.1992 11.0094 14.2404 11.5938 13.3956C11.9213 12.9182 12.1265 12.3677 12.1914 11.7924C12.1953 11.7593 12.1977 11.7261 12.1986 11.6928L12.1998 11.6724V11.5992C12.1998 11.281 12.0734 10.9757 11.8483 10.7507C11.6233 10.5256 11.3181 10.3992 10.9998 10.3992H3.1998C2.88154 10.3992 2.57632 10.5256 2.35128 10.7507C2.12623 10.9757 1.9998 11.281 1.9998 11.5992V11.6712ZM14.5998 4.99922C14.5998 4.52183 14.7894 4.06399 15.127 3.72643C15.4646 3.38886 15.9224 3.19922 16.3998 3.19922C16.8772 3.19922 17.335 3.38886 17.6726 3.72643C18.0102 4.06399 18.1998 4.52183 18.1998 4.99922C18.1998 5.47661 18.0102 5.93445 17.6726 6.27201C17.335 6.60958 16.8772 6.79922 16.3998 6.79922C15.9224 6.79922 15.4646 6.60958 15.127 6.27201C14.7894 5.93445 14.5998 5.47661 14.5998 4.99922ZM16.3998 1.99922C15.6042 1.99922 14.8411 2.31529 14.2785 2.8779C13.7159 3.44051 13.3998 4.20357 13.3998 4.99922C13.3998 5.79487 13.7159 6.55793 14.2785 7.12054C14.8411 7.68315 15.6042 7.99922 16.3998 7.99922C17.1955 7.99922 17.9585 7.68315 18.5211 7.12054C19.0837 6.55793 19.3998 5.79487 19.3998 4.99922C19.3998 4.20357 19.0837 3.44051 18.5211 2.8779C17.9585 2.31529 17.1955 1.99922 16.3998 1.99922Z" fill="#222222"/>
<path d="M4.3998 4.09922C4.3998 3.38313 4.68427 2.69638 5.19062 2.19003C5.69696 1.68368 6.38372 1.39922 7.0998 1.39922C7.81589 1.39922 8.50264 1.68368 9.00899 2.19003C9.51534 2.69638 9.7998 3.38313 9.7998 4.09922C9.7998 4.8153 9.51534 5.50206 9.00899 6.00841C8.50264 6.51476 7.81589 6.79922 7.0998 6.79922C6.38372 6.79922 5.69696 6.51476 5.19062 6.00841C4.68427 5.50206 4.3998 4.8153 4.3998 4.09922ZM7.0998 0.199219C6.06546 0.199219 5.07348 0.61011 4.34209 1.3415C3.6107 2.07289 3.1998 3.06487 3.1998 4.09922C3.1998 5.13356 3.6107 6.12554 4.34209 6.85694C5.07348 7.58833 6.06546 7.99922 7.0998 7.99922C8.13415 7.99922 9.12613 7.58833 9.85752 6.85694C10.5889 6.12554 10.9998 5.13356 10.9998 4.09922C10.9998 3.06487 10.5889 2.07289 9.85752 1.3415C9.12613 0.61011 8.13415 0.199219 7.0998 0.199219ZM13.9242 14.1732C14.5698 14.4372 15.3822 14.5992 16.3998 14.5992C18.657 14.5992 19.905 13.7976 20.5626 12.8784C20.9057 12.3961 21.1208 11.8345 21.1878 11.2464C21.1938 11.1918 21.1978 11.1369 21.1998 11.082V10.9992C21.1998 10.7628 21.1532 10.5288 21.0628 10.3104C20.9723 10.092 20.8397 9.89357 20.6726 9.72643C20.5054 9.55928 20.307 9.42669 20.0886 9.33624C19.8702 9.24578 19.6362 9.19922 19.3998 9.19922H13.8438C14.1318 9.54722 14.3478 9.95402 14.4738 10.3992H19.3998C19.5589 10.3992 19.7115 10.4624 19.8241 10.575C19.9366 10.6875 19.9998 10.8401 19.9998 10.9992V11.064L19.9938 11.124C19.9478 11.5045 19.8076 11.8675 19.5858 12.18C19.1934 12.7308 18.3414 13.3992 16.3998 13.3992C15.5214 13.3992 14.8662 13.2624 14.3754 13.062C14.277 13.398 14.1342 13.7772 13.9242 14.1732ZM0.799805 11.5992C0.799805 10.9627 1.05266 10.3523 1.50275 9.90216C1.95284 9.45208 2.56328 9.19922 3.1998 9.19922H10.9998C11.6363 9.19922 12.2468 9.45208 12.6969 9.90216C13.1469 10.3523 13.3998 10.9627 13.3998 11.5992V11.7C13.3998 11.712 13.3998 11.7276 13.3974 11.748C13.3828 11.9856 13.3487 12.2216 13.2954 12.4536C13.1934 12.8952 12.9906 13.4856 12.5814 14.0784C11.7402 15.2952 10.1154 16.3992 7.0998 16.3992C4.0842 16.3992 2.4594 15.2952 1.6182 14.0784C1.17519 13.4331 0.898964 12.6881 0.814205 11.91C0.807034 11.8402 0.802231 11.7702 0.799805 11.7V11.5992ZM1.9998 11.6712V11.6928L2.0082 11.7924C2.07323 12.3677 2.27843 12.9182 2.6058 13.3956C3.1902 14.2404 4.4154 15.1992 7.0998 15.1992C9.7842 15.1992 11.0094 14.2404 11.5938 13.3956C11.9213 12.9182 12.1265 12.3677 12.1914 11.7924C12.1953 11.7593 12.1977 11.7261 12.1986 11.6928L12.1998 11.6724V11.5992C12.1998 11.281 12.0734 10.9757 11.8483 10.7507C11.6233 10.5256 11.3181 10.3992 10.9998 10.3992H3.1998C2.88154 10.3992 2.57632 10.5256 2.35128 10.7507C2.12623 10.9757 1.9998 11.281 1.9998 11.5992V11.6712ZM14.5998 4.99922C14.5998 4.52183 14.7894 4.06399 15.127 3.72643C15.4646 3.38886 15.9224 3.19922 16.3998 3.19922C16.8772 3.19922 17.335 3.38886 17.6726 3.72643C18.0102 4.06399 18.1998 4.52183 18.1998 4.99922C18.1998 5.47661 18.0102 5.93445 17.6726 6.27201C17.335 6.60958 16.8772 6.79922 16.3998 6.79922C15.9224 6.79922 15.4646 6.60958 15.127 6.27201C14.7894 5.93445 14.5998 5.47661 14.5998 4.99922ZM16.3998 1.99922C15.6042 1.99922 14.8411 2.31529 14.2785 2.8779C13.7159 3.44051 13.3998 4.20357 13.3998 4.99922C13.3998 5.79487 13.7159 6.55793 14.2785 7.12054C14.8411 7.68315 15.6042 7.99922 16.3998 7.99922C17.1955 7.99922 17.9585 7.68315 18.5211 7.12054C19.0837 6.55793 19.3998 5.79487 19.3998 4.99922C19.3998 4.20357 19.0837 3.44051 18.5211 2.8779C17.9585 2.31529 17.1955 1.99922 16.3998 1.99922Z" fill="black" fill-opacity="0.2"/>
<path d="M4.3998 4.09922C4.3998 3.38313 4.68427 2.69638 5.19062 2.19003C5.69696 1.68368 6.38372 1.39922 7.0998 1.39922C7.81589 1.39922 8.50264 1.68368 9.00899 2.19003C9.51534 2.69638 9.7998 3.38313 9.7998 4.09922C9.7998 4.8153 9.51534 5.50206 9.00899 6.00841C8.50264 6.51476 7.81589 6.79922 7.0998 6.79922C6.38372 6.79922 5.69696 6.51476 5.19062 6.00841C4.68427 5.50206 4.3998 4.8153 4.3998 4.09922ZM7.0998 0.199219C6.06546 0.199219 5.07348 0.61011 4.34209 1.3415C3.6107 2.07289 3.1998 3.06487 3.1998 4.09922C3.1998 5.13356 3.6107 6.12554 4.34209 6.85694C5.07348 7.58833 6.06546 7.99922 7.0998 7.99922C8.13415 7.99922 9.12613 7.58833 9.85752 6.85694C10.5889 6.12554 10.9998 5.13356 10.9998 4.09922C10.9998 3.06487 10.5889 2.07289 9.85752 1.3415C9.12613 0.61011 8.13415 0.199219 7.0998 0.199219ZM13.9242 14.1732C14.5698 14.4372 15.3822 14.5992 16.3998 14.5992C18.657 14.5992 19.905 13.7976 20.5626 12.8784C20.9057 12.3961 21.1208 11.8345 21.1878 11.2464C21.1938 11.1918 21.1978 11.1369 21.1998 11.082V10.9992C21.1998 10.7628 21.1532 10.5288 21.0628 10.3104C20.9723 10.092 20.8397 9.89357 20.6726 9.72643C20.5054 9.55928 20.307 9.42669 20.0886 9.33624C19.8702 9.24578 19.6362 9.19922 19.3998 9.19922H13.8438C14.1318 9.54722 14.3478 9.95402 14.4738 10.3992H19.3998C19.5589 10.3992 19.7115 10.4624 19.8241 10.575C19.9366 10.6875 19.9998 10.8401 19.9998 10.9992V11.064L19.9938 11.124C19.9478 11.5045 19.8076 11.8675 19.5858 12.18C19.1934 12.7308 18.3414 13.3992 16.3998 13.3992C15.5214 13.3992 14.8662 13.2624 14.3754 13.062C14.277 13.398 14.1342 13.7772 13.9242 14.1732ZM0.799805 11.5992C0.799805 10.9627 1.05266 10.3523 1.50275 9.90216C1.95284 9.45208 2.56328 9.19922 3.1998 9.19922H10.9998C11.6363 9.19922 12.2468 9.45208 12.6969 9.90216C13.1469 10.3523 13.3998 10.9627 13.3998 11.5992V11.7C13.3998 11.712 13.3998 11.7276 13.3974 11.748C13.3828 11.9856 13.3487 12.2216 13.2954 12.4536C13.1934 12.8952 12.9906 13.4856 12.5814 14.0784C11.7402 15.2952 10.1154 16.3992 7.0998 16.3992C4.0842 16.3992 2.4594 15.2952 1.6182 14.0784C1.17519 13.4331 0.898964 12.6881 0.814205 11.91C0.807034 11.8402 0.802231 11.7702 0.799805 11.7V11.5992ZM1.9998 11.6712V11.6928L2.0082 11.7924C2.07323 12.3677 2.27843 12.9182 2.6058 13.3956C3.1902 14.2404 4.4154 15.1992 7.0998 15.1992C9.7842 15.1992 11.0094 14.2404 11.5938 13.3956C11.9213 12.9182 12.1265 12.3677 12.1914 11.7924C12.1953 11.7593 12.1977 11.7261 12.1986 11.6928L12.1998 11.6724V11.5992C12.1998 11.281 12.0734 10.9757 11.8483 10.7507C11.6233 10.5256 11.3181 10.3992 10.9998 10.3992H3.1998C2.88154 10.3992 2.57632 10.5256 2.35128 10.7507C2.12623 10.9757 1.9998 11.281 1.9998 11.5992V11.6712ZM14.5998 4.99922C14.5998 4.52183 14.7894 4.06399 15.127 3.72643C15.4646 3.38886 15.9224 3.19922 16.3998 3.19922C16.8772 3.19922 17.335 3.38886 17.6726 3.72643C18.0102 4.06399 18.1998 4.52183 18.1998 4.99922C18.1998 5.47661 18.0102 5.93445 17.6726 6.27201C17.335 6.60958 16.8772 6.79922 16.3998 6.79922C15.9224 6.79922 15.4646 6.60958 15.127 6.27201C14.7894 5.93445 14.5998 5.47661 14.5998 4.99922ZM16.3998 1.99922C15.6042 1.99922 14.8411 2.31529 14.2785 2.8779C13.7159 3.44051 13.3998 4.20357 13.3998 4.99922C13.3998 5.79487 13.7159 6.55793 14.2785 7.12054C14.8411 7.68315 15.6042 7.99922 16.3998 7.99922C17.1955 7.99922 17.9585 7.68315 18.5211 7.12054C19.0837 6.55793 19.3998 5.79487 19.3998 4.99922C19.3998 4.20357 19.0837 3.44051 18.5211 2.8779C17.9585 2.31529 17.1955 1.99922 16.3998 1.99922Z" fill="black" fill-opacity="0.2"/>
</svg>
