<svg xmlns="http://www.w3.org/2000/svg" width="33" height="33" viewBox="0 0 33 33" fill="none">
  <g clip-path="url(#clip0_1682_15226)">
    <path d="M7.71038 18.8955C7.06938 17.7853 6.69446 16.6246 6.58562 15.4134C6.4762 14.2025 6.60163 13.0304 6.96191 11.8971L7.91398 12.1962C7.59042 13.1997 7.4772 14.237 7.57433 15.3079C7.67229 16.3775 8.0066 17.4066 8.57727 18.395L7.71038 18.8955ZM22.0344 10.6255C21.4638 9.63708 20.7375 8.83049 19.8556 8.20572C18.9743 7.58061 18.0183 7.15728 16.9874 6.93571L17.2139 5.97813C18.3755 6.23278 19.4533 6.71019 20.4472 7.41037C21.4411 8.11055 22.2586 9.01576 22.8996 10.126L22.0336 10.626L22.0344 10.6255ZM13.7142 25.7545L13.2142 24.8885L14.6129 24.081L10.6514 17.2195C9.99804 16.0879 9.7815 14.8861 10.0017 13.6143C10.2231 12.3418 10.8222 11.2827 11.7989 10.437L11.5259 9.96418C11.3882 9.72573 11.355 9.47281 11.4261 9.2054C11.4982 8.93824 11.6535 8.73582 11.8919 8.59815C12.1304 8.46049 12.3833 8.42724 12.6507 8.4984C12.9179 8.57047 13.1203 8.72573 13.2579 8.96418L13.5309 9.43703C14.7522 9.01367 15.9686 9.02459 17.1802 9.46977C18.3921 9.91554 19.3246 10.7039 19.9776 11.835L23.9391 18.6965L25.3386 17.8885L25.8386 18.7545L13.7142 25.7545ZM21.0844 24.52C20.697 24.7437 20.2882 24.7977 19.8581 24.6819C19.4282 24.5667 19.1015 24.3154 18.8778 23.928L21.6751 22.313C21.8987 22.7004 21.9531 23.1093 21.8383 23.5398C21.7231 23.9696 21.4718 24.2964 21.0844 24.52ZM15.4789 23.581L23.0739 19.196L19.1124 12.3345C18.5048 11.282 17.6176 10.5994 16.4511 10.2868C15.2854 9.97448 14.176 10.1223 13.1229 10.7303C12.0698 11.3383 11.3871 12.2251 11.0748 13.3908C10.7628 14.5571 10.9106 15.6665 11.5183 16.719L15.4798 23.5805L15.4789 23.581Z" fill="#2F8132"/>
  </g>
  <defs>
    <clipPath id="clip0_1682_15226">
      <rect width="24" height="24" fill="white" transform="translate(0 12) rotate(-30)"/>
    </clipPath>
  </defs>
</svg>