<svg xmlns="http://www.w3.org/2000/svg" width="24" height="24" viewBox="0 0 24 24" fill="none">
  <path d="M19.5055 17.9428V10.3618C19.827 10.3501 20.1361 10.2347 20.3866 10.0328C20.6371 9.83098 20.8156 9.5535 20.8955 9.24184C20.9848 8.92389 20.9643 8.58512 20.8372 8.28027C20.7102 7.97543 20.4841 7.72231 20.1955 7.56184L12.7455 3.26184C12.518 3.13403 12.2614 3.06689 12.0005 3.06689C11.7395 3.06689 11.483 3.13403 11.2555 3.26184L3.80547 7.56184C3.51683 7.72231 3.29072 7.97543 3.1637 8.28027C3.03669 8.58512 3.01617 8.92389 3.10547 9.24184C3.18741 9.56362 3.3747 9.84871 3.63748 10.0517C3.90027 10.2547 4.22343 10.3639 4.55547 10.3618H4.68547V17.9318H4.56547C4.16764 17.9318 3.78611 18.0899 3.50481 18.3712C3.2235 18.6525 3.06547 19.034 3.06547 19.4318C3.06547 19.8297 3.2235 20.2112 3.50481 20.4925C3.78611 20.7738 4.16764 20.9318 4.56547 20.9318H19.4355C19.8113 20.9096 20.165 20.747 20.4264 20.4761C20.6878 20.2052 20.8378 19.8459 20.8466 19.4696C20.8554 19.0932 20.7224 18.7273 20.474 18.4445C20.2255 18.1617 19.8798 17.9826 19.5055 17.9428ZM4.55547 9.36184C4.44525 9.36044 4.33852 9.32301 4.25157 9.25527C4.16461 9.18753 4.10221 9.0932 4.07388 8.98668C4.04555 8.88016 4.05285 8.76729 4.09466 8.66531C4.13648 8.56332 4.21051 8.47782 4.30547 8.42184L11.7555 4.13284C11.8294 4.08821 11.9141 4.06461 12.0005 4.06461C12.0868 4.06461 12.1715 4.08821 12.2455 4.13284L19.7005 8.42184C19.7994 8.47517 19.8775 8.5603 19.9222 8.66348C19.9668 8.76666 19.9754 8.88187 19.9465 8.99052C19.9176 9.09916 19.8529 9.1949 19.7629 9.26227C19.6729 9.32965 19.5629 9.36472 19.4505 9.36184H4.55547ZM18.5055 10.3618V17.9318H14.9005V10.3618H18.5055ZM13.8955 10.3618V17.9318H10.2855V10.3618H13.8955ZM9.28547 10.3618V17.9318H5.68547V10.3618H9.28547ZM19.4355 19.9318H4.56547C4.43286 19.9318 4.30568 19.8792 4.21192 19.7854C4.11815 19.6916 4.06547 19.5644 4.06547 19.4318C4.06547 19.2992 4.11815 19.1721 4.21192 19.0783C4.30568 18.9845 4.43286 18.9318 4.56547 18.9318H19.4355C19.5681 18.9318 19.6953 18.9845 19.789 19.0783C19.8828 19.1721 19.9355 19.2992 19.9355 19.4318C19.9355 19.5644 19.8828 19.6916 19.789 19.7854C19.6953 19.8792 19.5681 19.9318 19.4355 19.9318Z" fill="#2F8132"/>
</svg>