<svg width="41" height="40" viewBox="0 0 41 40" fill="none" xmlns="http://www.w3.org/2000/svg">
<circle cx="20.4883" cy="20" r="20" fill="#E3F9E5"/>
<path d="M15.5649 25.3346C15.2583 25.3346 15.0023 25.232 14.7969 25.0266C14.5912 24.8209 14.4883 24.5646 14.4883 24.258V17.7446C14.4883 17.438 14.5912 17.182 14.7969 16.9766C15.0023 16.7709 15.2583 16.668 15.5649 16.668H18.4883V15.7446C18.4883 15.438 18.5912 15.182 18.7969 14.9766C19.0023 14.7709 19.2581 14.668 19.5643 14.668H21.4109C21.7176 14.668 21.9738 14.7709 22.1796 14.9766C22.3849 15.182 22.4876 15.438 22.4876 15.7446V16.668H25.4109C25.7176 16.668 25.9736 16.7709 26.1789 16.9766C26.3847 17.182 26.4876 17.438 26.4876 17.7446V24.258C26.4876 24.5646 26.3849 24.8206 26.1796 25.026C25.9738 25.2317 25.7176 25.3346 25.4109 25.3346H15.5649ZM19.1549 16.668H21.8216V15.7446C21.8216 15.6424 21.7789 15.5484 21.6936 15.4626C21.6078 15.3773 21.5138 15.3346 21.4116 15.3346H19.5649C19.4627 15.3346 19.3687 15.3773 19.2829 15.4626C19.1976 15.5484 19.1549 15.6424 19.1549 15.7446V16.668ZM25.8216 21.668H21.8216V22.1293C21.8216 22.284 21.7705 22.4124 21.6683 22.5146C21.5661 22.6169 21.4376 22.668 21.2829 22.668H19.6936C19.5389 22.668 19.4105 22.6169 19.3083 22.5146C19.2061 22.4124 19.1549 22.284 19.1549 22.1293V21.668H15.1549V24.258C15.1549 24.3602 15.1976 24.4542 15.2829 24.54C15.3687 24.6253 15.4627 24.668 15.5649 24.668H25.4116C25.5138 24.668 25.6078 24.6253 25.6936 24.54C25.7789 24.4542 25.8216 24.3602 25.8216 24.258V21.668ZM19.8216 22.0013H21.1549V20.668H19.8216V22.0013ZM15.1549 21.0013H19.1549V20.54C19.1549 20.3853 19.2061 20.2569 19.3083 20.1546C19.4105 20.0524 19.5389 20.0013 19.6936 20.0013H21.2829C21.4376 20.0013 21.5661 20.0524 21.6683 20.1546C21.7705 20.2569 21.8216 20.3853 21.8216 20.54V21.0013H25.8216V17.7446C25.8216 17.6424 25.7789 17.5484 25.6936 17.4626C25.6078 17.3773 25.5138 17.3346 25.4116 17.3346H15.5649C15.4627 17.3346 15.3687 17.3773 15.2829 17.4626C15.1976 17.5484 15.1549 17.6424 15.1549 17.7446V21.0013Z" fill="#2F8132"/>
</svg>
