<svg width="40" height="40" viewBox="0 0 40 40" fill="none" xmlns="http://www.w3.org/2000/svg">
<circle cx="20" cy="20" r="20" fill="#E3F9E5"/>
<path d="M19.9998 25C24.6023 25 28.3332 20 28.3332 20C28.3332 20 24.6023 15 19.9998 15C15.3973 15 11.6665 20 11.6665 20C11.6665 20 15.3973 25 19.9998 25Z" stroke="#2F8132" stroke-linejoin="round"/>
<path d="M19.9998 22.0832C20.5524 22.0832 21.0823 21.8637 21.473 21.473C21.8637 21.0823 22.0832 20.5524 22.0832 19.9998C22.0832 19.4473 21.8637 18.9174 21.473 18.5267C21.0823 18.136 20.5524 17.9165 19.9998 17.9165C19.4473 17.9165 18.9174 18.136 18.5267 18.5267C18.136 18.9174 17.9165 19.4473 17.9165 19.9998C17.9165 20.5524 18.136 21.0823 18.5267 21.473C18.9174 21.8637 19.4473 22.0832 19.9998 22.0832Z" stroke="#2F8132" stroke-linejoin="round"/>
</svg>
