<svg xmlns="http://www.w3.org/2000/svg" width="24" height="24" viewBox="0 0 24 24" fill="none">
  <path d="M21 12.9999H19C18.7167 12.9999 18.479 12.9039 18.287 12.7119C18.095 12.5199 17.9993 12.2826 18 11.9999C18 11.7166 18.096 11.4789 18.288 11.2869C18.48 11.0949 18.7173 10.9993 19 10.9999H21C21.2833 10.9999 21.521 11.0959 21.713 11.2879C21.905 11.4799 22.0007 11.7173 22 11.9999C22 12.2833 21.904 12.5209 21.712 12.7129C21.52 12.9049 21.2827 13.0006 21 12.9999ZM16.6 16.7999C16.7667 16.5666 16.9833 16.4333 17.25 16.3999C17.5167 16.3666 17.7667 16.4333 18 16.5999L19.6 17.7999C19.8333 17.9666 19.9667 18.1833 20 18.4499C20.0333 18.7166 19.9667 18.9666 19.8 19.1999C19.6333 19.4333 19.4167 19.5666 19.15 19.5999C18.8833 19.6333 18.6333 19.5666 18.4 19.3999L16.8 18.1999C16.5667 18.0333 16.4333 17.8166 16.4 17.5499C16.3667 17.2833 16.4333 17.0333 16.6 16.7999ZM19.6 6.19993L18 7.39994C17.7667 7.5666 17.5167 7.63327 17.25 7.59993C16.9833 7.5666 16.7667 7.43327 16.6 7.19993C16.4333 6.9666 16.3667 6.7166 16.4 6.44993C16.4333 6.18327 16.5667 5.9666 16.8 5.79993L18.4 4.59993C18.6333 4.43327 18.8833 4.3666 19.15 4.39993C19.4167 4.43327 19.6333 4.5666 19.8 4.79994C19.9667 5.03327 20.0333 5.28327 20 5.54993C19.9667 5.8166 19.8333 6.03327 19.6 6.19993ZM5 14.9999H4C3.45 14.9999 2.979 14.8039 2.587 14.4119C2.195 14.0199 1.99934 13.5493 2 12.9999V10.9999C2 10.4499 2.196 9.97893 2.588 9.58693C2.98 9.19493 3.45067 8.99927 4 8.99993H8L11.475 6.89994C11.8083 6.69993 12.1457 6.69993 12.487 6.89994C12.8283 7.09994 12.9993 7.3916 13 7.77494V16.2249C13 16.6083 12.829 16.8999 12.487 17.0999C12.145 17.2999 11.8077 17.2999 11.475 17.0999L8 14.9999H7V17.9999C7 18.2833 6.904 18.5209 6.712 18.7129C6.52 18.9049 6.28267 19.0006 6 18.9999C5.71667 18.9999 5.479 18.9039 5.287 18.7119C5.095 18.5199 4.99934 18.2826 5 17.9999V14.9999ZM11 14.4499V9.54993L8.55 10.9999H4V12.9999H8.55L11 14.4499ZM14 15.3499V8.64993C14.45 9.04993 14.8127 9.5376 15.088 10.1129C15.3633 10.6883 15.5007 11.3173 15.5 11.9999C15.5 12.6833 15.3623 13.3126 15.087 13.8879C14.8117 14.4633 14.4493 14.9506 14 15.3499Z" fill="#222222"/>
  <path d="M21 12.9999H19C18.7167 12.9999 18.479 12.9039 18.287 12.7119C18.095 12.5199 17.9993 12.2826 18 11.9999C18 11.7166 18.096 11.4789 18.288 11.2869C18.48 11.0949 18.7173 10.9993 19 10.9999H21C21.2833 10.9999 21.521 11.0959 21.713 11.2879C21.905 11.4799 22.0007 11.7173 22 11.9999C22 12.2833 21.904 12.5209 21.712 12.7129C21.52 12.9049 21.2827 13.0006 21 12.9999ZM16.6 16.7999C16.7667 16.5666 16.9833 16.4333 17.25 16.3999C17.5167 16.3666 17.7667 16.4333 18 16.5999L19.6 17.7999C19.8333 17.9666 19.9667 18.1833 20 18.4499C20.0333 18.7166 19.9667 18.9666 19.8 19.1999C19.6333 19.4333 19.4167 19.5666 19.15 19.5999C18.8833 19.6333 18.6333 19.5666 18.4 19.3999L16.8 18.1999C16.5667 18.0333 16.4333 17.8166 16.4 17.5499C16.3667 17.2833 16.4333 17.0333 16.6 16.7999ZM19.6 6.19993L18 7.39994C17.7667 7.5666 17.5167 7.63327 17.25 7.59993C16.9833 7.5666 16.7667 7.43327 16.6 7.19993C16.4333 6.9666 16.3667 6.7166 16.4 6.44993C16.4333 6.18327 16.5667 5.9666 16.8 5.79993L18.4 4.59993C18.6333 4.43327 18.8833 4.3666 19.15 4.39993C19.4167 4.43327 19.6333 4.5666 19.8 4.79994C19.9667 5.03327 20.0333 5.28327 20 5.54993C19.9667 5.8166 19.8333 6.03327 19.6 6.19993ZM5 14.9999H4C3.45 14.9999 2.979 14.8039 2.587 14.4119C2.195 14.0199 1.99934 13.5493 2 12.9999V10.9999C2 10.4499 2.196 9.97893 2.588 9.58693C2.98 9.19493 3.45067 8.99927 4 8.99993H8L11.475 6.89994C11.8083 6.69993 12.1457 6.69993 12.487 6.89994C12.8283 7.09994 12.9993 7.3916 13 7.77494V16.2249C13 16.6083 12.829 16.8999 12.487 17.0999C12.145 17.2999 11.8077 17.2999 11.475 17.0999L8 14.9999H7V17.9999C7 18.2833 6.904 18.5209 6.712 18.7129C6.52 18.9049 6.28267 19.0006 6 18.9999C5.71667 18.9999 5.479 18.9039 5.287 18.7119C5.095 18.5199 4.99934 18.2826 5 17.9999V14.9999ZM11 14.4499V9.54993L8.55 10.9999H4V12.9999H8.55L11 14.4499ZM14 15.3499V8.64993C14.45 9.04993 14.8127 9.5376 15.088 10.1129C15.3633 10.6883 15.5007 11.3173 15.5 11.9999C15.5 12.6833 15.3623 13.3126 15.087 13.8879C14.8117 14.4633 14.4493 14.9506 14 15.3499Z" fill="black" fill-opacity="0.2"/>
  <path d="M21 12.9999H19C18.7167 12.9999 18.479 12.9039 18.287 12.7119C18.095 12.5199 17.9993 12.2826 18 11.9999C18 11.7166 18.096 11.4789 18.288 11.2869C18.48 11.0949 18.7173 10.9993 19 10.9999H21C21.2833 10.9999 21.521 11.0959 21.713 11.2879C21.905 11.4799 22.0007 11.7173 22 11.9999C22 12.2833 21.904 12.5209 21.712 12.7129C21.52 12.9049 21.2827 13.0006 21 12.9999ZM16.6 16.7999C16.7667 16.5666 16.9833 16.4333 17.25 16.3999C17.5167 16.3666 17.7667 16.4333 18 16.5999L19.6 17.7999C19.8333 17.9666 19.9667 18.1833 20 18.4499C20.0333 18.7166 19.9667 18.9666 19.8 19.1999C19.6333 19.4333 19.4167 19.5666 19.15 19.5999C18.8833 19.6333 18.6333 19.5666 18.4 19.3999L16.8 18.1999C16.5667 18.0333 16.4333 17.8166 16.4 17.5499C16.3667 17.2833 16.4333 17.0333 16.6 16.7999ZM19.6 6.19993L18 7.39994C17.7667 7.5666 17.5167 7.63327 17.25 7.59993C16.9833 7.5666 16.7667 7.43327 16.6 7.19993C16.4333 6.9666 16.3667 6.7166 16.4 6.44993C16.4333 6.18327 16.5667 5.9666 16.8 5.79993L18.4 4.59993C18.6333 4.43327 18.8833 4.3666 19.15 4.39993C19.4167 4.43327 19.6333 4.5666 19.8 4.79994C19.9667 5.03327 20.0333 5.28327 20 5.54993C19.9667 5.8166 19.8333 6.03327 19.6 6.19993ZM5 14.9999H4C3.45 14.9999 2.979 14.8039 2.587 14.4119C2.195 14.0199 1.99934 13.5493 2 12.9999V10.9999C2 10.4499 2.196 9.97893 2.588 9.58693C2.98 9.19493 3.45067 8.99927 4 8.99993H8L11.475 6.89994C11.8083 6.69993 12.1457 6.69993 12.487 6.89994C12.8283 7.09994 12.9993 7.3916 13 7.77494V16.2249C13 16.6083 12.829 16.8999 12.487 17.0999C12.145 17.2999 11.8077 17.2999 11.475 17.0999L8 14.9999H7V17.9999C7 18.2833 6.904 18.5209 6.712 18.7129C6.52 18.9049 6.28267 19.0006 6 18.9999C5.71667 18.9999 5.479 18.9039 5.287 18.7119C5.095 18.5199 4.99934 18.2826 5 17.9999V14.9999ZM11 14.4499V9.54993L8.55 10.9999H4V12.9999H8.55L11 14.4499ZM14 15.3499V8.64993C14.45 9.04993 14.8127 9.5376 15.088 10.1129C15.3633 10.6883 15.5007 11.3173 15.5 11.9999C15.5 12.6833 15.3623 13.3126 15.087 13.8879C14.8117 14.4633 14.4493 14.9506 14 15.3499Z" fill="black" fill-opacity="0.2"/>
</svg>