<svg width="40" height="40" viewBox="0 0 40 40" fill="none" xmlns="http://www.w3.org/2000/svg">
<circle cx="20" cy="20" r="20" fill="#2F8132"/>
<g clip-path="url(#clip0_532_26176)">
<path d="M26.8097 15.6249H25.2589L21.4539 19.4282C21.585 19.7622 21.597 20.1312 21.488 20.473C21.3791 20.8148 21.1557 21.1087 20.8555 21.3052C20.5554 21.5018 20.1967 21.5889 19.8398 21.5521C19.4829 21.5152 19.1496 21.3566 18.8959 21.1029C18.6422 20.8492 18.4836 20.5159 18.4467 20.159C18.4099 19.8021 18.4971 19.4435 18.6936 19.1433C18.8901 18.8431 19.184 18.6197 19.5258 18.5108C19.8676 18.4018 20.2366 18.4139 20.5706 18.5449L24.3747 14.7407V13.1899C24.3748 12.9824 24.4572 12.7834 24.6039 12.6366L26.0456 11.1949C26.0722 11.168 26.1057 11.1488 26.1424 11.1396C26.1791 11.1303 26.2177 11.1313 26.2539 11.1424C26.3281 11.1641 26.3831 11.2257 26.3981 11.3016L26.7814 13.2191L28.6981 13.6024C28.7731 13.6174 28.8347 13.6724 28.8564 13.7466C28.8673 13.7826 28.8683 13.8209 28.8592 13.8575C28.8501 13.894 28.8313 13.9274 28.8047 13.9541L27.3622 15.3957C27.2897 15.4684 27.2036 15.526 27.1088 15.5653C27.014 15.6046 26.9124 15.6249 26.8097 15.6249Z" fill="white"/>
<path d="M12.1875 20C12.1875 22.072 13.0106 24.0591 14.4757 25.5243C15.9409 26.9894 17.928 27.8125 20 27.8125C21.026 27.8125 22.0419 27.6104 22.9897 27.2178C23.9376 26.8252 24.7988 26.2497 25.5243 25.5243C26.2497 24.7988 26.8252 23.9376 27.2178 22.9897C27.6104 22.0419 27.8125 21.026 27.8125 20C27.8125 19.2517 27.7075 18.5283 27.5117 17.8442C27.4727 17.6871 27.4963 17.521 27.5773 17.3809C27.6583 17.2408 27.7905 17.1376 27.9461 17.093C28.1017 17.0484 28.2685 17.0659 28.4114 17.1418C28.5544 17.2178 28.6623 17.3461 28.7125 17.5C28.9408 18.295 29.0625 19.1333 29.0625 20C29.0625 25.005 25.005 29.0625 20 29.0625C14.995 29.0625 10.9375 25.005 10.9375 20C10.9375 14.995 14.995 10.9375 20 10.9375C20.8458 10.9367 21.6867 11.0542 22.5 11.2867C22.5793 11.3089 22.6534 11.3466 22.7181 11.3976C22.7828 11.4486 22.8368 11.5119 22.8769 11.5838C22.9171 11.6557 22.9426 11.7348 22.9521 11.8167C22.9615 11.8985 22.9547 11.9813 22.932 12.0605C22.9094 12.1397 22.8713 12.2136 22.8199 12.278C22.7686 12.3424 22.705 12.3961 22.6329 12.4358C22.5607 12.4756 22.4815 12.5007 22.3996 12.5097C22.3177 12.5187 22.2349 12.5114 22.1558 12.4883C21.4547 12.2881 20.7291 12.1869 20 12.1875C17.928 12.1875 15.9409 13.0106 14.4757 14.4757C13.0106 15.9409 12.1875 17.928 12.1875 20Z" fill="white"/>
<path d="M15.9374 19.9998C15.9398 20.5518 16.0546 21.0974 16.2748 21.6035C16.4951 22.1096 16.8162 22.5655 17.2185 22.9434C17.6208 23.3212 18.0959 23.6131 18.6148 23.8012C19.1337 23.9893 19.6855 24.0697 20.2365 24.0374C20.7875 24.0052 21.3261 23.8609 21.8195 23.6136C22.3129 23.3662 22.7507 23.0208 23.1062 22.5986C23.4617 22.1764 23.7274 21.6861 23.8871 21.1578C24.0467 20.6294 24.0971 20.0741 24.0349 19.5257C24.0174 19.4146 24.0303 19.3008 24.0722 19.1965C24.1141 19.0921 24.1834 19.0011 24.2728 18.9329C24.3623 18.8647 24.4685 18.822 24.5802 18.8093C24.6919 18.7966 24.805 18.8143 24.9074 18.8607C25.1166 18.954 25.2574 19.1532 25.2758 19.3815C25.4052 20.4775 25.1899 21.5867 24.6599 22.5547C24.1298 23.5227 23.3114 24.3016 22.3183 24.783C21.3251 25.2645 20.2067 25.4245 19.1184 25.241C18.0302 25.0575 17.0261 24.5395 16.2458 23.759C15.4657 22.9793 14.9476 21.9763 14.7632 20.8889C14.5789 19.8015 14.7375 18.6837 15.2171 17.6905C15.6966 16.6973 16.4733 15.878 17.4395 15.3461C18.4057 14.8143 19.5134 14.5963 20.6091 14.7223C20.6919 14.73 20.7724 14.7542 20.8458 14.7933C20.9192 14.8325 20.984 14.886 21.0364 14.9505C21.0889 15.0151 21.1279 15.0895 21.1513 15.1693C21.1746 15.2492 21.1818 15.3329 21.1723 15.4155C21.1629 15.4982 21.1371 15.5781 21.0964 15.6506C21.0556 15.7232 21.0008 15.7868 20.9352 15.8379C20.8695 15.889 20.7943 15.9265 20.714 15.9481C20.6337 15.9698 20.5499 15.9752 20.4674 15.964C19.8983 15.8982 19.3217 15.9535 18.7754 16.1263C18.2292 16.2991 17.7256 16.5854 17.2978 16.9665C16.87 17.3476 16.5277 17.8149 16.2932 18.3377C16.0588 18.8605 15.9375 19.4269 15.9374 19.9998Z" fill="white"/>
</g>
<defs>
<clipPath id="clip0_532_26176">
<rect width="20" height="20" fill="white" transform="translate(10 10)"/>
</clipPath>
</defs>
</svg>
