<svg width="40" height="40" viewBox="0 0 40 40" fill="none" xmlns="http://www.w3.org/2000/svg">
<circle cx="20" cy="20" r="20" fill="#E3F9E5"/>
<path d="M12.5 18.3332C12.5 15.1907 12.5 13.619 13.4767 12.6432C14.4525 11.6665 16.0242 11.6665 19.1667 11.6665H20.8333C23.9758 11.6665 25.5475 11.6665 26.5233 12.6432C27.5 13.619 27.5 15.1907 27.5 18.3332V21.6665C27.5 24.809 27.5 26.3807 26.5233 27.3565C25.5475 28.3332 23.9758 28.3332 20.8333 28.3332H19.1667C16.0242 28.3332 14.4525 28.3332 13.4767 27.3565C12.5 26.3807 12.5 24.809 12.5 21.6665V18.3332Z" stroke="#2F8132"/>
<path d="M16.6665 18.333H23.3332M16.6665 21.6663H20.8332" stroke="#2F8132" stroke-linecap="round"/>
</svg>
