<svg width="40" height="40" viewBox="0 0 40 40" fill="none" xmlns="http://www.w3.org/2000/svg">
<circle cx="20" cy="20" r="20" fill="#2F8132"/>
<path d="M20.0003 25C24.6028 25 28.3337 20 28.3337 20C28.3337 20 24.6028 15 20.0003 15C15.3978 15 11.667 20 11.667 20C11.667 20 15.3978 25 20.0003 25Z" stroke="white" stroke-linejoin="round"/>
<path d="M20.0003 22.0832C20.5529 22.0832 21.0828 21.8637 21.4735 21.473C21.8642 21.0823 22.0837 20.5524 22.0837 19.9998C22.0837 19.4473 21.8642 18.9174 21.4735 18.5267C21.0828 18.136 20.5529 17.9165 20.0003 17.9165C19.4478 17.9165 18.9179 18.136 18.5272 18.5267C18.1365 18.9174 17.917 19.4473 17.917 19.9998C17.917 20.5524 18.1365 21.0823 18.5272 21.473C18.9179 21.8637 19.4478 22.0832 20.0003 22.0832Z" stroke="white" stroke-linejoin="round"/>
</svg>
