<svg width="40" height="40" viewBox="0 0 40 40" fill="none" xmlns="http://www.w3.org/2000/svg">
<circle cx="20" cy="20" r="20" fill="#2F8132"/>
<path d="M20.625 23.75V18.75H18.125V20H19.375V23.75H17.5V25H22.5V23.75H20.625ZM20 15C19.8146 15 19.6333 15.055 19.4792 15.158C19.325 15.261 19.2048 15.4074 19.1339 15.5787C19.0629 15.75 19.0443 15.9385 19.0805 16.1204C19.1167 16.3023 19.206 16.4693 19.3371 16.6004C19.4682 16.7315 19.6352 16.8208 19.8171 16.857C19.999 16.8932 20.1875 16.8746 20.3588 16.8036C20.5301 16.7327 20.6765 16.6125 20.7795 16.4583C20.8825 16.3042 20.9375 16.1229 20.9375 15.9375C20.9375 15.6889 20.8387 15.4504 20.6629 15.2746C20.4871 15.0988 20.2486 15 20 15Z" fill="white"/>
<path d="M20 28.75C18.2694 28.75 16.5777 28.2368 15.1388 27.2754C13.6998 26.3139 12.5783 24.9473 11.9161 23.3485C11.2538 21.7496 11.0805 19.9903 11.4181 18.293C11.7558 16.5956 12.5891 15.0365 13.8128 13.8128C15.0365 12.5891 16.5956 11.7558 18.293 11.4181C19.9903 11.0805 21.7496 11.2538 23.3485 11.9161C24.9473 12.5783 26.3139 13.6998 27.2754 15.1388C28.2368 16.5777 28.75 18.2694 28.75 20C28.75 22.3206 27.8281 24.5462 26.1872 26.1872C24.5462 27.8281 22.3206 28.75 20 28.75ZM20 12.5C18.5166 12.5 17.0666 12.9399 15.8332 13.764C14.5999 14.5881 13.6386 15.7594 13.0709 17.1299C12.5033 18.5003 12.3547 20.0083 12.6441 21.4632C12.9335 22.918 13.6478 24.2544 14.6967 25.3033C15.7456 26.3522 17.082 27.0665 18.5368 27.3559C19.9917 27.6453 21.4997 27.4968 22.8701 26.9291C24.2406 26.3614 25.4119 25.4001 26.236 24.1668C27.0601 22.9334 27.5 21.4834 27.5 20C27.5 18.0109 26.7098 16.1032 25.3033 14.6967C23.8968 13.2902 21.9891 12.5 20 12.5Z" fill="white"/>
</svg>
