<svg width="48" height="48" viewBox="0 0 48 48" fill="none" xmlns="http://www.w3.org/2000/svg">
<rect x="4" y="4" width="40" height="40" rx="20" fill="#E1E1E1"/>
<rect x="4" y="4" width="40" height="40" rx="20" stroke="#F7F7F7" stroke-width="8"/>
<g clip-path="url(#clip0_1087_13754)">
<path d="M17.334 20.6335C17.334 20.0448 17.334 19.7508 17.3807 19.5055C17.4801 18.9787 17.7361 18.4942 18.1151 18.115C18.4941 17.7359 18.9786 17.4798 19.5053 17.3802C19.7513 17.3335 20.046 17.3335 20.634 17.3335C20.8913 17.3335 21.0207 17.3335 21.1447 17.3448C21.6787 17.395 22.1852 17.605 22.598 17.9475C22.694 18.0268 22.7847 18.1175 22.9673 18.3002L23.334 18.6668C23.878 19.2108 24.15 19.4828 24.4753 19.6635C24.6541 19.7632 24.8438 19.8419 25.0407 19.8982C25.3993 20.0002 25.784 20.0002 26.5527 20.0002H26.802C28.5567 20.0002 29.4347 20.0002 30.0047 20.5135C30.0573 20.5602 30.1073 20.6102 30.154 20.6628C30.6673 21.2328 30.6673 22.1108 30.6673 23.8655V25.3335C30.6673 27.8475 30.6673 29.1048 29.886 29.8855C29.1053 30.6668 27.848 30.6668 25.334 30.6668H22.6673C20.1533 30.6668 18.896 30.6668 18.1153 29.8855C17.334 29.1048 17.334 27.8475 17.334 25.3335V20.6335Z" stroke="#626262"/>
<path d="M24.0013 26.0002C24.7377 26.0002 25.3346 25.4032 25.3346 24.6668C25.3346 23.9304 24.7377 23.3335 24.0013 23.3335C23.2649 23.3335 22.668 23.9304 22.668 24.6668C22.668 25.4032 23.2649 26.0002 24.0013 26.0002Z" stroke="#626262"/>
<mask id="path-4-inside-1_1087_13754" fill="white">
<path d="M23.5 27.6667C23.5 27.7993 23.5527 27.9265 23.6464 28.0202C23.7402 28.114 23.8674 28.1667 24 28.1667C24.1326 28.1667 24.2598 28.114 24.3536 28.0202C24.4473 27.9265 24.5 27.7993 24.5 27.6667H23.5ZM23.5 26V27.6667H24.5V26H23.5Z"/>
</mask>
<path d="M23.5 27.6667C23.5 27.7993 23.5527 27.9265 23.6464 28.0202C23.7402 28.114 23.8674 28.1667 24 28.1667C24.1326 28.1667 24.2598 28.114 24.3536 28.0202C24.4473 27.9265 24.5 27.7993 24.5 27.6667H23.5ZM23.5 26V27.6667H24.5V26H23.5Z" fill="#222222"/>
<path d="M23.5 27.6667C23.5 27.7993 23.5527 27.9265 23.6464 28.0202C23.7402 28.114 23.8674 28.1667 24 28.1667C24.1326 28.1667 24.2598 28.114 24.3536 28.0202C24.4473 27.9265 24.5 27.7993 24.5 27.6667H23.5ZM23.5 26V27.6667H24.5V26H23.5Z" fill="black" fill-opacity="0.2"/>
<path d="M23.5 27.6667C23.5 27.7993 23.5527 27.9265 23.6464 28.0202C23.7402 28.114 23.8674 28.1667 24 28.1667C24.1326 28.1667 24.2598 28.114 24.3536 28.0202C24.4473 27.9265 24.5 27.7993 24.5 27.6667H23.5ZM23.5 26V27.6667H24.5V26H23.5Z" fill="black" fill-opacity="0.2"/>
<path d="M24.5 27.1667H23.5V28.1667H24.5V27.1667ZM23.5 26V25H22.5V26H23.5ZM24.5 26H25.5V25H24.5V26ZM22.5 27.6667C22.5 28.0645 22.658 28.446 22.9393 28.7273L24.3536 27.3131C24.4473 27.4069 24.5 27.5341 24.5 27.6667H22.5ZM22.9393 28.7273C23.2206 29.0086 23.6022 29.1667 24 29.1667V27.1667C24.1326 27.1667 24.2598 27.2193 24.3536 27.3131L22.9393 28.7273ZM24 29.1667C24.3978 29.1667 24.7794 29.0086 25.0607 28.7273L23.6464 27.3131C23.7402 27.2193 23.8674 27.1667 24 27.1667V29.1667ZM25.0607 28.7273C25.342 28.446 25.5 28.0645 25.5 27.6667H23.5C23.5 27.5341 23.5527 27.4069 23.6464 27.3131L25.0607 28.7273ZM22.5 26V27.6667H24.5V26H22.5ZM25.5 27.6667V26H23.5V27.6667H25.5ZM24.5 25H23.5V27H24.5V25Z" fill="#626262" mask="url(#path-4-inside-1_1087_13754)"/>
</g>
<defs>
<clipPath id="clip0_1087_13754">
<rect width="16" height="16" fill="white" transform="translate(16 16)"/>
</clipPath>
</defs>
</svg>
