<svg width="41" height="40" viewBox="0 0 41 40" fill="none" xmlns="http://www.w3.org/2000/svg">
<circle cx="20.376" cy="20" r="20" fill="#2F8132"/>
<path d="M20.3758 26.9984L20.0558 26.6384C19.8558 26.4384 15.1758 20.9184 15.1758 17.5984C15.1758 14.7184 17.4958 12.3984 20.3758 12.3984C23.2558 12.3984 25.5758 14.7184 25.5758 17.5984C25.5758 20.9184 20.8958 26.4384 20.6958 26.6784L20.3758 26.9984ZM20.3758 13.1984C17.9358 13.1984 15.9758 15.1584 15.9758 17.5984C15.9758 20.1584 19.3358 24.4784 20.3758 25.7584C21.4158 24.4784 24.7758 20.1584 24.7758 17.5984C24.7758 15.1584 22.8158 13.1984 20.3758 13.1984Z" fill="white"/>
<path d="M20.376 19.6016C19.256 19.6016 18.376 18.7216 18.376 17.6016C18.376 16.4816 19.256 15.6016 20.376 15.6016C21.496 15.6016 22.376 16.4816 22.376 17.6016C22.376 18.7216 21.496 19.6016 20.376 19.6016ZM20.376 16.4016C19.696 16.4016 19.176 16.9216 19.176 17.6016C19.176 18.2816 19.696 18.8016 20.376 18.8016C21.056 18.8016 21.576 18.2816 21.576 17.6016C21.576 16.9216 21.056 16.4016 20.376 16.4016Z" fill="white"/>
</svg>
