<svg width="30" height="30" viewBox="0 0 30 30" fill="none" xmlns="http://www.w3.org/2000/svg">
<circle cx="15" cy="15" r="15" fill="#FEF3F2"/>
<path d="M21 13C21.5523 13 22 12.5523 22 12C22 11.4477 21.5523 11 21 11C20.4477 11 20 11.4477 20 12C20 12.5523 20.4477 13 21 13Z" fill="#F04438"/>
<path d="M16 21.5H12.5V20.5H16C18.4815 20.5 20.5 18.4815 20.5 16V14H21.5V16C21.5 19.0325 19.0325 21.5 16 21.5Z" fill="#F04438"/>
<path d="M15 17.5C13.6215 17.5 12.5 16.3785 12.5 15C12.5 13.6215 13.6215 12.5 15 12.5C16.3785 12.5 17.5 13.6215 17.5 15C17.5 16.3785 16.3785 17.5 15 17.5ZM15 13.5C14.173 13.5 13.5 14.173 13.5 15C13.5 15.827 14.173 16.5 15 16.5C15.827 16.5 16.5 15.827 16.5 15C16.5 14.173 15.827 13.5 15 13.5Z" fill="#F04438"/>
<path d="M9 19C9.55228 19 10 18.5523 10 18C10 17.4477 9.55228 17 9 17C8.44772 17 8 17.4477 8 18C8 18.5523 8.44772 19 9 19Z" fill="#F04438"/>
<path d="M9.5 16H8.5V14C8.5 10.9675 10.9675 8.5 14 8.5H17.5V9.5H14C11.5185 9.5 9.5 11.5185 9.5 14V16Z" fill="#F04438"/>
</svg>
