<svg width="40" height="40" viewBox="0 0 40 40" fill="none" xmlns="http://www.w3.org/2000/svg">
<circle cx="20" cy="20" r="20" fill="#E3F9E5"/>
<path fill-rule="evenodd" clip-rule="evenodd" d="M18.2863 12.7085H21.713C23.2446 12.7085 24.458 12.7085 25.4071 12.836C26.3838 12.9677 27.1746 13.2443 27.7988 13.8677C28.4221 14.4918 28.6988 15.2827 28.8305 16.2593C28.9055 16.8202 28.9363 17.4727 28.9488 18.2285C28.9597 18.2918 28.9608 18.3565 28.9521 18.4202C28.958 18.8918 28.958 19.4018 28.958 19.9535V20.0468C28.958 21.5785 28.958 22.7918 28.8305 23.741C28.6988 24.7177 28.4221 25.5085 27.7988 26.1327C27.1746 26.756 26.3838 27.0327 25.4071 27.1643C24.4571 27.2918 23.2446 27.2918 21.713 27.2918H18.2863C16.7546 27.2918 15.5413 27.2918 14.5921 27.1643C13.6155 27.0327 12.8246 26.756 12.2005 26.1327C11.5771 25.5085 11.3005 24.7177 11.1688 23.741C11.0413 22.791 11.0413 21.5785 11.0413 20.0468V19.9535C11.0413 19.4018 11.0413 18.8918 11.0471 18.4202C11.0382 18.3565 11.0391 18.2919 11.0496 18.2285C11.063 17.4727 11.0938 16.8202 11.1688 16.2593C11.3005 15.2827 11.5771 14.4918 12.2005 13.8677C12.8246 13.2443 13.6155 12.9677 14.5921 12.836C15.5421 12.7085 16.7546 12.7085 18.2863 12.7085ZM12.293 18.9585C12.2913 19.2818 12.2913 19.6285 12.2913 20.0002C12.2913 21.5893 12.293 22.7177 12.408 23.5752C12.5205 24.4127 12.7321 24.896 13.0846 25.2485C13.4371 25.601 13.9205 25.8127 14.7588 25.9252C15.6155 26.0402 16.7438 26.0418 18.333 26.0418H21.6663C23.2555 26.0418 24.3846 26.0402 25.2413 25.9252C26.0788 25.8127 26.5621 25.601 26.9146 25.2485C27.2671 24.896 27.4788 24.4127 27.5913 23.5743C27.7063 22.7177 27.708 21.5893 27.708 20.0002C27.708 19.6285 27.708 19.2818 27.7063 18.9585H12.293ZM27.6863 17.7085H12.313C12.3296 17.2193 12.358 16.7968 12.408 16.4252C12.5205 15.5877 12.7321 15.1043 13.0846 14.7518C13.4371 14.3993 13.9205 14.1877 14.7588 14.0752C15.6155 13.9602 16.7438 13.9585 18.333 13.9585H21.6663C23.2555 13.9585 24.3846 13.9602 25.2413 14.0752C26.0788 14.1877 26.5621 14.3993 26.9146 14.7518C27.2671 15.1043 27.4788 15.5877 27.5913 16.426C27.6413 16.7968 27.6696 17.2193 27.6863 17.7085ZM14.3746 23.3335C14.3746 23.1677 14.4405 23.0088 14.5577 22.8916C14.6749 22.7743 14.8339 22.7085 14.9996 22.7085H18.333C18.4987 22.7085 18.6577 22.7743 18.7749 22.8916C18.8921 23.0088 18.958 23.1677 18.958 23.3335C18.958 23.4993 18.8921 23.6582 18.7749 23.7754C18.6577 23.8926 18.4987 23.9585 18.333 23.9585H14.9996C14.8339 23.9585 14.6749 23.8926 14.5577 23.7754C14.4405 23.6582 14.3746 23.4993 14.3746 23.3335ZM19.7913 23.3335C19.7913 23.1677 19.8572 23.0088 19.9744 22.8916C20.0916 22.7743 20.2505 22.7085 20.4163 22.7085H21.6663C21.8321 22.7085 21.991 22.7743 22.1082 22.8916C22.2255 23.0088 22.2913 23.1677 22.2913 23.3335C22.2913 23.4993 22.2255 23.6582 22.1082 23.7754C21.991 23.8926 21.8321 23.9585 21.6663 23.9585H20.4163C20.2505 23.9585 20.0916 23.8926 19.9744 23.7754C19.8572 23.6582 19.7913 23.4993 19.7913 23.3335Z" fill="#3F9142"/>
</svg>
