<svg width="14" height="13" viewBox="0 0 14 13" fill="none" xmlns="http://www.w3.org/2000/svg">
<path d="M7 12.5C10.3137 12.5 13 9.81371 13 6.5C13 3.18629 10.3137 0.5 7 0.5C3.68629 0.5 1 3.18629 1 6.5C1 9.81371 3.68629 12.5 7 12.5Z" stroke="#2F8132" stroke-linecap="round" stroke-linejoin="round"/>
<path d="M6.538 4.99267L9 4.5L8.50733 6.962C8.45576 7.22005 8.32898 7.45706 8.14297 7.6432C7.95695 7.82933 7.72001 7.95626 7.462 8.008L5 8.5L5.49267 6.038C5.54436 5.78007 5.67119 5.5432 5.85719 5.35719C6.0432 5.17119 6.28007 5.04436 6.538 4.99267Z" stroke="#2F8132" stroke-linecap="round" stroke-linejoin="round"/>
</svg>
