<svg width="18" height="22" viewBox="0 0 18 22" fill="none" xmlns="http://www.w3.org/2000/svg">
<path d="M11.784 1.255L16.765 6.236M4.91848 10.464H13.0555M4.91848 16.497H13.0555M4.91848 13.4805H13.0555M2.18148 1.255C1.92133 1.26139 1.67399 1.36925 1.49228 1.55554C1.31058 1.74182 1.20891 1.99177 1.20898 2.252V19.753C1.2089 20.0131 1.3105 20.263 1.49211 20.4493C1.67371 20.6356 1.92092 20.7435 2.18098 20.75H15.793C16.0574 20.75 16.311 20.645 16.498 20.458C16.6849 20.271 16.79 20.0174 16.79 19.753V6.236H12.8015C12.5412 6.2296 12.2938 6.12168 12.1121 5.93528C11.9304 5.74889 11.8288 5.49882 11.829 5.2385V1.25L2.18148 1.255Z" stroke="#05400A" stroke-linecap="round" stroke-linejoin="round"/>
<path d="M11.784 1.255L16.765 6.236M4.91848 10.464H13.0555M4.91848 16.497H13.0555M4.91848 13.4805H13.0555M2.18148 1.255C1.92133 1.26139 1.67399 1.36925 1.49228 1.55554C1.31058 1.74182 1.20891 1.99177 1.20898 2.252V19.753C1.2089 20.0131 1.3105 20.263 1.49211 20.4493C1.67371 20.6356 1.92092 20.7435 2.18098 20.75H15.793C16.0574 20.75 16.311 20.645 16.498 20.458C16.6849 20.271 16.79 20.0174 16.79 19.753V6.236H12.8015C12.5412 6.2296 12.2938 6.12168 12.1121 5.93528C11.9304 5.74889 11.8288 5.49882 11.829 5.2385V1.25L2.18148 1.255Z" stroke="black" stroke-opacity="0.2" stroke-linecap="round" stroke-linejoin="round"/>
</svg>
