<svg xmlns="http://www.w3.org/2000/svg" width="24" height="24" viewBox="0 0 24 24" fill="none">
  <path d="M14.784 2.255L19.765 7.236M7.91848 11.464H16.0555M7.91848 17.497H16.0555M7.91848 14.4805H16.0555M5.18148 2.255C4.92133 2.26139 4.67399 2.36925 4.49228 2.55554C4.31058 2.74182 4.20891 2.99177 4.20898 3.252V20.753C4.2089 21.0131 4.3105 21.263 4.49211 21.4493C4.67371 21.6356 4.92092 21.7435 5.18098 21.75H18.793C19.0574 21.75 19.311 21.645 19.498 21.458C19.6849 21.271 19.79 21.0174 19.79 20.753V7.236H15.8015C15.5412 7.2296 15.2938 7.12168 15.1121 6.93528C14.9304 6.74889 14.8288 6.49882 14.829 6.2385V2.25L5.18148 2.255Z" stroke="#05400A" stroke-linecap="round" stroke-linejoin="round"/>
  <path d="M14.784 2.255L19.765 7.236M7.91848 11.464H16.0555M7.91848 17.497H16.0555M7.91848 14.4805H16.0555M5.18148 2.255C4.92133 2.26139 4.67399 2.36925 4.49228 2.55554C4.31058 2.74182 4.20891 2.99177 4.20898 3.252V20.753C4.2089 21.0131 4.3105 21.263 4.49211 21.4493C4.67371 21.6356 4.92092 21.7435 5.18098 21.75H18.793C19.0574 21.75 19.311 21.645 19.498 21.458C19.6849 21.271 19.79 21.0174 19.79 20.753V7.236H15.8015C15.5412 7.2296 15.2938 7.12168 15.1121 6.93528C14.9304 6.74889 14.8288 6.49882 14.829 6.2385V2.25L5.18148 2.255Z" stroke="black" stroke-opacity="0.2" stroke-linecap="round" stroke-linejoin="round"/>
</svg>