<svg width="20" height="16" viewBox="0 0 20 16" fill="none" xmlns="http://www.w3.org/2000/svg">
<path d="M19 9.00006H17C16.7167 9.00006 16.479 8.90406 16.287 8.71206C16.095 8.52006 15.9993 8.28272 16 8.00006C16 7.71672 16.096 7.47906 16.288 7.28706C16.48 7.09506 16.7173 6.99939 17 7.00006H19C19.2833 7.00006 19.521 7.09606 19.713 7.28806C19.905 7.48006 20.0007 7.71739 20 8.00006C20 8.28339 19.904 8.52106 19.712 8.71306C19.52 8.90506 19.2827 9.00072 19 9.00006ZM14.6 12.8001C14.7667 12.5667 14.9833 12.4334 15.25 12.4001C15.5167 12.3667 15.7667 12.4334 16 12.6001L17.6 13.8001C17.8333 13.9667 17.9667 14.1834 18 14.4501C18.0333 14.7167 17.9667 14.9667 17.8 15.2001C17.6333 15.4334 17.4167 15.5667 17.15 15.6001C16.8833 15.6334 16.6333 15.5667 16.4 15.4001L14.8 14.2001C14.5667 14.0334 14.4333 13.8167 14.4 13.5501C14.3667 13.2834 14.4333 13.0334 14.6 12.8001ZM17.6 2.20006L16 3.40006C15.7667 3.56672 15.5167 3.63339 15.25 3.60006C14.9833 3.56672 14.7667 3.43339 14.6 3.20006C14.4333 2.96672 14.3667 2.71672 14.4 2.45006C14.4333 2.18339 14.5667 1.96672 14.8 1.80006L16.4 0.600057C16.6333 0.43339 16.8833 0.366724 17.15 0.400057C17.4167 0.43339 17.6333 0.566724 17.8 0.800057C17.9667 1.03339 18.0333 1.28339 18 1.55006C17.9667 1.81672 17.8333 2.03339 17.6 2.20006ZM3 11.0001H2C1.45 11.0001 0.979002 10.8041 0.587002 10.4121C0.195002 10.0201 -0.000664969 9.54939 1.69779e-06 9.00006V7.00006C1.69779e-06 6.45006 0.196002 5.97906 0.588002 5.58706C0.980002 5.19506 1.45067 4.99939 2 5.00006H6L9.475 2.90006C9.80834 2.70006 10.1457 2.70006 10.487 2.90006C10.8283 3.10006 10.9993 3.39172 11 3.77506V12.2251C11 12.6084 10.829 12.9001 10.487 13.1001C10.145 13.3001 9.80767 13.3001 9.475 13.1001L6 11.0001H5V14.0001C5 14.2834 4.904 14.5211 4.712 14.7131C4.52 14.9051 4.28267 15.0007 4 15.0001C3.71667 15.0001 3.479 14.9041 3.287 14.7121C3.095 14.5201 2.99934 14.2827 3 14.0001V11.0001ZM9 10.4501V5.55006L6.55 7.00006H2V9.00006H6.55L9 10.4501ZM12 11.3501V4.65006C12.45 5.05006 12.8127 5.53772 13.088 6.11306C13.3633 6.68839 13.5007 7.31739 13.5 8.00006C13.5 8.68339 13.3623 9.31272 13.087 9.88806C12.8117 10.4634 12.4493 10.9507 12 11.3501Z" fill="#222222"/>
<path d="M19 9.00006H17C16.7167 9.00006 16.479 8.90406 16.287 8.71206C16.095 8.52006 15.9993 8.28272 16 8.00006C16 7.71672 16.096 7.47906 16.288 7.28706C16.48 7.09506 16.7173 6.99939 17 7.00006H19C19.2833 7.00006 19.521 7.09606 19.713 7.28806C19.905 7.48006 20.0007 7.71739 20 8.00006C20 8.28339 19.904 8.52106 19.712 8.71306C19.52 8.90506 19.2827 9.00072 19 9.00006ZM14.6 12.8001C14.7667 12.5667 14.9833 12.4334 15.25 12.4001C15.5167 12.3667 15.7667 12.4334 16 12.6001L17.6 13.8001C17.8333 13.9667 17.9667 14.1834 18 14.4501C18.0333 14.7167 17.9667 14.9667 17.8 15.2001C17.6333 15.4334 17.4167 15.5667 17.15 15.6001C16.8833 15.6334 16.6333 15.5667 16.4 15.4001L14.8 14.2001C14.5667 14.0334 14.4333 13.8167 14.4 13.5501C14.3667 13.2834 14.4333 13.0334 14.6 12.8001ZM17.6 2.20006L16 3.40006C15.7667 3.56672 15.5167 3.63339 15.25 3.60006C14.9833 3.56672 14.7667 3.43339 14.6 3.20006C14.4333 2.96672 14.3667 2.71672 14.4 2.45006C14.4333 2.18339 14.5667 1.96672 14.8 1.80006L16.4 0.600057C16.6333 0.43339 16.8833 0.366724 17.15 0.400057C17.4167 0.43339 17.6333 0.566724 17.8 0.800057C17.9667 1.03339 18.0333 1.28339 18 1.55006C17.9667 1.81672 17.8333 2.03339 17.6 2.20006ZM3 11.0001H2C1.45 11.0001 0.979002 10.8041 0.587002 10.4121C0.195002 10.0201 -0.000664969 9.54939 1.69779e-06 9.00006V7.00006C1.69779e-06 6.45006 0.196002 5.97906 0.588002 5.58706C0.980002 5.19506 1.45067 4.99939 2 5.00006H6L9.475 2.90006C9.80834 2.70006 10.1457 2.70006 10.487 2.90006C10.8283 3.10006 10.9993 3.39172 11 3.77506V12.2251C11 12.6084 10.829 12.9001 10.487 13.1001C10.145 13.3001 9.80767 13.3001 9.475 13.1001L6 11.0001H5V14.0001C5 14.2834 4.904 14.5211 4.712 14.7131C4.52 14.9051 4.28267 15.0007 4 15.0001C3.71667 15.0001 3.479 14.9041 3.287 14.7121C3.095 14.5201 2.99934 14.2827 3 14.0001V11.0001ZM9 10.4501V5.55006L6.55 7.00006H2V9.00006H6.55L9 10.4501ZM12 11.3501V4.65006C12.45 5.05006 12.8127 5.53772 13.088 6.11306C13.3633 6.68839 13.5007 7.31739 13.5 8.00006C13.5 8.68339 13.3623 9.31272 13.087 9.88806C12.8117 10.4634 12.4493 10.9507 12 11.3501Z" fill="black" fill-opacity="0.2"/>
<path d="M19 9.00006H17C16.7167 9.00006 16.479 8.90406 16.287 8.71206C16.095 8.52006 15.9993 8.28272 16 8.00006C16 7.71672 16.096 7.47906 16.288 7.28706C16.48 7.09506 16.7173 6.99939 17 7.00006H19C19.2833 7.00006 19.521 7.09606 19.713 7.28806C19.905 7.48006 20.0007 7.71739 20 8.00006C20 8.28339 19.904 8.52106 19.712 8.71306C19.52 8.90506 19.2827 9.00072 19 9.00006ZM14.6 12.8001C14.7667 12.5667 14.9833 12.4334 15.25 12.4001C15.5167 12.3667 15.7667 12.4334 16 12.6001L17.6 13.8001C17.8333 13.9667 17.9667 14.1834 18 14.4501C18.0333 14.7167 17.9667 14.9667 17.8 15.2001C17.6333 15.4334 17.4167 15.5667 17.15 15.6001C16.8833 15.6334 16.6333 15.5667 16.4 15.4001L14.8 14.2001C14.5667 14.0334 14.4333 13.8167 14.4 13.5501C14.3667 13.2834 14.4333 13.0334 14.6 12.8001ZM17.6 2.20006L16 3.40006C15.7667 3.56672 15.5167 3.63339 15.25 3.60006C14.9833 3.56672 14.7667 3.43339 14.6 3.20006C14.4333 2.96672 14.3667 2.71672 14.4 2.45006C14.4333 2.18339 14.5667 1.96672 14.8 1.80006L16.4 0.600057C16.6333 0.43339 16.8833 0.366724 17.15 0.400057C17.4167 0.43339 17.6333 0.566724 17.8 0.800057C17.9667 1.03339 18.0333 1.28339 18 1.55006C17.9667 1.81672 17.8333 2.03339 17.6 2.20006ZM3 11.0001H2C1.45 11.0001 0.979002 10.8041 0.587002 10.4121C0.195002 10.0201 -0.000664969 9.54939 1.69779e-06 9.00006V7.00006C1.69779e-06 6.45006 0.196002 5.97906 0.588002 5.58706C0.980002 5.19506 1.45067 4.99939 2 5.00006H6L9.475 2.90006C9.80834 2.70006 10.1457 2.70006 10.487 2.90006C10.8283 3.10006 10.9993 3.39172 11 3.77506V12.2251C11 12.6084 10.829 12.9001 10.487 13.1001C10.145 13.3001 9.80767 13.3001 9.475 13.1001L6 11.0001H5V14.0001C5 14.2834 4.904 14.5211 4.712 14.7131C4.52 14.9051 4.28267 15.0007 4 15.0001C3.71667 15.0001 3.479 14.9041 3.287 14.7121C3.095 14.5201 2.99934 14.2827 3 14.0001V11.0001ZM9 10.4501V5.55006L6.55 7.00006H2V9.00006H6.55L9 10.4501ZM12 11.3501V4.65006C12.45 5.05006 12.8127 5.53772 13.088 6.11306C13.3633 6.68839 13.5007 7.31739 13.5 8.00006C13.5 8.68339 13.3623 9.31272 13.087 9.88806C12.8117 10.4634 12.4493 10.9507 12 11.3501Z" fill="black" fill-opacity="0.2"/>
</svg>
