<svg width="16" height="15" viewBox="0 0 16 15" fill="none" xmlns="http://www.w3.org/2000/svg">
<path d="M4.66683 4.49996C6.50778 4.49996 8.00016 3.75377 8.00016 2.83329C8.00016 1.91282 6.50778 1.16663 4.66683 1.16663C2.82588 1.16663 1.3335 1.91282 1.3335 2.83329C1.3335 3.75377 2.82588 4.49996 4.66683 4.49996Z" stroke="#9E9E9E" stroke-linecap="round" stroke-linejoin="round"/>
<path d="M1.3335 2.83325V5.16659C1.3335 6.08692 2.82583 6.83325 4.66683 6.83325C6.50783 6.83325 8.00016 6.08692 8.00016 5.16659V2.83325" stroke="#9E9E9E" stroke-linecap="round" stroke-linejoin="round"/>
<path d="M1.3335 5.16663V7.49996C1.3335 8.42029 2.82583 9.16663 4.66683 9.16663C6.50783 9.16663 8.00016 8.42029 8.00016 7.49996V5.16663" stroke="#9E9E9E" stroke-linecap="round" stroke-linejoin="round"/>
<path d="M1.3335 7.5V9.83333C1.3335 10.7537 2.82583 11.5 4.66683 11.5C6.50783 11.5 8.00016 10.7537 8.00016 9.83333V7.5" stroke="#9E9E9E" stroke-linecap="round" stroke-linejoin="round"/>
<path d="M1.3335 9.83325V12.1666C1.3335 13.0869 2.82583 13.8333 4.66683 13.8333C6.50783 13.8333 8.00016 13.0869 8.00016 12.1666V9.83325" stroke="#9E9E9E" stroke-linecap="round" stroke-linejoin="round"/>
<path d="M11.3333 9.16658C13.1743 9.16658 14.6667 8.42039 14.6667 7.49992C14.6667 6.57944 13.1743 5.83325 11.3333 5.83325C9.49238 5.83325 8 6.57944 8 7.49992C8 8.42039 9.49238 9.16658 11.3333 9.16658Z" stroke="#9E9E9E" stroke-linecap="round" stroke-linejoin="round"/>
<path d="M8 7.5V9.83333C8 10.7537 9.49233 11.5 11.3333 11.5C13.1743 11.5 14.6667 10.7537 14.6667 9.83333V7.5" stroke="#9E9E9E" stroke-linecap="round" stroke-linejoin="round"/>
<path d="M8 9.83325V12.1666C8 13.0869 9.49233 13.8333 11.3333 13.8333C13.1743 13.8333 14.6667 13.0869 14.6667 12.1666V9.83325" stroke="#9E9E9E" stroke-linecap="round" stroke-linejoin="round"/>
</svg>
