<svg width="21" height="14" viewBox="0 0 21 14" fill="none" xmlns="http://www.w3.org/2000/svg">
<path d="M20.645 13.005C20.645 13.555 20.199 14 19.65 14H11.64C11.3761 14 11.123 13.8952 10.9364 13.7086C10.7498 13.522 10.645 13.2689 10.645 13.005C10.645 12.7411 10.7498 12.488 10.9364 12.3014C11.123 12.1148 11.3761 12.01 11.64 12.01H19.65C20.2 12.01 20.645 12.455 20.645 13.005ZM20.645 7C20.645 7.55 20.199 7.995 19.65 7.995H1.64002C1.37613 7.995 1.12305 7.89017 0.936448 7.70357C0.74985 7.51697 0.64502 7.26389 0.64502 7C0.64502 6.73611 0.74985 6.48303 0.936448 6.29643C1.12305 6.10983 1.37613 6.005 1.64002 6.005H19.65C20.2 6.005 20.645 6.451 20.645 7ZM19.65 1.99C19.9139 1.99 20.167 1.88517 20.3536 1.69857C20.5402 1.51197 20.645 1.25889 20.645 0.995C20.645 0.731109 20.5402 0.478027 20.3536 0.291429C20.167 0.10483 19.9139 7.86455e-09 19.65 0H7.64002C7.50935 -3.89413e-09 7.37997 0.0257364 7.25925 0.0757399C7.13853 0.125743 7.02884 0.199034 6.93645 0.291429C6.84405 0.383823 6.77076 0.493511 6.72076 0.61423C6.67076 0.734949 6.64502 0.864335 6.64502 0.995C6.64502 1.12567 6.67076 1.25505 6.72076 1.37577C6.77076 1.49649 6.84405 1.60618 6.93645 1.69857C7.02884 1.79097 7.13853 1.86426 7.25925 1.91426C7.37997 1.96426 7.50935 1.99 7.64002 1.99H19.65Z" fill="black"/>
</svg>
