<svg width="10" height="10" viewBox="0 0 10 10" fill="none" xmlns="http://www.w3.org/2000/svg">
<path fill-rule="evenodd" clip-rule="evenodd" d="M5.00004 5.94146L8.77138 9.7128C8.89711 9.83424 9.06551 9.90143 9.24031 9.89991C9.41511 9.89839 9.58232 9.82828 9.70592 9.70468C9.82953 9.58107 9.89964 9.41386 9.90116 9.23907C9.90268 9.06427 9.83548 8.89587 9.71404 8.77013L5.94271 4.9988L9.71404 1.22746C9.83548 1.10173 9.90268 0.933328 9.90116 0.75853C9.89964 0.583732 9.82953 0.416524 9.70592 0.292919C9.58232 0.169313 9.41511 0.0992004 9.24031 0.0976815C9.06551 0.0961625 8.89711 0.163359 8.77138 0.284797L5.00004 4.05613L1.22871 0.284797C1.10241 0.166361 0.934987 0.101708 0.761865 0.104519C0.588743 0.10733 0.423506 0.177385 0.301118 0.29986C0.17873 0.422335 0.108791 0.587621 0.106103 0.760745C0.103414 0.933869 0.168185 1.10125 0.286711 1.22746L4.05738 4.9988L0.286045 8.77013C0.222371 8.83163 0.171583 8.90519 0.136644 8.98653C0.101705 9.06786 0.0833139 9.15534 0.0825447 9.24386C0.0817755 9.33238 0.0986432 9.42017 0.132164 9.5021C0.165684 9.58403 0.215186 9.65847 0.277782 9.72106C0.340377 9.78366 0.414811 9.83316 0.496742 9.86668C0.578673 9.9002 0.666459 9.91707 0.754979 9.9163C0.843498 9.91553 0.930979 9.89714 1.01231 9.8622C1.09365 9.82726 1.16721 9.77647 1.22871 9.7128L5.00004 5.94146Z" fill="#D92D20"/>
</svg>
