<svg width="144" height="44" viewBox="0 0 144 44" fill="none" xmlns="http://www.w3.org/2000/svg">
<path d="M15.7143 31.4286C24.393 31.4286 31.4285 24.393 31.4285 15.7143C31.4285 14.7307 31.3382 13.7682 31.1653 12.8347C30.2318 12.6618 29.2693 12.5714 28.2857 12.5714C19.6069 12.5714 12.5714 19.6069 12.5714 28.2857C12.5714 29.2693 12.6618 30.2318 12.8347 31.1653C13.7682 31.3382 14.7307 31.4286 15.7143 31.4286Z" fill="white"/>
<path fill-rule="evenodd" clip-rule="evenodd" d="M12.8347 31.1653C5.53118 29.8127 0 23.4095 0 15.7143C0 7.03552 7.03553 0 15.7143 0C23.4095 0 29.8128 5.53118 31.1653 12.8347C30.2318 12.6618 29.2693 12.5714 28.2857 12.5714C19.607 12.5714 12.5714 19.607 12.5714 28.2857C12.5714 29.2693 12.6618 30.2318 12.8347 31.1653Z" fill="#05400A"/>
<path fill-rule="evenodd" clip-rule="evenodd" d="M15.7142 31.4285C24.393 31.4285 31.4285 24.393 31.4285 15.7142C31.4285 14.7306 31.3381 13.7681 31.1652 12.8346C38.4687 14.1872 43.9999 20.5905 43.9999 28.2856C43.9999 36.9644 36.9644 43.9999 28.2856 43.9999C20.5905 43.9999 14.1872 38.4687 12.8346 31.1652C13.7681 31.3381 14.7306 31.4285 15.7142 31.4285Z" fill="#2F8132"/>
<path d="M58.7216 30.5V13.0455H61.8835V21.0653H62.0966L68.9062 13.0455H72.767L66.017 20.8778L72.8267 30.5H69.0256L63.8182 23.017L61.8835 25.3011V30.5H58.7216ZM74.3474 30.5V17.4091H77.3389V19.5909H77.4753C77.7139 18.8352 78.123 18.2528 78.7025 17.8438C79.2878 17.429 79.9554 17.2216 80.7054 17.2216C80.8758 17.2216 81.0662 17.2301 81.2764 17.2472C81.4923 17.2585 81.6713 17.2784 81.8133 17.3068V20.1449C81.6826 20.0994 81.4753 20.0597 81.1912 20.0256C80.9128 19.9858 80.6429 19.9659 80.3815 19.9659C79.819 19.9659 79.3133 20.0881 78.8645 20.3324C78.4213 20.571 78.0718 20.9034 77.8162 21.3295C77.5605 21.7557 77.4326 22.2472 77.4326 22.804V30.5H74.3474ZM88.5542 30.7557C87.2758 30.7557 86.1678 30.4744 85.2303 29.9119C84.2928 29.3494 83.5656 28.5625 83.0485 27.5511C82.5372 26.5398 82.2815 25.358 82.2815 24.0057C82.2815 22.6534 82.5372 21.4687 83.0485 20.4517C83.5656 19.4347 84.2928 18.6449 85.2303 18.0824C86.1678 17.5199 87.2758 17.2386 88.5542 17.2386C89.8326 17.2386 90.9406 17.5199 91.8781 18.0824C92.8156 18.6449 93.54 19.4347 94.0514 20.4517C94.5684 21.4687 94.8269 22.6534 94.8269 24.0057C94.8269 25.358 94.5684 26.5398 94.0514 27.5511C93.54 28.5625 92.8156 29.3494 91.8781 29.9119C90.9406 30.4744 89.8326 30.7557 88.5542 30.7557ZM88.5713 28.2841C89.2644 28.2841 89.844 28.0937 90.3099 27.7131C90.7758 27.3267 91.1224 26.8097 91.3497 26.1619C91.5826 25.5142 91.6991 24.7926 91.6991 23.9972C91.6991 23.196 91.5826 22.4716 91.3497 21.8239C91.1224 21.1705 90.7758 20.6506 90.3099 20.2642C89.844 19.8778 89.2644 19.6847 88.5713 19.6847C87.861 19.6847 87.2701 19.8778 86.7985 20.2642C86.3326 20.6506 85.9832 21.1705 85.7502 21.8239C85.523 22.4716 85.4093 23.196 85.4093 23.9972C85.4093 24.7926 85.523 25.5142 85.7502 26.1619C85.9832 26.8097 86.3326 27.3267 86.7985 27.7131C87.2701 28.0937 87.861 28.2841 88.5713 28.2841ZM99.2922 30.5L95.5934 17.4091H98.7383L101.039 26.6136H101.159L103.511 17.4091H106.622L108.974 26.5625H109.102L111.369 17.4091H114.522L110.815 30.5H107.602L105.147 21.6534H104.968L102.514 30.5H99.2922ZM120.679 30.7301C119.651 30.7301 118.731 30.4659 117.918 29.9375C117.106 29.4091 116.464 28.642 115.992 27.6364C115.52 26.6307 115.285 25.4091 115.285 23.9716C115.285 22.517 115.523 21.2898 116 20.2898C116.483 19.2841 117.134 18.5256 117.952 18.0142C118.77 17.4972 119.682 17.2386 120.688 17.2386C121.455 17.2386 122.086 17.3693 122.58 17.6307C123.074 17.8864 123.466 18.196 123.756 18.5597C124.046 18.9176 124.27 19.2557 124.429 19.5739H124.557V13.0455H127.651V30.5H124.617V28.4375H124.429C124.27 28.7557 124.04 29.0937 123.739 29.4517C123.438 29.804 123.04 30.1051 122.546 30.3551C122.052 30.6051 121.429 30.7301 120.679 30.7301ZM121.54 28.1989C122.194 28.1989 122.75 28.0227 123.211 27.6705C123.671 27.3125 124.02 26.8153 124.259 26.179C124.498 25.5426 124.617 24.8011 124.617 23.9545C124.617 23.108 124.498 22.3722 124.259 21.7472C124.026 21.1222 123.679 20.6364 123.219 20.2898C122.765 19.9432 122.205 19.7699 121.54 19.7699C120.853 19.7699 120.279 19.9489 119.819 20.3068C119.358 20.6648 119.012 21.1591 118.779 21.7898C118.546 22.4205 118.429 23.142 118.429 23.9545C118.429 24.7727 118.546 25.5028 118.779 26.1449C119.018 26.7812 119.367 27.2841 119.827 27.6534C120.293 28.017 120.864 28.1989 121.54 28.1989ZM137.089 17.4091V19.7955H129.351V17.4091H137.089ZM131.285 30.5V16.1733C131.285 15.2926 131.467 14.5597 131.831 13.9744C132.2 13.3892 132.694 12.9517 133.314 12.6619C133.933 12.3722 134.621 12.2273 135.376 12.2273C135.91 12.2273 136.385 12.2699 136.8 12.3551C137.214 12.4403 137.521 12.517 137.72 12.5852L137.106 14.9716C136.976 14.9318 136.811 14.892 136.612 14.8523C136.413 14.8068 136.192 14.7841 135.947 14.7841C135.373 14.7841 134.967 14.9233 134.729 15.2017C134.496 15.4744 134.379 15.8665 134.379 16.3778V30.5H131.285ZM139.026 30.5V17.4091H142.111V30.5H139.026ZM140.577 15.5511C140.088 15.5511 139.668 15.3892 139.315 15.0653C138.963 14.7358 138.787 14.3409 138.787 13.8807C138.787 13.4148 138.963 13.0199 139.315 12.696C139.668 12.3665 140.088 12.2017 140.577 12.2017C141.071 12.2017 141.491 12.3665 141.838 12.696C142.19 13.0199 142.366 13.4148 142.366 13.8807C142.366 14.3409 142.19 14.7358 141.838 15.0653C141.491 15.3892 141.071 15.5511 140.577 15.5511Z" fill="#222222"/>
</svg>
