<svg width="20" height="20" viewBox="0 0 20 20" fill="none" xmlns="http://www.w3.org/2000/svg">
<path d="M10.596 0.0430874C11.671 0.119087 12.655 0.324088 13.339 0.999088C14.037 1.68709 14.259 2.69509 14.259 3.94009C14.259 4.37209 14.202 4.89509 14.142 5.37809C14.116 5.57809 14.091 5.77009 14.066 5.95009L14.01 6.37909H16.06C16.812 6.37909 17.506 6.48709 18.096 6.78309C18.708 7.08909 19.158 7.57009 19.451 8.21409C20.002 9.42809 19.993 11.2221 19.674 13.6081L19.623 13.9981C19.489 15.0081 19.375 15.8701 19.227 16.5781C19.061 17.3731 18.833 18.0741 18.411 18.6281C17.521 19.7961 16.016 20.0001 13.828 20.0001C11.497 20.0001 9.748 19.5821 8.284 19.1761L7.682 19.0061C6.659 18.7161 5.83 18.4801 4.992 18.4201C4.94977 18.8528 4.74799 19.2543 4.42597 19.5463C4.10395 19.8384 3.68475 20.0002 3.25 20.0001H1.75C1.28587 20.0001 0.840752 19.8157 0.512563 19.4875C0.184375 19.1593 0 18.7142 0 18.2501V7.75009C0 6.78409 0.784 6.00009 1.75 6.00009H3.25C3.69386 6.00011 4.12113 6.16879 4.4453 6.47198C4.76947 6.77517 4.96632 7.19022 4.996 7.63309C5.1758 7.6152 5.352 7.57106 5.519 7.50209C6.48 7.08709 8.293 5.96809 8.293 3.30209V2.24909C8.293 1.02909 9.295 -0.0489125 10.596 0.0430874ZM5 16.9181C6.059 16.9821 7.079 17.2731 8.118 17.5701L8.686 17.7301C10.092 18.1201 11.692 18.5001 13.828 18.5001C16.105 18.5001 16.832 18.2261 17.218 17.7191C17.434 17.4361 17.606 17.0011 17.758 16.2711C17.894 15.6211 18 14.8211 18.137 13.7941L18.187 13.4101C18.507 11.0101 18.44 9.61509 18.085 8.83509C17.925 8.48309 17.71 8.26709 17.425 8.12409C17.12 7.97109 16.685 7.87909 16.06 7.87909H13.69C13.009 7.87909 12.397 7.30909 12.479 6.55109C12.505 6.30809 12.544 6.01409 12.584 5.71709L12.654 5.19009C12.714 4.70809 12.759 4.26909 12.759 3.94009C12.759 2.81509 12.546 2.32309 12.286 2.06709C12.011 1.79709 11.512 1.61209 10.491 1.53909C10.14 1.51509 9.793 1.81309 9.793 2.24909V3.30209C9.793 6.85209 7.305 8.36509 6.113 8.87909C5.741 9.03909 5.359 9.11109 5 9.13909V16.9181ZM1.75 18.5001H3.25C3.3163 18.5001 3.37989 18.4737 3.42678 18.4269C3.47366 18.38 3.5 18.3164 3.5 18.2501V7.75009C3.5 7.68378 3.47366 7.62019 3.42678 7.57331C3.37989 7.52643 3.3163 7.50009 3.25 7.50009H1.75C1.6837 7.50009 1.62011 7.52643 1.57322 7.57331C1.52634 7.62019 1.5 7.68378 1.5 7.75009V18.2501C1.5 18.3881 1.612 18.5001 1.75 18.5001Z" fill="#222222"/>
<path d="M10.596 0.0430874C11.671 0.119087 12.655 0.324088 13.339 0.999088C14.037 1.68709 14.259 2.69509 14.259 3.94009C14.259 4.37209 14.202 4.89509 14.142 5.37809C14.116 5.57809 14.091 5.77009 14.066 5.95009L14.01 6.37909H16.06C16.812 6.37909 17.506 6.48709 18.096 6.78309C18.708 7.08909 19.158 7.57009 19.451 8.21409C20.002 9.42809 19.993 11.2221 19.674 13.6081L19.623 13.9981C19.489 15.0081 19.375 15.8701 19.227 16.5781C19.061 17.3731 18.833 18.0741 18.411 18.6281C17.521 19.7961 16.016 20.0001 13.828 20.0001C11.497 20.0001 9.748 19.5821 8.284 19.1761L7.682 19.0061C6.659 18.7161 5.83 18.4801 4.992 18.4201C4.94977 18.8528 4.74799 19.2543 4.42597 19.5463C4.10395 19.8384 3.68475 20.0002 3.25 20.0001H1.75C1.28587 20.0001 0.840752 19.8157 0.512563 19.4875C0.184375 19.1593 0 18.7142 0 18.2501V7.75009C0 6.78409 0.784 6.00009 1.75 6.00009H3.25C3.69386 6.00011 4.12113 6.16879 4.4453 6.47198C4.76947 6.77517 4.96632 7.19022 4.996 7.63309C5.1758 7.6152 5.352 7.57106 5.519 7.50209C6.48 7.08709 8.293 5.96809 8.293 3.30209V2.24909C8.293 1.02909 9.295 -0.0489125 10.596 0.0430874ZM5 16.9181C6.059 16.9821 7.079 17.2731 8.118 17.5701L8.686 17.7301C10.092 18.1201 11.692 18.5001 13.828 18.5001C16.105 18.5001 16.832 18.2261 17.218 17.7191C17.434 17.4361 17.606 17.0011 17.758 16.2711C17.894 15.6211 18 14.8211 18.137 13.7941L18.187 13.4101C18.507 11.0101 18.44 9.61509 18.085 8.83509C17.925 8.48309 17.71 8.26709 17.425 8.12409C17.12 7.97109 16.685 7.87909 16.06 7.87909H13.69C13.009 7.87909 12.397 7.30909 12.479 6.55109C12.505 6.30809 12.544 6.01409 12.584 5.71709L12.654 5.19009C12.714 4.70809 12.759 4.26909 12.759 3.94009C12.759 2.81509 12.546 2.32309 12.286 2.06709C12.011 1.79709 11.512 1.61209 10.491 1.53909C10.14 1.51509 9.793 1.81309 9.793 2.24909V3.30209C9.793 6.85209 7.305 8.36509 6.113 8.87909C5.741 9.03909 5.359 9.11109 5 9.13909V16.9181ZM1.75 18.5001H3.25C3.3163 18.5001 3.37989 18.4737 3.42678 18.4269C3.47366 18.38 3.5 18.3164 3.5 18.2501V7.75009C3.5 7.68378 3.47366 7.62019 3.42678 7.57331C3.37989 7.52643 3.3163 7.50009 3.25 7.50009H1.75C1.6837 7.50009 1.62011 7.52643 1.57322 7.57331C1.52634 7.62019 1.5 7.68378 1.5 7.75009V18.2501C1.5 18.3881 1.612 18.5001 1.75 18.5001Z" fill="black" fill-opacity="0.2"/>
<path d="M10.596 0.0430874C11.671 0.119087 12.655 0.324088 13.339 0.999088C14.037 1.68709 14.259 2.69509 14.259 3.94009C14.259 4.37209 14.202 4.89509 14.142 5.37809C14.116 5.57809 14.091 5.77009 14.066 5.95009L14.01 6.37909H16.06C16.812 6.37909 17.506 6.48709 18.096 6.78309C18.708 7.08909 19.158 7.57009 19.451 8.21409C20.002 9.42809 19.993 11.2221 19.674 13.6081L19.623 13.9981C19.489 15.0081 19.375 15.8701 19.227 16.5781C19.061 17.3731 18.833 18.0741 18.411 18.6281C17.521 19.7961 16.016 20.0001 13.828 20.0001C11.497 20.0001 9.748 19.5821 8.284 19.1761L7.682 19.0061C6.659 18.7161 5.83 18.4801 4.992 18.4201C4.94977 18.8528 4.74799 19.2543 4.42597 19.5463C4.10395 19.8384 3.68475 20.0002 3.25 20.0001H1.75C1.28587 20.0001 0.840752 19.8157 0.512563 19.4875C0.184375 19.1593 0 18.7142 0 18.2501V7.75009C0 6.78409 0.784 6.00009 1.75 6.00009H3.25C3.69386 6.00011 4.12113 6.16879 4.4453 6.47198C4.76947 6.77517 4.96632 7.19022 4.996 7.63309C5.1758 7.6152 5.352 7.57106 5.519 7.50209C6.48 7.08709 8.293 5.96809 8.293 3.30209V2.24909C8.293 1.02909 9.295 -0.0489125 10.596 0.0430874ZM5 16.9181C6.059 16.9821 7.079 17.2731 8.118 17.5701L8.686 17.7301C10.092 18.1201 11.692 18.5001 13.828 18.5001C16.105 18.5001 16.832 18.2261 17.218 17.7191C17.434 17.4361 17.606 17.0011 17.758 16.2711C17.894 15.6211 18 14.8211 18.137 13.7941L18.187 13.4101C18.507 11.0101 18.44 9.61509 18.085 8.83509C17.925 8.48309 17.71 8.26709 17.425 8.12409C17.12 7.97109 16.685 7.87909 16.06 7.87909H13.69C13.009 7.87909 12.397 7.30909 12.479 6.55109C12.505 6.30809 12.544 6.01409 12.584 5.71709L12.654 5.19009C12.714 4.70809 12.759 4.26909 12.759 3.94009C12.759 2.81509 12.546 2.32309 12.286 2.06709C12.011 1.79709 11.512 1.61209 10.491 1.53909C10.14 1.51509 9.793 1.81309 9.793 2.24909V3.30209C9.793 6.85209 7.305 8.36509 6.113 8.87909C5.741 9.03909 5.359 9.11109 5 9.13909V16.9181ZM1.75 18.5001H3.25C3.3163 18.5001 3.37989 18.4737 3.42678 18.4269C3.47366 18.38 3.5 18.3164 3.5 18.2501V7.75009C3.5 7.68378 3.47366 7.62019 3.42678 7.57331C3.37989 7.52643 3.3163 7.50009 3.25 7.50009H1.75C1.6837 7.50009 1.62011 7.52643 1.57322 7.57331C1.52634 7.62019 1.5 7.68378 1.5 7.75009V18.2501C1.5 18.3881 1.612 18.5001 1.75 18.5001Z" fill="black" fill-opacity="0.2"/>
</svg>
