<svg width="8" height="15" viewBox="0 0 8 15" fill="none" xmlns="http://www.w3.org/2000/svg">
<path d="M4.0078 0C2.13746 0 0.615583 1.69514 0.615583 3.77867V7.30454C0.225921 7.99187 0 8.80537 0 9.67668C0 12.1333 1.79461 14.1323 4.00003 14.1323C6.20555 14.1323 8 12.1333 8 9.67668C8 8.81696 7.78006 8.01351 7.39991 7.33196V3.77863C7.39995 1.69514 5.87817 0 4.0078 0ZM4.0078 1.51323C5.12904 1.51323 6.04141 2.52947 6.04141 3.77867V5.84633C5.44341 5.44938 4.74529 5.22094 4.0001 5.22094C3.26125 5.22094 2.56868 5.44555 1.97408 5.83625V3.77867C1.97408 2.52947 2.88652 1.51323 4.0078 1.51323ZM4.00003 6.73424C5.45652 6.73424 6.6414 8.05418 6.6414 9.67668C6.6414 11.299 5.45649 12.6192 4.00003 12.6192C2.54354 12.6192 1.35847 11.299 1.35847 9.67668C1.35847 8.05418 2.54354 6.73424 4.00003 6.73424ZM4.01308 8.44146C3.39413 8.44146 2.89233 9.00042 2.89233 9.69018C2.89233 10.3795 3.39413 10.9384 4.01308 10.9384C4.6321 10.9384 5.13383 10.3795 5.13383 9.69018C5.13383 9.00042 4.6321 8.44146 4.01308 8.44146Z" fill="#515151"/>
</svg>
