<svg xmlns="http://www.w3.org/2000/svg" width="17" height="16" viewBox="0 0 17 16" fill="none">
  <path fill-rule="evenodd" clip-rule="evenodd" d="M15.0806 3.61071C15.1439 3.70685 15.1722 3.8219 15.1605 3.93644C15.1488 4.05098 15.098 4.15798 15.0166 4.23938L8.88794 10.3674C8.82524 10.43 8.74702 10.4749 8.66127 10.4974L6.10861 11.164C6.02423 11.1861 5.93556 11.1856 5.8514 11.1628C5.76725 11.1399 5.69053 11.0954 5.62887 11.0338C5.56721 10.9721 5.52274 10.8954 5.49989 10.8113C5.47704 10.7271 5.4766 10.6384 5.49861 10.554L6.16527 8.00205C6.18473 7.92544 6.22145 7.8543 6.27261 7.79405L12.4239 1.64672C12.5177 1.55308 12.6448 1.50049 12.7773 1.50049C12.9098 1.50049 13.0369 1.55308 13.1306 1.64672L15.0166 3.53205C15.0405 3.55605 15.062 3.58241 15.0806 3.61071ZM13.9559 3.88538L12.7773 2.70738L7.09861 8.38605L6.68194 9.98138L8.27727 9.56472L13.9559 3.88538Z" fill="#2F8132"/>
  <path d="M13.8711 11.4401C14.0533 9.88272 14.1115 8.31334 14.0451 6.74675C14.0436 6.70985 14.0498 6.67304 14.0632 6.63863C14.0766 6.60421 14.097 6.57294 14.1231 6.54675L14.7791 5.89075C14.797 5.87273 14.8197 5.86026 14.8446 5.85485C14.8694 5.84944 14.8953 5.85132 14.9191 5.86026C14.9429 5.8692 14.9636 5.88483 14.9787 5.90526C14.9939 5.92569 15.0028 5.95005 15.0044 5.97542C15.1279 7.83625 15.081 9.70446 14.8644 11.5568C14.7071 12.9048 13.6244 13.9614 12.2824 14.1114C9.95262 14.3694 7.60149 14.3694 5.27172 14.1114C3.93039 13.9614 2.84706 12.9048 2.68972 11.5568C2.41332 9.1937 2.41332 6.80648 2.68972 4.44342C2.84706 3.09542 3.92972 2.03875 5.27172 1.88875C7.03997 1.69268 8.82154 1.64518 10.5977 1.74675C10.6231 1.74858 10.6475 1.75765 10.6679 1.77289C10.6884 1.78814 10.704 1.80892 10.713 1.83277C10.7219 1.85662 10.7239 1.88254 10.7186 1.90747C10.7133 1.9324 10.701 1.95529 10.6831 1.97342L10.0211 2.63475C9.99513 2.66059 9.96418 2.68083 9.93013 2.69425C9.89608 2.70766 9.85964 2.71396 9.82306 2.71275C8.34089 2.66237 6.85703 2.71918 5.38306 2.88275C4.95235 2.93043 4.55029 3.1219 4.24183 3.42625C3.93336 3.73061 3.7365 4.13006 3.68306 4.56009C3.41575 6.84563 3.41575 9.15454 3.68306 11.4401C3.7365 11.8701 3.93336 12.2696 4.24183 12.5739C4.55029 12.8783 4.95235 13.0697 5.38306 13.1174C7.61972 13.3674 9.93439 13.3674 12.1717 13.1174C12.6024 13.0697 13.0045 12.8783 13.313 12.5739C13.6214 12.2696 13.8176 11.8701 13.8711 11.4401Z" fill="#2F8132"/>
</svg>