<svg xmlns="http://www.w3.org/2000/svg" width="12" height="13" viewBox="0 0 12 13" fill="none">
  <g clip-path="url(#clip0_1328_4327)">
    <path d="M11.6025 8.94894C11.5888 8.79913 11.5757 8.65794 11.5853 8.55125C11.6698 7.60869 11.3951 6.75894 10.791 6.09444C10.1057 5.3405 9.02533 4.89031 7.90126 4.89031C6.33601 4.89031 5.02408 5.71044 4.39164 7.08425C4.39014 7.08781 4.38826 7.09137 4.38695 7.09494C4.24164 6.56 4.09501 6.18875 3.97764 5.89119C3.77926 5.38794 3.67276 5.11812 3.75808 4.52638C3.9129 4.50953 4.0581 4.44295 4.17189 4.33663C4.19158 4.33794 4.21201 4.33888 4.23264 4.33888C4.44545 4.33888 4.62995 4.25825 4.76326 4.11462L4.77976 4.11481C5.0447 4.11481 5.27026 4.00025 5.42045 3.79813C5.78683 3.76737 6.03995 3.5465 6.09001 3.20619C6.15751 2.74944 5.99776 1.47106 5.65258 1.06869C5.5157 0.90875 5.36458 0.875 5.2622 0.875C4.67814 0.875 3.76464 1.00981 2.98914 1.21025C1.57576 1.5755 1.35489 1.94431 1.31983 2.225C1.17639 3.38319 0.963764 4.41631 0.775889 5.32794C0.509639 6.61944 0.299451 7.63962 0.401076 8.44175C0.440639 8.75469 0.519576 9.02319 0.595701 9.2825C0.690951 9.60612 0.789014 9.94081 0.822201 10.3985C0.867764 11.0347 1.55476 11.3996 2.70714 11.3996C3.15883 11.3996 3.61951 11.3407 3.99751 11.2359C4.46101 11.4579 5.99045 12.125 7.62395 12.125C8.1857 12.125 8.70901 12.0448 9.18001 11.8865C11.59 11.0754 11.6981 9.9905 11.6025 8.94894ZM0.773264 8.39431C0.610889 7.11312 1.34833 5.04781 1.6922 2.27169C1.75051 1.802 3.88839 1.31038 5.06439 1.25731C5.01658 1.29575 4.98226 1.34619 4.97776 1.39981C5.11876 1.33587 5.32933 1.31525 5.43264 1.526C5.43808 1.49075 5.44033 1.45944 5.44033 1.43019C5.49433 1.53594 5.54364 1.68012 5.58526 1.84438C5.63758 2.08063 5.66683 2.32288 5.66739 2.56606C5.66776 2.735 5.70451 3.33725 5.42645 3.25887C5.25508 3.2105 5.25076 3.05244 5.20183 2.88969C5.12645 2.63525 4.9937 2.342 5.00983 2.07162C4.94439 2.33694 5.0222 2.65531 5.05108 2.92362C5.06758 3.07981 5.17558 3.50187 4.98433 3.55944C4.87858 3.59187 4.75595 3.51744 4.66839 3.46287C4.63501 3.44187 4.61008 3.28831 4.59789 3.24519C4.52251 2.98156 4.38751 2.67838 4.40476 2.40144C4.33876 2.65119 4.40308 2.95213 4.42408 3.20806C4.43701 3.36669 4.51708 3.71056 4.3382 3.79044C4.1357 3.89637 4.10458 3.6395 4.06708 3.50487C3.99751 3.25494 3.88445 2.98156 3.88745 2.71944C3.81676 3.03875 3.89983 3.41263 3.91351 3.73962C3.92083 3.902 3.58051 4.04862 3.45358 3.94662C3.25464 3.78669 3.22108 3.41225 3.19858 3.17019C3.2582 3.25156 3.3437 3.35675 3.45226 3.34606C3.36001 3.24088 3.32083 3.0605 3.25914 2.93263C3.20251 2.82763 3.08758 2.57769 2.95239 2.57356C2.9732 2.61837 3.0872 2.92719 3.06958 2.95981C3.01464 3.062 2.9612 3.16587 2.90008 3.26375C2.84814 3.34606 2.69739 3.60838 2.5757 3.52906C2.44426 3.44394 2.36176 3.06275 2.36176 3.06275C2.36176 3.06275 2.36664 3.53806 2.53651 3.64813C2.69739 3.75275 2.88076 3.58775 2.98726 3.47C3.00845 3.69594 3.06958 3.96087 3.20626 4.13562C2.80464 5.91669 3.54395 5.89888 4.04233 8.27975C4.04233 8.27975 4.37083 7.79544 4.65808 7.17163C5.28489 5.81 6.59233 5.20325 7.8527 5.20325C9.10258 5.20325 10.441 5.84225 10.9273 6.947C11.088 7.31187 11.128 7.748 11.0845 8.22837C11.0134 9.01081 11.7855 10.2837 8.90533 11.2402C6.61989 11.999 3.80889 10.544 3.80889 10.544C3.03789 10.796 1.23489 10.9061 1.19683 10.3721C1.13401 9.49738 0.856326 9.05206 0.773264 8.39431Z" fill="#626262"/>
    <path d="M6.42147 10.5442C6.92341 10.7284 7.46884 10.7784 7.99497 10.7158C8.52147 10.6521 9.03672 10.4801 9.48559 10.1902C9.70834 10.0444 9.91553 9.86887 10.0822 9.65831C10.2452 9.447 10.3772 9.20287 10.4077 8.94394C10.0837 9.34031 9.67159 9.55856 9.24691 9.732C8.81997 9.90075 8.37091 10.0059 7.91828 10.0601C7.46528 10.1124 7.00797 10.113 6.55497 10.0427C6.08235 9.96912 5.62676 9.81137 5.20984 9.57694C5.46559 10.0273 5.92309 10.3605 6.42147 10.5442ZM4.79416 1.78425C4.87366 1.26881 4.35691 1.4385 4.33891 1.65825C4.47991 1.59412 4.69084 1.57369 4.79416 1.78425ZM4.28322 2.06925C4.36291 1.55362 3.84634 1.72294 3.82834 1.94344C3.96934 1.87875 4.18009 1.8585 4.28322 2.06925ZM3.69316 2.36681C3.77284 1.85137 3.25628 2.02087 3.23828 2.241C3.37947 2.17631 3.58984 2.15625 3.69316 2.36681Z" fill="#626262"/>
  </g>
  <defs>
    <clipPath id="clip0_1328_4327">
      <rect width="12" height="12" fill="white" transform="translate(0 0.5)"/>
    </clipPath>
  </defs>
</svg>