<svg xmlns="http://www.w3.org/2000/svg" width="18" height="21" viewBox="0 0 18 21" fill="none">
  <path d="M0 7.16667H2.22222V0.5H4.44444L8.24444 7.16667H13.3333V0.5H15.5556V7.16667H17.7778V9.38889H15.5556V11.6111H17.7778V13.8333H15.5556V20.5H13.3333L9.52222 13.8333H4.44444V20.5H2.22222V13.8333H0V11.6111H2.22222V9.38889H0V7.16667ZM4.44444 7.16667H5.7L4.44444 4.97778V7.16667ZM4.44444 9.38889V11.6111H8.24444L6.97778 9.38889H4.44444ZM13.3333 16.0556V13.8333H12.0556L13.3333 16.0556ZM9.51111 9.38889L10.7889 11.6111H13.3333V9.38889H9.51111Z" fill="#222222"/>
  <path d="M0 7.16667H2.22222V0.5H4.44444L8.24444 7.16667H13.3333V0.5H15.5556V7.16667H17.7778V9.38889H15.5556V11.6111H17.7778V13.8333H15.5556V20.5H13.3333L9.52222 13.8333H4.44444V20.5H2.22222V13.8333H0V11.6111H2.22222V9.38889H0V7.16667ZM4.44444 7.16667H5.7L4.44444 4.97778V7.16667ZM4.44444 9.38889V11.6111H8.24444L6.97778 9.38889H4.44444ZM13.3333 16.0556V13.8333H12.0556L13.3333 16.0556ZM9.51111 9.38889L10.7889 11.6111H13.3333V9.38889H9.51111Z" fill="black" fill-opacity="0.2"/>
  <path d="M0 7.16667H2.22222V0.5H4.44444L8.24444 7.16667H13.3333V0.5H15.5556V7.16667H17.7778V9.38889H15.5556V11.6111H17.7778V13.8333H15.5556V20.5H13.3333L9.52222 13.8333H4.44444V20.5H2.22222V13.8333H0V11.6111H2.22222V9.38889H0V7.16667ZM4.44444 7.16667H5.7L4.44444 4.97778V7.16667ZM4.44444 9.38889V11.6111H8.24444L6.97778 9.38889H4.44444ZM13.3333 16.0556V13.8333H12.0556L13.3333 16.0556ZM9.51111 9.38889L10.7889 11.6111H13.3333V9.38889H9.51111Z" fill="black" fill-opacity="0.2"/>
</svg>