<svg width="16" height="16" viewBox="0 0 16 16" fill="none" xmlns="http://www.w3.org/2000/svg">
<path d="M3.83167 8.83333C4.06222 8.83333 4.25917 8.7525 4.4225 8.59083C4.58528 8.42917 4.66667 8.23278 4.66667 8.00167C4.66667 7.77111 4.58583 7.57417 4.42417 7.41083C4.2625 7.24806 4.06611 7.16667 3.835 7.16667C3.60444 7.16667 3.4075 7.2475 3.24417 7.40917C3.08139 7.57083 3 7.76722 3 7.99833C3 8.22889 3.08083 8.42583 3.2425 8.58917C3.40417 8.75194 3.60056 8.83333 3.83167 8.83333ZM7.99833 8.83333C8.22889 8.83333 8.42583 8.7525 8.58917 8.59083C8.75194 8.42917 8.83333 8.23278 8.83333 8.00167C8.83333 7.77111 8.7525 7.57417 8.59083 7.41083C8.42917 7.24806 8.23278 7.16667 8.00167 7.16667C7.77111 7.16667 7.57417 7.2475 7.41083 7.40917C7.24806 7.57083 7.16667 7.76722 7.16667 7.99833C7.16667 8.22889 7.2475 8.42583 7.40917 8.58917C7.57083 8.75194 7.76722 8.83333 7.99833 8.83333ZM12.165 8.83333C12.3956 8.83333 12.5925 8.7525 12.7558 8.59083C12.9186 8.42917 13 8.23278 13 8.00167C13 7.77111 12.9192 7.57417 12.7575 7.41083C12.5958 7.24806 12.3994 7.16667 12.1683 7.16667C11.9378 7.16667 11.7408 7.2475 11.5775 7.40917C11.4147 7.57083 11.3333 7.76722 11.3333 7.99833C11.3333 8.22889 11.4142 8.42583 11.5758 8.58917C11.7375 8.75194 11.9339 8.83333 12.165 8.83333ZM8.0025 15.5C6.96583 15.5 5.99083 15.3033 5.0775 14.91C4.16472 14.5161 3.37056 13.9817 2.695 13.3067C2.01944 12.6322 1.48472 11.8389 1.09083 10.9267C0.696945 10.0144 0.5 9.03972 0.5 8.0025C0.5 6.96583 0.696667 5.99083 1.09 5.0775C1.48389 4.16472 2.01833 3.37056 2.69333 2.695C3.36778 2.01944 4.16111 1.48472 5.07333 1.09083C5.98556 0.696945 6.96028 0.5 7.9975 0.5C9.03417 0.5 10.0092 0.696667 10.9225 1.09C11.8353 1.48389 12.6294 2.01833 13.305 2.69333C13.9806 3.36778 14.5153 4.16111 14.9092 5.07333C15.3031 5.98556 15.5 6.96028 15.5 7.9975C15.5 9.03417 15.3033 10.0092 14.91 10.9225C14.5161 11.8353 13.9817 12.6294 13.3067 13.305C12.6322 13.9806 11.8389 14.5153 10.9267 14.9092C10.0144 15.3031 9.03972 15.5 8.0025 15.5ZM8 14.6667C9.86111 14.6667 11.4375 14.0208 12.7292 12.7292C14.0208 11.4375 14.6667 9.86111 14.6667 8C14.6667 6.13889 14.0208 4.5625 12.7292 3.27083C11.4375 1.97917 9.86111 1.33333 8 1.33333C6.13889 1.33333 4.5625 1.97917 3.27083 3.27083C1.97917 4.5625 1.33333 6.13889 1.33333 8C1.33333 9.86111 1.97917 11.4375 3.27083 12.7292C4.5625 14.0208 6.13889 14.6667 8 14.6667Z" fill="#F79009"/>
</svg>
