<svg width="18" height="20" viewBox="0 0 18 20" fill="none" xmlns="http://www.w3.org/2000/svg">
<path d="M3 16V7C3 5.4087 3.63214 3.88258 4.75736 2.75736C5.88258 1.63214 7.4087 1 9 1C10.5913 1 12.1174 1.63214 13.2426 2.75736C14.3679 3.88258 15 5.4087 15 7V16M3 16H15M3 16H1M15 16H17M8 19H10" stroke="#222222" stroke-width="1.5" stroke-linecap="round" stroke-linejoin="round"/>
<path d="M3 16V7C3 5.4087 3.63214 3.88258 4.75736 2.75736C5.88258 1.63214 7.4087 1 9 1C10.5913 1 12.1174 1.63214 13.2426 2.75736C14.3679 3.88258 15 5.4087 15 7V16M3 16H15M3 16H1M15 16H17M8 19H10" stroke="black" stroke-opacity="0.2" stroke-width="1.5" stroke-linecap="round" stroke-linejoin="round"/>
<path d="M3 16V7C3 5.4087 3.63214 3.88258 4.75736 2.75736C5.88258 1.63214 7.4087 1 9 1C10.5913 1 12.1174 1.63214 13.2426 2.75736C14.3679 3.88258 15 5.4087 15 7V16M3 16H15M3 16H1M15 16H17M8 19H10" stroke="black" stroke-opacity="0.2" stroke-width="1.5" stroke-linecap="round" stroke-linejoin="round"/>
</svg>
