<svg width="16" height="17" viewBox="0 0 16 17" fill="none" xmlns="http://www.w3.org/2000/svg">
<path d="M7.99984 2.16663C6.32013 2.16663 4.70922 2.83389 3.52149 4.02162C2.33376 5.20935 1.6665 6.82025 1.6665 8.49996C1.6665 10.1797 2.33376 11.7906 3.52149 12.9783C4.70922 14.166 6.32013 14.8333 7.99984 14.8333C8.13245 14.8333 8.25962 14.886 8.35339 14.9797C8.44716 15.0735 8.49984 15.2007 8.49984 15.3333C8.49984 15.4659 8.44716 15.5931 8.35339 15.6868C8.25962 15.7806 8.13245 15.8333 7.99984 15.8333C3.94984 15.8333 0.666504 12.55 0.666504 8.49996C0.666504 4.44996 3.94984 1.16663 7.99984 1.16663C12.0498 1.16663 15.3332 4.44996 15.3332 8.49996C15.3332 8.63257 15.2805 8.75974 15.1867 8.85351C15.093 8.94728 14.9658 8.99996 14.8332 8.99996C14.7006 8.99996 14.5734 8.94728 14.4796 8.85351C14.3858 8.75974 14.3332 8.63257 14.3332 8.49996C14.3332 6.82025 13.6659 5.20935 12.4782 4.02162C11.2905 2.83389 9.67954 2.16663 7.99984 2.16663Z" fill="#9E9E9E"/>
<path d="M9.17252 12.1533L11.6579 14.3626C11.6874 14.389 11.724 14.4063 11.7631 14.4123C11.8023 14.4184 11.8424 14.413 11.8785 14.3968C11.9147 14.3806 11.9454 14.3542 11.9669 14.321C11.9884 14.2877 11.9999 14.2489 11.9999 14.2093V12.5H14.8332C14.9658 12.5 15.093 12.4473 15.1867 12.3535C15.2805 12.2598 15.3332 12.1326 15.3332 12C15.3332 11.8674 15.2805 11.7402 15.1867 11.6464C15.093 11.5527 14.9658 11.5 14.8332 11.5H11.9999V9.79064C11.9999 9.75102 11.9884 9.71224 11.9669 9.67898C11.9454 9.64572 11.9147 9.6194 11.8785 9.60319C11.8424 9.58698 11.8023 9.58158 11.7631 9.58763C11.724 9.59368 11.6874 9.61094 11.6579 9.63731L9.17252 11.8466C9.1508 11.8658 9.1334 11.8894 9.12149 11.9159C9.10957 11.9423 9.10341 11.971 9.10341 12C9.10341 12.029 9.10957 12.0576 9.12149 12.0841C9.1334 12.1105 9.1508 12.1341 9.17252 12.1533ZM11.5199 6.68664C11.5663 6.64024 11.6031 6.58515 11.6282 6.52453C11.6533 6.4639 11.6662 6.39893 11.6662 6.33331C11.6662 6.26769 11.6533 6.20271 11.6282 6.14208C11.6031 6.08146 11.5663 6.02637 11.5199 5.97997C11.4735 5.93357 11.4184 5.89677 11.3577 5.87166C11.2971 5.84654 11.2321 5.83362 11.1665 5.83362C11.1009 5.83362 11.0359 5.84654 10.9753 5.87166C10.9147 5.89677 10.8596 5.93357 10.8132 5.97997L6.83318 9.95931L5.18652 8.31331C5.14012 8.26691 5.08503 8.2301 5.02441 8.20499C4.96378 8.17988 4.8988 8.16695 4.83318 8.16695C4.76756 8.16695 4.70259 8.17988 4.64196 8.20499C4.58134 8.2301 4.52625 8.26691 4.47985 8.31331C4.43345 8.35971 4.39664 8.41479 4.37153 8.47542C4.34642 8.53604 4.3335 8.60102 4.3335 8.66664C4.3335 8.73226 4.34642 8.79724 4.37153 8.85786C4.39664 8.91849 4.43345 8.97357 4.47985 9.01997L6.47985 11.02C6.52623 11.0664 6.58131 11.1033 6.64193 11.1284C6.70256 11.1535 6.76755 11.1665 6.83318 11.1665C6.89882 11.1665 6.96381 11.1535 7.02444 11.1284C7.08506 11.1033 7.14014 11.0664 7.18652 11.02L11.5199 6.68664Z" fill="#9E9E9E"/>
</svg>
