<svg xmlns="http://www.w3.org/2000/svg" width="56" height="56" viewBox="0 0 56 56" fill="none">
  <rect x="4" y="4" width="48" height="48" rx="24" fill="#A3D9A5"/>
  <rect x="4" y="4" width="48" height="48" rx="24" stroke="#E3F9E5" stroke-width="8"/>
  <path d="M24.2988 27.5025L22.0354 21.6825C21.8781 21.2778 22.2728 20.8905 22.6634 21.0285L22.7254 21.0545L34.7254 27.0545C34.8028 27.0931 34.8689 27.1512 34.9171 27.223C34.9653 27.2948 34.9941 27.3779 35.0006 27.4641C35.0071 27.5504 34.9912 27.6368 34.9543 27.7151C34.9174 27.7933 34.8608 27.8606 34.7901 27.9105L34.7254 27.9491L22.7254 33.9491C22.3368 34.1431 21.9141 33.7858 22.0154 33.3838L22.0354 33.3205L24.2988 27.5025ZM23.4374 22.5291L25.1774 27.0025H29.5954C29.7163 27.0025 29.833 27.0462 29.9241 27.1256C30.0151 27.2051 30.0743 27.3148 30.0908 27.4345L30.0954 27.5025C30.0954 27.6234 30.0516 27.7402 29.972 27.8313C29.8925 27.9224 29.7826 27.9815 29.6628 27.9978L29.5954 28.0025H25.1761L23.4368 32.4758L33.3841 27.5025L23.4374 22.5291Z" fill="#2F8132"/>
</svg>