<svg xmlns="http://www.w3.org/2000/svg" width="24" height="24" viewBox="0 0 24 24" fill="none">
  <path d="M6.998 13C7.27467 13 7.511 12.903 7.707 12.709C7.90233 12.515 8 12.2793 8 12.002C8 11.7253 7.903 11.489 7.709 11.293C7.515 11.0977 7.27933 11 7.002 11C6.72533 11 6.489 11.097 6.293 11.291C6.09767 11.485 6 11.7207 6 11.998C6 12.2747 6.097 12.511 6.291 12.707C6.485 12.9023 6.72067 13 6.998 13ZM11.998 13C12.2747 13 12.511 12.903 12.707 12.709C12.9023 12.515 13 12.2793 13 12.002C13 11.7253 12.903 11.489 12.709 11.293C12.515 11.0977 12.2793 11 12.002 11C11.7253 11 11.489 11.097 11.293 11.291C11.0977 11.485 11 11.7207 11 11.998C11 12.2747 11.097 12.511 11.291 12.707C11.485 12.9023 11.7207 13 11.998 13ZM16.998 13C17.2747 13 17.511 12.903 17.707 12.709C17.9023 12.515 18 12.2793 18 12.002C18 11.7253 17.903 11.489 17.709 11.293C17.515 11.0977 17.2793 11 17.002 11C16.7253 11 16.489 11.097 16.293 11.291C16.0977 11.485 16 11.7207 16 11.998C16 12.2747 16.097 12.511 16.291 12.707C16.485 12.9023 16.7207 13 16.998 13ZM12.003 21C10.759 21 9.589 20.764 8.493 20.292C7.39767 19.8193 6.44467 19.178 5.634 18.368C4.82333 17.5587 4.18167 16.6067 3.709 15.512C3.23633 14.4173 3 13.2477 3 12.003C3 10.759 3.236 9.589 3.708 8.493C4.18067 7.39767 4.822 6.44467 5.632 5.634C6.44133 4.82333 7.39333 4.18167 8.488 3.709C9.58267 3.23633 10.7523 3 11.997 3C13.241 3 14.411 3.236 15.507 3.708C16.6023 4.18067 17.5553 4.822 18.366 5.632C19.1767 6.44133 19.8183 7.39333 20.291 8.488C20.7637 9.58267 21 10.7523 21 11.997C21 13.241 20.764 14.411 20.292 15.507C19.8193 16.6023 19.178 17.5553 18.368 18.366C17.5587 19.1767 16.6067 19.8183 15.512 20.291C14.4173 20.7637 13.2477 21 12.003 21ZM12 20C14.2333 20 16.125 19.225 17.675 17.675C19.225 16.125 20 14.2333 20 12C20 9.76667 19.225 7.875 17.675 6.325C16.125 4.775 14.2333 4 12 4C9.76667 4 7.875 4.775 6.325 6.325C4.775 7.875 4 9.76667 4 12C4 14.2333 4.775 16.125 6.325 17.675C7.875 19.225 9.76667 20 12 20Z" fill="#222222"/>
  <path d="M6.998 13C7.27467 13 7.511 12.903 7.707 12.709C7.90233 12.515 8 12.2793 8 12.002C8 11.7253 7.903 11.489 7.709 11.293C7.515 11.0977 7.27933 11 7.002 11C6.72533 11 6.489 11.097 6.293 11.291C6.09767 11.485 6 11.7207 6 11.998C6 12.2747 6.097 12.511 6.291 12.707C6.485 12.9023 6.72067 13 6.998 13ZM11.998 13C12.2747 13 12.511 12.903 12.707 12.709C12.9023 12.515 13 12.2793 13 12.002C13 11.7253 12.903 11.489 12.709 11.293C12.515 11.0977 12.2793 11 12.002 11C11.7253 11 11.489 11.097 11.293 11.291C11.0977 11.485 11 11.7207 11 11.998C11 12.2747 11.097 12.511 11.291 12.707C11.485 12.9023 11.7207 13 11.998 13ZM16.998 13C17.2747 13 17.511 12.903 17.707 12.709C17.9023 12.515 18 12.2793 18 12.002C18 11.7253 17.903 11.489 17.709 11.293C17.515 11.0977 17.2793 11 17.002 11C16.7253 11 16.489 11.097 16.293 11.291C16.0977 11.485 16 11.7207 16 11.998C16 12.2747 16.097 12.511 16.291 12.707C16.485 12.9023 16.7207 13 16.998 13ZM12.003 21C10.759 21 9.589 20.764 8.493 20.292C7.39767 19.8193 6.44467 19.178 5.634 18.368C4.82333 17.5587 4.18167 16.6067 3.709 15.512C3.23633 14.4173 3 13.2477 3 12.003C3 10.759 3.236 9.589 3.708 8.493C4.18067 7.39767 4.822 6.44467 5.632 5.634C6.44133 4.82333 7.39333 4.18167 8.488 3.709C9.58267 3.23633 10.7523 3 11.997 3C13.241 3 14.411 3.236 15.507 3.708C16.6023 4.18067 17.5553 4.822 18.366 5.632C19.1767 6.44133 19.8183 7.39333 20.291 8.488C20.7637 9.58267 21 10.7523 21 11.997C21 13.241 20.764 14.411 20.292 15.507C19.8193 16.6023 19.178 17.5553 18.368 18.366C17.5587 19.1767 16.6067 19.8183 15.512 20.291C14.4173 20.7637 13.2477 21 12.003 21ZM12 20C14.2333 20 16.125 19.225 17.675 17.675C19.225 16.125 20 14.2333 20 12C20 9.76667 19.225 7.875 17.675 6.325C16.125 4.775 14.2333 4 12 4C9.76667 4 7.875 4.775 6.325 6.325C4.775 7.875 4 9.76667 4 12C4 14.2333 4.775 16.125 6.325 17.675C7.875 19.225 9.76667 20 12 20Z" fill="black" fill-opacity="0.2"/>
  <path d="M6.998 13C7.27467 13 7.511 12.903 7.707 12.709C7.90233 12.515 8 12.2793 8 12.002C8 11.7253 7.903 11.489 7.709 11.293C7.515 11.0977 7.27933 11 7.002 11C6.72533 11 6.489 11.097 6.293 11.291C6.09767 11.485 6 11.7207 6 11.998C6 12.2747 6.097 12.511 6.291 12.707C6.485 12.9023 6.72067 13 6.998 13ZM11.998 13C12.2747 13 12.511 12.903 12.707 12.709C12.9023 12.515 13 12.2793 13 12.002C13 11.7253 12.903 11.489 12.709 11.293C12.515 11.0977 12.2793 11 12.002 11C11.7253 11 11.489 11.097 11.293 11.291C11.0977 11.485 11 11.7207 11 11.998C11 12.2747 11.097 12.511 11.291 12.707C11.485 12.9023 11.7207 13 11.998 13ZM16.998 13C17.2747 13 17.511 12.903 17.707 12.709C17.9023 12.515 18 12.2793 18 12.002C18 11.7253 17.903 11.489 17.709 11.293C17.515 11.0977 17.2793 11 17.002 11C16.7253 11 16.489 11.097 16.293 11.291C16.0977 11.485 16 11.7207 16 11.998C16 12.2747 16.097 12.511 16.291 12.707C16.485 12.9023 16.7207 13 16.998 13ZM12.003 21C10.759 21 9.589 20.764 8.493 20.292C7.39767 19.8193 6.44467 19.178 5.634 18.368C4.82333 17.5587 4.18167 16.6067 3.709 15.512C3.23633 14.4173 3 13.2477 3 12.003C3 10.759 3.236 9.589 3.708 8.493C4.18067 7.39767 4.822 6.44467 5.632 5.634C6.44133 4.82333 7.39333 4.18167 8.488 3.709C9.58267 3.23633 10.7523 3 11.997 3C13.241 3 14.411 3.236 15.507 3.708C16.6023 4.18067 17.5553 4.822 18.366 5.632C19.1767 6.44133 19.8183 7.39333 20.291 8.488C20.7637 9.58267 21 10.7523 21 11.997C21 13.241 20.764 14.411 20.292 15.507C19.8193 16.6023 19.178 17.5553 18.368 18.366C17.5587 19.1767 16.6067 19.8183 15.512 20.291C14.4173 20.7637 13.2477 21 12.003 21ZM12 20C14.2333 20 16.125 19.225 17.675 17.675C19.225 16.125 20 14.2333 20 12C20 9.76667 19.225 7.875 17.675 6.325C16.125 4.775 14.2333 4 12 4C9.76667 4 7.875 4.775 6.325 6.325C4.775 7.875 4 9.76667 4 12C4 14.2333 4.775 16.125 6.325 17.675C7.875 19.225 9.76667 20 12 20Z" fill="black" fill-opacity="0.2"/>
</svg>