<svg width="40" height="40" viewBox="0 0 40 40" fill="none" xmlns="http://www.w3.org/2000/svg">
<circle cx="20" cy="20" r="20" fill="#2F8132"/>
<path d="M20 13.666C20.7841 13.6658 21.5476 13.9169 22.1784 14.3825C22.8093 14.848 23.2743 15.5036 23.5052 16.2529C23.7361 17.0022 23.7207 17.8058 23.4613 18.5457C23.2019 19.2856 22.7122 19.9229 22.064 20.364C23.1891 20.7767 24.165 21.5166 24.8659 22.4886C25.5669 23.4606 25.961 24.6202 25.9973 25.818C26.0007 25.8845 25.9908 25.951 25.9682 26.0136C25.9455 26.0762 25.9106 26.1337 25.8655 26.1826C25.8203 26.2315 25.7659 26.271 25.7053 26.2986C25.6447 26.3262 25.5792 26.3414 25.5127 26.3433C25.4461 26.3453 25.3798 26.3339 25.3177 26.3099C25.2556 26.2859 25.199 26.2498 25.151 26.2036C25.1031 26.1574 25.0649 26.1021 25.0386 26.0409C25.0123 25.9797 24.9985 25.9139 24.998 25.8473C24.9583 24.5483 24.4144 23.3158 23.4814 22.411C22.5485 21.5061 21.3 21.0001 20.0003 21.0001C18.7007 21.0001 17.4521 21.5061 16.5192 22.411C15.5863 23.3158 15.0424 24.5483 15.0027 25.8473C14.9987 25.98 14.9422 26.1056 14.8456 26.1965C14.749 26.2875 14.6203 26.3363 14.4877 26.3323C14.3551 26.3284 14.2295 26.2719 14.1385 26.1753C14.0476 26.0787 13.9987 25.95 14.0027 25.8173C14.0392 24.6196 14.4333 23.4602 15.1342 22.4884C15.8352 21.5165 16.811 20.7766 17.936 20.364C17.2878 19.9229 16.7981 19.2856 16.5387 18.5457C16.2793 17.8058 16.2639 17.0022 16.4948 16.2529C16.7257 15.5036 17.1907 14.848 17.8216 14.3825C18.4524 13.9169 19.2159 13.6658 20 13.666ZM17.3333 17.3327C17.3333 18.0399 17.6143 18.7182 18.1144 19.2183C18.6145 19.7184 19.2928 19.9993 20 19.9993C20.7072 19.9993 21.3855 19.7184 21.8856 19.2183C22.3857 18.7182 22.6667 18.0399 22.6667 17.3327C22.6667 16.6254 22.3857 15.9472 21.8856 15.4471C21.3855 14.947 20.7072 14.666 20 14.666C19.2928 14.666 18.6145 14.947 18.1144 15.4471C17.6143 15.9472 17.3333 16.6254 17.3333 17.3327Z" fill="white"/>
</svg>
