<svg width="81" height="80" viewBox="0 0 81 80" fill="none" xmlns="http://www.w3.org/2000/svg">
<path d="M35.4667 7.43333L18.8334 13.7C15 15.1333 11.8667 19.6667 11.8667 23.7333V48.5C11.8667 52.4333 14.4667 57.6 17.6334 59.9667L31.9667 70.6667C36.6667 74.2 44.4 74.2 49.1 70.6667L63.4334 59.9667C66.6 57.6 69.2 52.4333 69.2 48.5V23.7333C69.2 19.6333 66.0667 15.1 62.2334 13.6667L45.6 7.43333C42.7667 6.39999 38.2334 6.39999 35.4667 7.43333Z" stroke="#515151" stroke-width="1.5" stroke-linecap="round" stroke-linejoin="round"/>
<path d="M40.5002 41.6666C44.1821 41.6666 47.1668 38.6819 47.1668 35C47.1668 31.3181 44.1821 28.3333 40.5002 28.3333C36.8183 28.3333 33.8335 31.3181 33.8335 35C33.8335 38.6819 36.8183 41.6666 40.5002 41.6666Z" stroke="#515151" stroke-width="1.5" stroke-miterlimit="10" stroke-linecap="round" stroke-linejoin="round"/>
<path d="M40.5 41.6667V51.6667" stroke="#515151" stroke-width="1.5" stroke-miterlimit="10" stroke-linecap="round" stroke-linejoin="round"/>
</svg>
