<svg width="10" height="15" viewBox="0 0 10 15" fill="none" xmlns="http://www.w3.org/2000/svg">
<path d="M5 14.4231C3.55208 14.0024 2.35667 13.0437 1.41375 11.5471C0.470834 10.0505 -0.000416391 8.38894 2.7606e-07 6.5625V2.16346L5 0L10 2.16346V6.5625C10 8.38942 9.52854 10.0512 8.58562 11.5478C7.64271 13.0445 6.4475 14.0029 5 14.4231ZM5 12.9087C6.01042 12.5481 6.85417 11.8358 7.53125 10.7719C8.20833 9.70793 8.60417 8.52115 8.71875 7.21154H5V1.53245L1.25 3.15505V6.88702C1.25 6.97115 1.26042 7.07933 1.28125 7.21154H5V12.9087Z" fill="#515151"/>
</svg>
