<svg width="12" height="9" viewBox="0 0 12 9" fill="none" xmlns="http://www.w3.org/2000/svg">
<path d="M0.666667 8.5H3.33333C3.7 8.5 4 8.2 4 7.83333C4 7.46667 3.7 7.16667 3.33333 7.16667H0.666667C0.3 7.16667 0 7.46667 0 7.83333C0 8.2 0.3 8.5 0.666667 8.5ZM0 1.16667C0 1.53333 0.3 1.83333 0.666667 1.83333H11.3333C11.7 1.83333 12 1.53333 12 1.16667C12 0.8 11.7 0.5 11.3333 0.5H0.666667C0.3 0.5 0 0.8 0 1.16667ZM0.666667 5.16667H7.33333C7.7 5.16667 8 4.86667 8 4.5C8 4.13333 7.7 3.83333 7.33333 3.83333H0.666667C0.3 3.83333 0 4.13333 0 4.5C0 4.86667 0.3 5.16667 0.666667 5.16667Z" fill="#626262"/>
</svg>
