<svg width="18" height="18" viewBox="0 0 18 18" fill="none" xmlns="http://www.w3.org/2000/svg">
<path d="M8.99968 15.459C7.28682 15.459 5.64412 14.7786 4.43295 13.5674C3.22178 12.3562 2.54135 10.7135 2.54135 9.00065H0.458014C0.458014 13.7173 4.28301 17.5423 8.99968 17.5423V15.459ZM8.99968 2.54232C10.7125 2.54232 12.3552 3.22275 13.5664 4.43392C14.7776 5.64509 15.458 7.2878 15.458 9.00065H17.5413C17.5413 4.28315 13.7163 0.458984 8.99968 0.458984V2.54232ZM2.54135 9.00065C2.54135 7.21732 3.26301 5.60398 4.43301 4.43398L2.95968 2.96065C2.16549 3.75308 1.53565 4.69458 1.10634 5.7311C0.677033 6.76763 0.456706 7.87874 0.458014 9.00065H2.54135ZM4.43301 4.43398C5.03194 3.83323 5.74375 3.35683 6.52747 3.03219C7.3112 2.70754 8.15138 2.54106 8.99968 2.54232V0.458984C6.64135 0.458984 4.50468 1.41648 2.95968 2.96065L4.43301 4.43398ZM2.95968 4.43398L13.5663 15.0407L15.0397 13.5673L4.43301 2.96065L2.95968 4.43398ZM15.458 9.00065C15.458 10.784 14.7363 12.3973 13.5663 13.5673L15.0397 15.0407C15.8339 14.2483 16.4638 13.3068 16.8931 12.2702C17.3224 11.2337 17.5427 10.1226 17.5413 9.00065H15.458ZM13.5663 13.5673C12.9674 14.1681 12.2556 14.6445 11.4719 14.9691C10.6882 15.2938 9.84798 15.4602 8.99968 15.459V17.5423C11.358 17.5423 13.4947 16.5848 15.0397 15.0407L13.5663 13.5673Z" fill="#515151"/>
</svg>
