<svg width="56" height="56" viewBox="0 0 56 56" fill="none" xmlns="http://www.w3.org/2000/svg">
<rect x="4" y="4" width="48" height="48" rx="24" fill="#A3D9A5"/>
<rect x="4" y="4" width="48" height="48" rx="24" stroke="#E3F9E5" stroke-width="8"/>
<path d="M32.5333 25.7751H31.6166V23.3335C31.6166 22.3743 31.2356 21.4544 30.5573 20.7761C29.8791 20.0978 28.9592 19.7168 28 19.7168C27.0408 19.7168 26.1209 20.0978 25.4426 20.7761C24.7643 21.4544 24.3833 22.3743 24.3833 23.3335V25.7751H23.4666C22.9141 25.7751 22.3842 25.9946 21.9935 26.3853C21.6028 26.776 21.3833 27.3059 21.3833 27.8585V34.2001C21.3848 34.7522 21.6048 35.2812 21.9952 35.6716C22.3856 36.0619 22.9146 36.2819 23.4666 36.2835H32.5333C33.0854 36.2819 33.6144 36.0619 34.0047 35.6716C34.3951 35.2812 34.6151 34.7522 34.6166 34.2001V27.8585C34.6166 27.3059 34.3971 26.776 34.0064 26.3853C33.6157 25.9946 33.0858 25.7751 32.5333 25.7751ZM25.2166 23.3335C25.2166 22.5953 25.5099 21.8873 26.0319 21.3653C26.5538 20.8434 27.2618 20.5501 28 20.5501C28.7382 20.5501 29.4461 20.8434 29.9681 21.3653C30.4901 21.8873 30.7833 22.5953 30.7833 23.3335V25.7751H25.2166V23.3335ZM33.7833 34.2001C33.7809 34.5309 33.6484 34.8475 33.4145 35.0814C33.1806 35.3153 32.8641 35.4477 32.5333 35.4501H23.4666C23.1359 35.4477 22.8193 35.3153 22.5854 35.0814C22.3515 34.8475 22.219 34.5309 22.2166 34.2001V27.8585C22.2166 27.5269 22.3483 27.209 22.5828 26.9746C22.8172 26.7402 23.1351 26.6085 23.4666 26.6085H32.5333C32.8648 26.6085 33.1828 26.7402 33.4172 26.9746C33.6516 27.209 33.7833 27.5269 33.7833 27.8585V34.2001Z" fill="#2F8132"/>
<path d="M28.8332 30.4583C28.8337 30.604 28.7953 30.7472 28.7221 30.8732C28.6488 30.9992 28.5434 31.1033 28.4165 31.175V32.425C28.4165 32.5355 28.3726 32.6415 28.2945 32.7196C28.2163 32.7978 28.1103 32.8417 27.9998 32.8417C27.8893 32.8417 27.7834 32.7978 27.7052 32.7196C27.6271 32.6415 27.5832 32.5355 27.5832 32.425V31.175C27.4563 31.1033 27.3508 30.9992 27.2776 30.8732C27.2044 30.7472 27.166 30.604 27.1665 30.4583C27.1665 30.2373 27.2543 30.0254 27.4106 29.8691C27.5669 29.7128 27.7788 29.625 27.9998 29.625C28.2209 29.625 28.4328 29.7128 28.5891 29.8691C28.7454 30.0254 28.8332 30.2373 28.8332 30.4583Z" fill="#2F8132"/>
</svg>
