<svg width="58" height="58" viewBox="0 0 58 58" fill="none" xmlns="http://www.w3.org/2000/svg">
<rect x="4" y="4" width="50" height="50" rx="25" fill="#D1FADF"/>
<path d="M38.9168 27.5414V28.4998C38.9156 30.7461 38.1882 32.9317 36.8432 34.7308C35.4983 36.53 33.6078 37.8461 31.4537 38.483C29.2996 39.1199 26.9973 39.0434 24.8902 38.265C22.7832 37.4865 20.9842 36.0478 19.7616 34.1634C18.539 32.279 17.9583 30.0498 18.1061 27.8084C18.2539 25.567 19.1223 23.4335 20.5817 21.7259C22.0412 20.0183 24.0135 18.8283 26.2045 18.3333C28.3956 17.8382 30.6879 18.0647 32.7398 18.9789M38.9168 20.1664L28.5002 30.5935L25.3752 27.4685" stroke="#2F8132" stroke-width="2" stroke-linecap="round" stroke-linejoin="round"/>
<rect x="4" y="4" width="50" height="50" rx="25" stroke="#E3F9E5" stroke-width="8"/>
</svg>
