<svg width="41" height="40" viewBox="0 0 41 40" fill="none" xmlns="http://www.w3.org/2000/svg">
<circle cx="20.3682" cy="20" r="20" fill="#2F8132"/>
<path d="M19.8682 16H20.8682V19H19.8682V16ZM19.8682 21H20.8682V24H19.8682V21ZM21.3682 19.5H24.3682V20.5H21.3682V19.5ZM16.3682 19.5H19.3682V20.5H16.3682V19.5ZM14.3682 17H13.3682V14C13.3684 13.7349 13.4739 13.4807 13.6613 13.2932C13.8488 13.1057 14.103 13.0003 14.3682 13H17.3682V14H14.3682V17ZM17.3682 27H14.3682C14.103 26.9997 13.8488 26.8943 13.6613 26.7068C13.4739 26.5193 13.3684 26.2651 13.3682 26V23H14.3682V26H17.3682V27ZM26.3682 27H23.3682V26H26.3682V23H27.3682V26C27.3679 26.2651 27.2625 26.5193 27.075 26.7068C26.8875 26.8943 26.6333 26.9997 26.3682 27ZM27.3682 17H26.3682V14H23.3682V13H26.3682C26.6333 13.0003 26.8875 13.1057 27.075 13.2932C27.2625 13.4807 27.3679 13.7349 27.3682 14V17Z" fill="white"/>
</svg>
