<svg xmlns="http://www.w3.org/2000/svg" width="21" height="20" viewBox="0 0 21 20" fill="none">
  <path d="M17.375 5.625H4.875C4.70924 5.625 4.55027 5.55915 4.43306 5.44194C4.31585 5.32473 4.25 5.16576 4.25 5C4.25 4.83424 4.31585 4.67527 4.43306 4.55806C4.55027 4.44085 4.70924 4.375 4.875 4.375H15.5C15.6658 4.375 15.8247 4.30915 15.9419 4.19194C16.0592 4.07473 16.125 3.91576 16.125 3.75C16.125 3.58424 16.0592 3.42527 15.9419 3.30806C15.8247 3.19085 15.6658 3.125 15.5 3.125H4.875C4.37772 3.125 3.90081 3.32254 3.54917 3.67417C3.19754 4.02581 3 4.50272 3 5V15C3 15.4973 3.19754 15.9742 3.54917 16.3258C3.90081 16.6775 4.37772 16.875 4.875 16.875H17.375C17.7065 16.875 18.0245 16.7433 18.2589 16.5089C18.4933 16.2745 18.625 15.9565 18.625 15.625V6.875C18.625 6.54348 18.4933 6.22554 18.2589 5.99112C18.0245 5.7567 17.7065 5.625 17.375 5.625ZM17.375 15.625H4.875C4.70924 15.625 4.55027 15.5592 4.43306 15.4419C4.31585 15.3247 4.25 15.1658 4.25 15V6.76797C4.45068 6.83911 4.66208 6.87531 4.875 6.875H17.375V15.625ZM13.625 10.9375C13.625 10.7521 13.68 10.5708 13.783 10.4167C13.886 10.2625 14.0324 10.1423 14.2037 10.0714C14.375 10.0004 14.5635 9.98184 14.7454 10.018C14.9273 10.0542 15.0943 10.1435 15.2254 10.2746C15.3565 10.4057 15.4458 10.5727 15.482 10.7546C15.5182 10.9365 15.4996 11.125 15.4286 11.2963C15.3577 11.4676 15.2375 11.614 15.0833 11.717C14.9292 11.82 14.7479 11.875 14.5625 11.875C14.3139 11.875 14.0754 11.7762 13.8996 11.6004C13.7238 11.4246 13.625 11.1861 13.625 10.9375Z" fill="#3F9142"/>
</svg>