<svg width="16" height="14" viewBox="0 0 16 14" fill="none" xmlns="http://www.w3.org/2000/svg">
<path d="M4.66732 3.99984C6.50827 3.99984 8.00065 3.25364 8.00065 2.33317C8.00065 1.4127 6.50827 0.666504 4.66732 0.666504C2.82637 0.666504 1.33398 1.4127 1.33398 2.33317C1.33398 3.25364 2.82637 3.99984 4.66732 3.99984Z" stroke="#57AE5B" stroke-linecap="round" stroke-linejoin="round"/>
<path d="M1.33398 2.33301V4.66634C1.33398 5.58667 2.82632 6.33301 4.66732 6.33301C6.50832 6.33301 8.00065 5.58667 8.00065 4.66634V2.33301" stroke="#57AE5B" stroke-linecap="round" stroke-linejoin="round"/>
<path d="M1.33398 4.6665V6.99984C1.33398 7.92017 2.82632 8.6665 4.66732 8.6665C6.50832 8.6665 8.00065 7.92017 8.00065 6.99984V4.6665" stroke="#57AE5B" stroke-linecap="round" stroke-linejoin="round"/>
<path d="M1.33398 7V9.33333C1.33398 10.2537 2.82632 11 4.66732 11C6.50832 11 8.00065 10.2537 8.00065 9.33333V7" stroke="#57AE5B" stroke-linecap="round" stroke-linejoin="round"/>
<path d="M1.33398 9.33301V11.6663C1.33398 12.5867 2.82632 13.333 4.66732 13.333C6.50832 13.333 8.00065 12.5867 8.00065 11.6663V9.33301" stroke="#57AE5B" stroke-linecap="round" stroke-linejoin="round"/>
<path d="M11.3333 8.66634C13.1743 8.66634 14.6667 7.92015 14.6667 6.99967C14.6667 6.0792 13.1743 5.33301 11.3333 5.33301C9.49238 5.33301 8 6.0792 8 6.99967C8 7.92015 9.49238 8.66634 11.3333 8.66634Z" stroke="#57AE5B" stroke-linecap="round" stroke-linejoin="round"/>
<path d="M8 7V9.33333C8 10.2537 9.49233 11 11.3333 11C13.1743 11 14.6667 10.2537 14.6667 9.33333V7" stroke="#57AE5B" stroke-linecap="round" stroke-linejoin="round"/>
<path d="M8 9.33301V11.6663C8 12.5867 9.49233 13.333 11.3333 13.333C13.1743 13.333 14.6667 12.5867 14.6667 11.6663V9.33301" stroke="#57AE5B" stroke-linecap="round" stroke-linejoin="round"/>
</svg>
