<svg width="56" height="56" viewBox="0 0 56 56" fill="none" xmlns="http://www.w3.org/2000/svg">
<rect x="4" y="4" width="48" height="48" rx="24" fill="#A3D9A5"/>
<rect x="4" y="4" width="48" height="48" rx="24" stroke="#E3F9E5" stroke-width="8"/>
<g clip-path="url(#clip0_961_12829)">
<path d="M21.334 24.6335C21.334 24.0448 21.334 23.7508 21.3807 23.5055C21.4801 22.9787 21.7361 22.4942 22.1151 22.115C22.4941 21.7359 22.9786 21.4798 23.5053 21.3802C23.7513 21.3335 24.046 21.3335 24.634 21.3335C24.8913 21.3335 25.0207 21.3335 25.1447 21.3448C25.6787 21.395 26.1852 21.605 26.598 21.9475C26.694 22.0268 26.7847 22.1175 26.9673 22.3002L27.334 22.6668C27.878 23.2108 28.15 23.4828 28.4753 23.6635C28.6541 23.7632 28.8438 23.8419 29.0407 23.8982C29.3993 24.0002 29.784 24.0002 30.5527 24.0002H30.802C32.5567 24.0002 33.4347 24.0002 34.0047 24.5135C34.0573 24.5602 34.1073 24.6102 34.154 24.6628C34.6673 25.2328 34.6673 26.1108 34.6673 27.8655V29.3335C34.6673 31.8475 34.6673 33.1048 33.886 33.8855C33.1053 34.6668 31.848 34.6668 29.334 34.6668H26.6673C24.1533 34.6668 22.896 34.6668 22.1153 33.8855C21.334 33.1048 21.334 31.8475 21.334 29.3335V24.6335Z" stroke="#2F8132"/>
<path d="M28.0013 30.0002C28.7377 30.0002 29.3346 29.4032 29.3346 28.6668C29.3346 27.9304 28.7377 27.3335 28.0013 27.3335C27.2649 27.3335 26.668 27.9304 26.668 28.6668C26.668 29.4032 27.2649 30.0002 28.0013 30.0002Z" stroke="#2F8132"/>
<mask id="path-4-inside-1_961_12829" fill="white">
<path d="M27.5 31.6667C27.5 31.7993 27.5527 31.9265 27.6464 32.0202C27.7402 32.114 27.8674 32.1667 28 32.1667C28.1326 32.1667 28.2598 32.114 28.3536 32.0202C28.4473 31.9265 28.5 31.7993 28.5 31.6667H27.5ZM27.5 30V31.6667H28.5V30H27.5Z"/>
</mask>
<path d="M27.5 31.6667C27.5 31.7993 27.5527 31.9265 27.6464 32.0202C27.7402 32.114 27.8674 32.1667 28 32.1667C28.1326 32.1667 28.2598 32.114 28.3536 32.0202C28.4473 31.9265 28.5 31.7993 28.5 31.6667H27.5ZM27.5 30V31.6667H28.5V30H27.5Z" fill="#222222"/>
<path d="M27.5 31.6667C27.5 31.7993 27.5527 31.9265 27.6464 32.0202C27.7402 32.114 27.8674 32.1667 28 32.1667C28.1326 32.1667 28.2598 32.114 28.3536 32.0202C28.4473 31.9265 28.5 31.7993 28.5 31.6667H27.5ZM27.5 30V31.6667H28.5V30H27.5Z" fill="black" fill-opacity="0.2"/>
<path d="M27.5 31.6667C27.5 31.7993 27.5527 31.9265 27.6464 32.0202C27.7402 32.114 27.8674 32.1667 28 32.1667C28.1326 32.1667 28.2598 32.114 28.3536 32.0202C28.4473 31.9265 28.5 31.7993 28.5 31.6667H27.5ZM27.5 30V31.6667H28.5V30H27.5Z" fill="black" fill-opacity="0.2"/>
<path d="M28.5 31.1667H27.5V32.1667H28.5V31.1667ZM27.5 30V29H26.5V30H27.5ZM28.5 30H29.5V29H28.5V30ZM26.5 31.6667C26.5 32.0645 26.658 32.446 26.9393 32.7273L28.3536 31.3131C28.4473 31.4069 28.5 31.5341 28.5 31.6667H26.5ZM26.9393 32.7273C27.2206 33.0086 27.6022 33.1667 28 33.1667V31.1667C28.1326 31.1667 28.2598 31.2193 28.3536 31.3131L26.9393 32.7273ZM28 33.1667C28.3978 33.1667 28.7794 33.0086 29.0607 32.7273L27.6464 31.3131C27.7402 31.2193 27.8674 31.1667 28 31.1667V33.1667ZM29.0607 32.7273C29.342 32.446 29.5 32.0645 29.5 31.6667H27.5C27.5 31.5341 27.5527 31.4069 27.6464 31.3131L29.0607 32.7273ZM26.5 30V31.6667H28.5V30H26.5ZM29.5 31.6667V30H27.5V31.6667H29.5ZM28.5 29H27.5V31H28.5V29Z" fill="#2F8132" mask="url(#path-4-inside-1_961_12829)"/>
</g>
<defs>
<clipPath id="clip0_961_12829">
<rect width="16" height="16" fill="white" transform="translate(20 20)"/>
</clipPath>
</defs>
</svg>
