<svg width="22" height="22" viewBox="0 0 22 22" fill="none" xmlns="http://www.w3.org/2000/svg">
<path d="M1 5.95C1 5.067 1 4.626 1.07 4.258C1.21922 3.46784 1.60314 2.741 2.17165 2.17231C2.74017 1.60361 3.46689 1.21947 4.257 1.07C4.626 1 5.068 1 5.95 1C6.336 1 6.53 1 6.716 1.017C7.51705 1.09223 8.27679 1.40728 8.896 1.921C9.04 2.04 9.176 2.176 9.45 2.45L10 3C10.816 3.816 11.224 4.224 11.712 4.495C11.9802 4.64449 12.2648 4.7626 12.56 4.847C13.098 5 13.675 5 14.828 5H15.202C17.834 5 19.151 5 20.006 5.77C20.085 5.84 20.16 5.915 20.23 5.994C21 6.849 21 8.166 21 10.798V13C21 16.771 21 18.657 19.828 19.828C18.657 21 16.771 21 13 21H9C5.229 21 3.343 21 2.172 19.828C1 18.657 1 16.771 1 13V5.95Z" stroke="#222222" stroke-width="1.5"/>
<path d="M1 5.95C1 5.067 1 4.626 1.07 4.258C1.21922 3.46784 1.60314 2.741 2.17165 2.17231C2.74017 1.60361 3.46689 1.21947 4.257 1.07C4.626 1 5.068 1 5.95 1C6.336 1 6.53 1 6.716 1.017C7.51705 1.09223 8.27679 1.40728 8.896 1.921C9.04 2.04 9.176 2.176 9.45 2.45L10 3C10.816 3.816 11.224 4.224 11.712 4.495C11.9802 4.64449 12.2648 4.7626 12.56 4.847C13.098 5 13.675 5 14.828 5H15.202C17.834 5 19.151 5 20.006 5.77C20.085 5.84 20.16 5.915 20.23 5.994C21 6.849 21 8.166 21 10.798V13C21 16.771 21 18.657 19.828 19.828C18.657 21 16.771 21 13 21H9C5.229 21 3.343 21 2.172 19.828C1 18.657 1 16.771 1 13V5.95Z" stroke="black" stroke-opacity="0.2" stroke-width="1.5"/>
<path d="M1 5.95C1 5.067 1 4.626 1.07 4.258C1.21922 3.46784 1.60314 2.741 2.17165 2.17231C2.74017 1.60361 3.46689 1.21947 4.257 1.07C4.626 1 5.068 1 5.95 1C6.336 1 6.53 1 6.716 1.017C7.51705 1.09223 8.27679 1.40728 8.896 1.921C9.04 2.04 9.176 2.176 9.45 2.45L10 3C10.816 3.816 11.224 4.224 11.712 4.495C11.9802 4.64449 12.2648 4.7626 12.56 4.847C13.098 5 13.675 5 14.828 5H15.202C17.834 5 19.151 5 20.006 5.77C20.085 5.84 20.16 5.915 20.23 5.994C21 6.849 21 8.166 21 10.798V13C21 16.771 21 18.657 19.828 19.828C18.657 21 16.771 21 13 21H9C5.229 21 3.343 21 2.172 19.828C1 18.657 1 16.771 1 13V5.95Z" stroke="black" stroke-opacity="0.2" stroke-width="1.5"/>
<path d="M11 14C12.1046 14 13 13.1046 13 12C13 10.8954 12.1046 10 11 10C9.89543 10 9 10.8954 9 12C9 13.1046 9.89543 14 11 14Z" stroke="#222222" stroke-width="1.5"/>
<path d="M11 14C12.1046 14 13 13.1046 13 12C13 10.8954 12.1046 10 11 10C9.89543 10 9 10.8954 9 12C9 13.1046 9.89543 14 11 14Z" stroke="black" stroke-opacity="0.2" stroke-width="1.5"/>
<path d="M11 14C12.1046 14 13 13.1046 13 12C13 10.8954 12.1046 10 11 10C9.89543 10 9 10.8954 9 12C9 13.1046 9.89543 14 11 14Z" stroke="black" stroke-opacity="0.2" stroke-width="1.5"/>
<path d="M10.25 16.5C10.25 16.6989 10.329 16.8897 10.4697 17.0303C10.6103 17.171 10.8011 17.25 11 17.25C11.1989 17.25 11.3897 17.171 11.5303 17.0303C11.671 16.8897 11.75 16.6989 11.75 16.5H10.25ZM10.25 14V16.5H11.75V14H10.25Z" fill="#222222"/>
<path d="M10.25 16.5C10.25 16.6989 10.329 16.8897 10.4697 17.0303C10.6103 17.171 10.8011 17.25 11 17.25C11.1989 17.25 11.3897 17.171 11.5303 17.0303C11.671 16.8897 11.75 16.6989 11.75 16.5H10.25ZM10.25 14V16.5H11.75V14H10.25Z" fill="black" fill-opacity="0.2"/>
<path d="M10.25 16.5C10.25 16.6989 10.329 16.8897 10.4697 17.0303C10.6103 17.171 10.8011 17.25 11 17.25C11.1989 17.25 11.3897 17.171 11.5303 17.0303C11.671 16.8897 11.75 16.6989 11.75 16.5H10.25ZM10.25 14V16.5H11.75V14H10.25Z" fill="black" fill-opacity="0.2"/>
</svg>
